<?xml version="1.0" encoding="UTF-8" ?>
<!DOCTYPE svg PUBLIC "-//W3C//DTD SVG 1.1//EN" "http://www.w3.org/Graphics/SVG/1.1/DTD/svg11.dtd">
<svg viewBox="-120 -50 657 454" version="1.1" xmlns="http://www.w3.org/2000/svg">
<g id="#E8E8E8ff">
<path fill="#E8E8E8" opacity="1.00" d=" M 374.27 1.27 C 383.98 -2.40 394.78 6.01 395.27 15.97 C 396.34 25.28 388.61 34.72 379.04 34.62 C 369.14 34.85 361.30 24.54 363.00 15.05 C 363.66 8.76 368.27 3.20 374.27 1.27 M 365.89 12.85 C 362.90 20.84 368.64 30.55 377.14 31.56 C 384.00 32.59 390.33 27.43 392.23 21.04 C 393.73 14.06 389.87 6.22 382.91 4.03 C 376.01 1.49 368.14 6.11 365.89 12.85 Z" />
<path fill="#E8E8E8" opacity="1.00" d=" M 32.83 2.15 C 58.83 2.24 84.82 2.18 110.81 2.18 C 110.83 85.75 110.83 169.33 110.81 252.90 C 99.99 252.87 89.18 252.89 78.36 252.89 C 78.33 180.30 78.40 107.71 78.33 35.12 C 63.16 35.28 47.99 35.14 32.83 35.19 C 32.82 24.18 32.81 13.16 32.83 2.15 Z" />
<path fill="#E8E8E8" opacity="1.00" d=" M 220.12 10.12 C 246.08 -0.25 275.82 -0.30 302.06 9.16 C 328.12 18.60 350.17 38.01 363.64 62.15 C 373.33 79.18 378.98 98.41 380.62 117.91 C 380.87 121.71 380.68 125.54 381.22 129.32 C 380.99 129.54 380.53 129.96 380.30 130.18 C 369.76 130.25 359.21 130.17 348.67 130.21 C 348.56 106.35 340.96 82.08 325.32 63.81 C 313.19 49.34 295.76 39.52 277.15 36.46 C 256.85 33.11 235.10 36.43 217.58 47.55 C 199.52 58.73 186.56 77.03 180.06 97.09 C 174.86 113.42 172.89 131.19 176.86 148.00 C 182.47 171.61 198.24 192.57 219.36 204.50 C 232.25 211.94 247.12 215.76 261.99 215.72 C 325.99 215.75 389.99 215.72 454.00 215.74 C 454.00 226.75 454.01 237.77 453.99 248.78 C 396.01 248.77 338.04 248.78 280.06 248.78 C 268.67 248.67 257.22 249.25 245.89 247.68 C 217.26 244.01 190.18 229.46 171.33 207.59 C 154.39 188.07 144.36 162.76 143.02 136.97 C 141.72 112.14 147.43 86.98 159.32 65.14 C 172.55 40.64 194.12 20.40 220.12 10.12 Z" />
<path fill="#E8E8E8" opacity="1.00" d=" M 371.40 8.09 C 375.99 8.56 382.23 6.38 385.35 10.90 C 387.57 13.75 385.92 17.73 383.00 19.33 C 384.10 21.94 385.49 24.41 386.86 26.89 C 384.92 26.96 382.98 26.98 381.05 26.97 C 379.83 24.43 378.56 21.91 377.29 19.40 C 377.19 21.91 377.16 24.41 377.18 26.91 C 375.25 26.94 373.32 26.96 371.39 26.96 C 371.42 20.67 371.41 14.38 371.40 8.09 M 377.16 12.68 C 377.18 13.49 377.22 15.11 377.23 15.92 C 378.29 15.76 379.35 15.59 380.42 15.42 C 380.48 14.85 380.59 13.70 380.65 13.13 C 379.49 12.96 378.32 12.81 377.16 12.68 Z" />
<path fill="#E8E8E8" opacity="1.00" d=" M 0.00 54.29 C 21.40 53.89 42.83 54.12 64.24 54.18 C 64.36 120.62 64.59 187.07 64.70 253.52 C 54.08 253.49 43.45 253.49 32.83 253.52 C 32.81 198.06 32.83 142.60 32.82 87.14 C 21.88 86.89 10.90 87.64 0.00 86.75 L 0.00 54.29 Z" />
<path fill="#E8E8E8" opacity="1.00" d=" M 242.02 56.84 C 259.40 51.55 278.93 54.04 294.40 63.56 C 315.17 75.91 328.14 99.09 330.15 122.91 C 330.38 125.33 330.38 127.77 330.40 130.20 C 319.78 130.21 309.15 130.19 298.52 130.21 C 298.48 117.45 294.31 104.02 284.51 95.38 C 271.60 83.80 249.87 84.53 237.54 96.63 C 229.75 104.31 225.70 115.19 225.07 125.99 C 224.26 132.78 225.68 139.86 229.36 145.66 C 236.18 156.69 249.15 163.22 262.00 163.21 C 326.45 163.28 390.90 163.12 455.36 163.30 C 455.73 168.42 456.09 173.59 455.52 178.72 C 455.17 176.31 454.90 173.90 454.51 171.50 C 453.55 179.72 454.18 188.01 454.00 196.26 C 389.99 196.27 325.98 196.27 261.97 196.26 C 247.36 196.37 232.72 191.73 221.04 182.92 C 206.50 172.18 196.64 155.47 193.86 137.65 C 191.65 121.66 193.60 104.79 201.49 90.52 C 209.90 74.59 224.64 61.89 242.02 56.84 Z" />
</g>
</svg>
