<?xml version="1.0" encoding="UTF-8" ?>
<!DOCTYPE svg PUBLIC "-//W3C//DTD SVG 1.1//EN" "http://www.w3.org/Graphics/SVG/1.1/DTD/svg11.dtd">
<svg viewBox="-100 -120 502 510" version="1.1" xmlns="http://www.w3.org/2000/svg">
<g id="#E1E1E1ff">
<path fill="#E8E8E8" opacity="1.00" d=" M 147.42 1.50 C 151.90 -0.05 157.08 1.24 160.52 4.45 C 185.38 26.69 210.29 48.87 235.17 71.08 C 235.22 63.36 235.10 55.63 235.21 47.91 C 235.10 43.43 238.46 39.09 242.93 38.33 C 245.97 37.88 249.08 37.96 252.14 38.19 C 257.04 38.42 261.16 43.03 260.93 47.92 C 260.92 63.28 261.01 78.64 260.88 94.01 C 272.50 104.43 284.19 114.78 295.81 125.21 C 302.94 131.72 302.60 144.19 295.56 150.64 C 293.02 153.07 289.49 154.26 286.00 154.19 C 196.32 154.20 106.63 154.20 16.94 154.19 C 9.81 154.57 3.87 148.62 2.49 141.94 C 0.98 135.82 2.83 128.87 7.70 124.73 C 51.40 85.75 95.09 46.76 138.79 7.77 C 141.45 5.43 143.94 2.62 147.42 1.50 Z" />
<path fill="#E8E8E8" opacity="1.00" d=" M 42.06 167.07 C 115.02 167.07 187.98 167.07 260.94 167.07 C 260.93 201.71 260.95 236.36 260.93 271.01 C 260.84 283.07 254.58 294.84 244.75 301.81 C 238.20 306.54 230.13 309.06 222.06 309.00 C 175.05 309.00 128.05 309.00 81.04 309.00 C 72.43 309.09 63.83 306.21 57.05 300.91 C 47.62 293.66 41.84 281.87 42.06 269.96 C 42.06 235.66 42.06 201.36 42.06 167.07 M 124.95 207.87 C 117.09 214.53 112.43 224.74 112.55 235.05 C 112.50 255.41 112.54 275.77 112.53 296.13 C 138.30 296.13 164.06 296.13 189.83 296.13 C 189.79 275.41 189.90 254.68 189.77 233.95 C 189.63 221.31 182.02 209.19 170.83 203.39 C 163.89 199.54 155.78 199.04 148.02 199.35 C 139.64 199.36 131.27 202.34 124.95 207.87 Z" />
<path fill="#E8E8E8" opacity="1.00" d=" M 170.49 251.62 C 177.41 248.50 185.58 255.72 183.41 262.95 C 182.01 269.93 172.31 272.74 167.38 267.62 C 162.25 263.14 164.12 253.89 170.49 251.62 Z" />
</g>
</svg>
