<?xml version="1.0" encoding="UTF-8" ?>
<!DOCTYPE svg PUBLIC "-//W3C//DTD SVG 1.1//EN" "http://www.w3.org/Graphics/SVG/1.1/DTD/svg11.dtd">
<svg viewBox="-200 -180 1187 1181" version="1.1" xmlns="http://www.w3.org/2000/svg">
<g id="#ffffffff">
<path fill="#ffffff" opacity="1.00" d=" M 323.21 149.84 C 418.72 149.71 514.23 149.81 609.74 149.80 C 609.66 153.17 609.59 156.54 609.61 159.92 C 518.36 160.11 427.11 159.93 335.86 160.01 C 335.86 284.91 335.80 409.82 335.89 534.72 C 331.62 534.70 327.36 534.65 323.09 534.64 C 323.18 531.37 323.43 528.12 323.62 524.86 C 318.72 527.16 314.47 530.70 309.29 532.45 C 286.00 543.06 257.54 540.82 235.95 527.20 C 216.16 514.71 201.75 493.34 199.18 469.91 C 197.97 461.94 198.43 453.82 199.79 445.90 C 200.80 437.51 204.32 429.70 208.12 422.24 C 218.26 403.32 236.51 389.02 257.25 383.54 C 273.17 378.79 290.49 380.40 305.99 385.93 C 312.40 388.11 318.03 391.96 323.83 395.36 C 324.27 337.91 323.89 280.45 324.02 223.00 C 323.96 198.61 324.37 174.21 323.21 149.84 M 272.29 394.14 C 260.52 394.59 249.49 399.57 239.74 405.88 C 231.25 411.92 224.37 420.05 219.24 429.08 C 211.92 442.71 209.74 458.98 213.09 474.08 C 215.98 487.86 223.79 500.37 234.42 509.53 C 247.39 521.46 265.58 527.35 283.09 525.77 C 297.67 524.73 311.77 518.45 322.52 508.58 C 323.97 507.56 324.00 505.69 324.04 504.10 C 324.01 476.07 324.00 448.03 324.04 420.00 C 323.96 417.49 324.34 414.89 323.60 412.47 C 310.26 399.21 291.00 392.52 272.29 394.14 Z" />
<path fill="#ffffff" opacity="1.00" d=" M 344.63 168.03 C 432.76 167.90 520.89 167.98 609.01 167.99 C 608.43 183.32 608.70 198.66 608.65 214.00 C 608.63 272.69 608.68 331.38 608.62 390.07 C 608.51 391.70 608.96 393.27 609.51 394.79 C 618.13 388.84 627.94 384.92 638.07 382.41 C 654.45 379.00 671.87 380.90 687.10 387.84 C 701.86 394.71 714.75 405.98 722.85 420.17 C 735.01 440.47 737.19 466.34 728.40 488.34 C 718.08 515.47 691.91 536.14 662.81 538.63 C 644.13 540.89 624.99 535.53 609.37 525.25 C 609.36 528.38 609.46 531.51 609.63 534.65 C 597.51 534.71 585.39 534.71 573.28 534.64 C 574.33 519.12 574.55 503.56 574.73 488.00 C 574.73 434.63 574.71 381.25 574.75 327.88 C 566.22 327.78 557.69 327.70 549.17 328.00 C 548.03 331.80 547.30 336.31 543.81 338.74 C 542.03 340.12 539.07 340.34 537.48 338.57 C 534.58 335.82 533.39 331.88 532.53 328.11 C 524.38 327.58 516.20 327.82 508.04 327.96 C 506.83 332.33 505.37 337.93 500.70 339.71 C 494.44 340.46 492.78 332.73 491.37 328.15 C 489.22 327.97 487.06 327.90 484.91 327.81 C 483.84 331.65 482.86 335.88 479.66 338.58 C 478.04 340.26 474.99 340.24 473.38 338.58 C 470.50 335.84 469.26 331.93 468.38 328.17 C 464.96 327.82 461.52 327.54 458.10 327.85 C 456.04 331.04 455.93 335.34 453.05 338.06 C 451.49 339.62 448.86 340.57 446.91 339.16 C 443.02 336.78 442.08 331.90 440.88 327.86 C 428.66 327.87 416.44 327.66 404.22 327.97 C 403.23 331.44 402.54 335.25 400.02 338.00 C 398.03 340.34 393.93 340.46 391.98 338.02 C 389.43 335.30 388.55 331.57 387.75 328.05 C 377.98 327.67 368.18 327.71 358.41 328.02 C 358.55 384.68 358.44 441.34 358.47 498.00 C 358.60 508.68 358.40 519.40 359.30 530.06 C 359.06 531.50 360.40 533.67 358.88 534.62 C 354.14 534.84 349.40 534.57 344.66 534.76 C 344.54 412.52 344.59 290.28 344.63 168.03 M 358.78 178.46 C 358.14 188.25 358.56 198.09 358.58 207.90 C 368.20 207.69 377.82 207.93 387.44 207.75 C 388.23 203.37 389.06 198.67 392.19 195.29 C 393.93 193.24 397.18 193.20 399.30 194.68 C 402.68 198.20 403.85 203.11 404.52 207.80 C 416.58 207.84 428.63 207.79 440.69 207.82 C 441.38 203.68 441.93 199.17 444.89 195.92 C 446.75 193.52 450.72 192.81 452.96 195.10 C 456.11 198.59 457.09 203.36 457.86 207.86 C 461.24 207.82 464.63 207.81 468.01 207.80 C 468.42 203.86 469.07 199.74 471.51 196.48 C 473.28 193.40 478.26 192.60 480.59 195.47 C 483.83 198.75 484.49 203.48 485.10 207.84 C 487.08 207.84 489.06 207.82 491.05 207.79 C 491.81 203.52 492.61 198.97 495.47 195.53 C 497.70 192.60 502.79 193.31 504.46 196.49 C 506.90 199.76 507.54 203.86 507.93 207.81 C 509.94 207.84 511.96 207.87 513.98 207.87 C 515.02 203.86 515.73 199.58 518.08 196.08 C 519.63 193.76 523.06 192.79 525.41 194.50 C 529.63 197.56 530.42 203.11 531.39 207.85 C 545.82 207.78 560.25 207.82 574.68 207.84 C 574.72 198.05 574.79 188.27 574.47 178.49 C 502.57 178.58 430.68 178.64 358.78 178.46 M 403.92 214.58 C 403.28 219.67 400.83 227.90 394.16 226.24 C 389.79 224.04 388.80 218.67 387.27 214.47 C 377.69 214.52 368.11 214.40 358.54 214.54 C 358.54 232.27 358.23 250.01 358.70 267.74 C 368.29 267.66 377.88 267.83 387.47 267.60 C 388.21 263.71 388.76 259.53 391.30 256.33 C 392.84 254.55 395.33 252.62 397.76 253.93 C 402.58 256.64 403.78 262.62 404.36 267.66 C 406.37 267.62 408.39 267.60 410.41 267.59 C 411.12 263.42 411.97 259.04 414.63 255.62 C 416.84 252.95 421.20 253.02 423.47 255.58 C 426.21 258.96 426.99 263.41 427.69 267.59 C 449.08 267.84 470.49 267.74 491.89 267.64 C 492.76 263.85 493.62 259.97 495.55 256.55 C 497.18 254.15 500.85 252.44 503.39 254.53 C 507.61 257.48 508.25 262.99 509.32 267.62 C 511.31 267.62 513.31 267.62 515.32 267.61 C 515.68 263.58 516.62 259.40 519.10 256.13 C 520.75 253.90 524.09 252.63 526.50 254.46 C 530.62 257.47 531.55 262.96 532.40 267.67 C 534.38 267.64 536.37 267.61 538.36 267.59 C 538.89 263.82 539.67 259.98 541.64 256.68 C 543.13 254.62 546.10 252.60 548.63 254.12 C 553.73 256.49 554.36 262.77 555.34 267.64 C 561.77 267.79 568.21 267.64 574.64 267.66 C 574.75 249.92 574.83 232.18 574.61 214.44 C 560.03 214.58 545.45 214.34 530.88 214.56 C 530.22 217.70 529.30 220.83 527.73 223.65 C 526.06 225.82 522.90 227.52 520.30 225.97 C 516.27 223.57 515.56 218.54 514.19 214.47 C 512.11 214.46 510.04 214.50 507.97 214.55 C 507.04 218.53 506.01 223.14 502.41 225.59 C 500.53 227.09 497.57 226.90 496.01 225.01 C 492.77 222.39 492.97 217.62 490.54 214.51 C 488.68 214.48 486.54 213.97 484.88 214.95 C 483.60 218.43 483.07 222.50 480.04 225.03 C 478.31 227.11 474.71 227.02 472.91 225.08 C 470.03 222.34 469.19 218.26 468.15 214.59 C 464.72 214.47 461.30 214.46 457.87 214.51 C 456.70 217.63 455.67 220.84 453.94 223.71 C 452.80 225.76 450.26 226.91 447.98 226.41 C 442.96 224.98 442.39 218.84 441.06 214.60 C 428.68 214.38 416.30 214.41 403.92 214.58 M 404.39 274.42 C 403.35 278.31 402.19 282.39 399.39 285.42 C 396.80 287.30 392.89 286.52 391.14 283.86 C 388.83 281.21 388.97 277.33 387.04 274.53 C 377.49 274.43 367.92 274.17 358.38 274.71 C 358.56 290.12 358.48 305.53 358.42 320.93 C 368.11 321.31 377.88 321.57 387.55 320.79 C 388.37 316.68 388.69 311.99 391.88 308.90 C 393.35 307.50 395.63 305.93 397.66 307.17 C 402.73 309.71 403.70 315.87 404.45 320.93 C 415.95 321.54 427.50 321.11 439.03 321.18 C 439.44 321.04 440.26 320.76 440.67 320.62 C 441.84 316.46 442.13 311.69 445.51 308.57 C 447.09 306.61 450.30 305.70 452.09 307.91 C 456.12 311.02 457.11 316.22 457.59 320.99 C 460.96 321.28 464.35 321.36 467.72 321.00 C 468.62 316.42 469.68 311.53 473.02 308.05 C 474.62 307.00 476.82 306.04 478.57 307.34 C 483.65 309.78 483.78 316.05 485.38 320.72 C 486.90 322.12 489.38 320.88 491.29 320.96 C 491.59 316.83 492.38 312.45 495.25 309.27 C 496.72 307.48 499.32 305.76 501.58 307.30 C 506.21 310.19 507.22 316.04 508.25 320.98 C 516.25 321.30 524.32 321.54 532.30 320.83 C 533.12 316.04 533.94 310.23 538.34 307.37 C 541.71 305.41 545.13 308.45 546.71 311.31 C 548.78 314.24 547.98 318.46 550.10 321.21 C 558.30 321.24 566.51 321.29 574.72 321.11 C 574.72 305.55 574.79 290.00 574.63 274.45 C 568.22 274.51 561.82 274.40 555.41 274.44 C 553.95 278.61 552.99 283.78 548.71 286.04 C 546.60 287.30 544.02 286.05 542.51 284.43 C 540.05 281.67 539.36 277.89 538.50 274.41 C 536.30 274.46 534.12 274.48 531.93 274.55 C 531.19 278.40 530.03 282.36 527.26 285.27 C 524.88 287.50 520.79 286.54 519.05 283.97 C 517.10 281.14 516.33 277.72 515.47 274.45 C 513.36 274.44 511.26 274.43 509.17 274.42 C 507.93 278.13 507.14 282.32 504.16 285.09 C 502.27 287.02 498.83 286.91 496.94 285.04 C 494.00 282.32 493.44 278.10 492.21 274.48 C 470.82 274.49 449.41 274.22 428.03 274.61 C 425.71 277.61 425.78 282.08 422.87 284.80 C 421.05 286.80 417.72 287.12 415.65 285.35 C 412.69 282.45 411.79 278.27 410.67 274.44 C 408.57 274.45 406.48 274.44 404.39 274.42 M 648.30 394.15 C 642.10 394.61 636.08 396.40 630.23 398.41 C 623.52 400.69 617.80 404.99 612.13 409.10 C 610.67 410.44 608.37 411.62 608.66 413.94 C 608.61 444.31 608.69 474.69 608.62 505.07 C 608.22 507.65 610.50 509.33 612.27 510.76 C 618.43 515.47 625.06 519.75 632.40 522.38 C 643.26 525.77 654.89 527.13 666.14 524.93 C 680.54 522.83 693.47 514.76 703.44 504.42 C 713.50 492.70 720.49 477.71 720.43 462.05 C 721.68 438.65 708.69 415.25 688.55 403.43 C 676.66 395.84 662.26 393.01 648.30 394.15 Z" />
<path fill="#ffffff" opacity="1.00" d=" M 192.22 383.14 C 193.13 381.62 194.50 380.39 196.07 379.57 C 197.93 379.55 199.68 380.33 201.47 380.76 C 201.79 383.31 201.74 385.93 200.43 388.24 C 179.01 436.86 157.83 485.60 136.46 534.24 C 135.39 536.89 133.14 539.72 129.99 539.57 C 126.18 539.97 124.57 535.76 122.97 533.08 C 106.38 499.58 90.05 465.97 73.53 432.44 C 68.27 422.04 63.45 411.42 57.82 401.22 C 54.82 395.33 50.77 390.07 47.75 384.19 C 62.07 384.06 76.38 384.13 90.69 384.15 C 92.81 391.14 94.98 398.14 97.89 404.85 C 112.25 435.87 126.74 466.85 140.99 497.91 C 142.45 495.65 143.50 493.16 144.51 490.68 C 155.35 465.18 166.62 439.86 177.53 414.39 C 182.25 403.90 186.42 393.11 192.22 383.14 Z" />
<path fill="#ffffff" opacity="1.00" d=" M 406.13 398.15 C 418.42 388.54 433.38 382.38 448.94 380.92 C 465.01 379.92 481.53 383.27 495.42 391.58 C 497.87 393.05 500.25 394.62 502.71 396.08 C 502.71 392.08 502.60 388.07 502.66 384.07 C 514.57 384.17 526.49 384.16 538.40 384.07 C 538.44 391.72 537.65 399.35 537.66 407.00 C 537.42 454.62 537.86 502.25 537.43 549.87 C 536.61 561.88 536.07 574.06 532.81 585.73 C 530.69 594.83 527.71 603.86 522.75 611.83 C 514.70 626.16 499.80 636.53 483.46 638.69 C 477.71 639.79 471.84 639.66 466.03 639.56 C 460.68 639.29 455.15 639.05 450.28 636.59 C 450.36 635.29 450.47 634.00 450.58 632.72 C 458.50 629.49 467.34 630.96 475.33 627.98 C 484.93 625.07 494.61 619.44 498.68 609.83 C 502.91 597.37 502.75 584.00 502.83 571.00 C 502.71 555.26 503.07 539.51 502.63 523.77 C 499.74 525.44 497.07 527.46 494.20 529.16 C 470.30 542.61 439.22 542.50 415.69 528.28 C 400.77 519.53 388.83 505.83 382.23 489.85 C 376.42 475.50 374.62 459.39 377.97 444.21 C 381.47 426.12 391.99 409.79 406.13 398.15 M 448.34 394.27 C 434.00 395.57 420.65 402.54 410.00 412.01 C 399.85 421.99 392.71 435.11 390.29 449.17 C 388.75 460.84 389.46 473.06 394.08 484.01 C 402.60 506.15 423.89 522.82 447.50 525.51 C 465.36 528.00 483.93 522.09 497.88 510.85 C 499.85 508.89 502.96 507.18 502.75 504.00 C 502.94 477.01 502.76 450.00 502.84 423.01 C 502.77 419.83 503.08 416.61 502.45 413.48 C 499.09 409.46 494.64 406.54 490.24 403.78 C 477.87 396.02 462.86 392.59 448.34 394.27 Z" />
</g>
<g id="#F5F5F5ff">
<path fill="#31B478" opacity="1.00" d=" M 368.46 18.55 C 420.40 15.59 472.93 23.21 521.75 41.25 C 558.85 55.05 593.75 74.72 624.79 99.27 C 686.07 147.74 732.05 215.54 753.30 290.81 C 777.98 375.86 771.24 469.69 734.32 550.23 C 718.71 584.88 697.56 616.97 672.34 645.38 C 658.07 660.79 643.19 675.70 626.65 688.70 C 615.86 696.93 605.19 705.37 593.58 712.44 C 534.08 750.54 463.65 771.24 393.00 771.50 C 325.17 772.05 257.24 753.93 198.92 719.27 C 129.77 678.49 73.97 615.23 42.92 541.13 C 2.16 445.74 3.65 333.32 46.98 239.07 C 75.77 175.29 122.97 120.07 181.19 81.31 C 236.48 44.08 301.94 22.33 368.46 18.55 M 323.21 149.84 C 324.37 174.21 323.96 198.61 324.02 223.00 C 323.89 280.45 324.27 337.91 323.83 395.36 C 318.03 391.96 312.40 388.11 305.99 385.93 C 290.49 380.40 273.17 378.79 257.25 383.54 C 236.51 389.02 218.26 403.32 208.12 422.24 C 204.32 429.70 200.80 437.51 199.79 445.90 C 198.43 453.82 197.97 461.94 199.18 469.91 C 201.75 493.34 216.16 514.71 235.95 527.20 C 257.54 540.82 286.00 543.06 309.29 532.45 C 314.47 530.70 318.72 527.16 323.62 524.86 C 323.43 528.12 323.18 531.37 323.09 534.64 C 327.36 534.65 331.62 534.70 335.89 534.72 C 335.80 409.82 335.86 284.91 335.86 160.01 C 427.11 159.93 518.36 160.11 609.61 159.92 C 609.59 156.54 609.66 153.17 609.74 149.80 C 514.23 149.81 418.72 149.71 323.21 149.84 M 344.63 168.03 C 344.59 290.28 344.54 412.52 344.66 534.76 C 349.40 534.57 354.14 534.84 358.88 534.62 C 360.40 533.67 359.06 531.50 359.30 530.06 C 358.40 519.40 358.60 508.68 358.47 498.00 C 358.44 441.34 358.55 384.68 358.41 328.02 C 368.18 327.71 377.98 327.67 387.75 328.05 C 388.55 331.57 389.43 335.30 391.98 338.02 C 393.93 340.46 398.03 340.34 400.02 338.00 C 402.54 335.25 403.23 331.44 404.22 327.97 C 416.44 327.66 428.66 327.87 440.88 327.86 C 442.08 331.90 443.02 336.78 446.91 339.16 C 448.86 340.57 451.49 339.62 453.05 338.06 C 455.93 335.34 456.04 331.04 458.10 327.85 C 461.52 327.54 464.96 327.82 468.38 328.17 C 469.26 331.93 470.50 335.84 473.38 338.58 C 474.99 340.24 478.04 340.26 479.66 338.58 C 482.86 335.88 483.84 331.65 484.91 327.81 C 487.06 327.90 489.22 327.97 491.37 328.15 C 492.78 332.73 494.44 340.46 500.70 339.71 C 505.37 337.93 506.83 332.33 508.04 327.96 C 516.20 327.82 524.38 327.58 532.53 328.11 C 533.39 331.88 534.58 335.82 537.48 338.57 C 539.07 340.34 542.03 340.12 543.81 338.74 C 547.30 336.31 548.03 331.80 549.17 328.00 C 557.69 327.70 566.22 327.78 574.75 327.88 C 574.71 381.25 574.73 434.63 574.73 488.00 C 574.55 503.56 574.33 519.12 573.28 534.64 C 585.39 534.71 597.51 534.71 609.63 534.65 C 609.46 531.51 609.36 528.38 609.37 525.25 C 624.99 535.53 644.13 540.89 662.81 538.63 C 691.91 536.14 718.08 515.47 728.40 488.34 C 737.19 466.34 735.01 440.47 722.85 420.17 C 714.75 405.98 701.86 394.71 687.10 387.84 C 671.87 380.90 654.45 379.00 638.07 382.41 C 627.94 384.92 618.13 388.84 609.51 394.79 C 608.96 393.27 608.51 391.70 608.62 390.07 C 608.68 331.38 608.63 272.69 608.65 214.00 C 608.70 198.66 608.43 183.32 609.01 167.99 C 520.89 167.98 432.76 167.90 344.63 168.03 M 192.22 383.14 C 186.42 393.11 182.25 403.90 177.53 414.39 C 166.62 439.86 155.35 465.18 144.51 490.68 C 143.50 493.16 142.45 495.65 140.99 497.91 C 126.74 466.85 112.25 435.87 97.89 404.85 C 94.98 398.14 92.81 391.14 90.69 384.15 C 76.38 384.13 62.07 384.06 47.75 384.19 C 50.77 390.07 54.82 395.33 57.82 401.22 C 63.45 411.42 68.27 422.04 73.53 432.44 C 90.05 465.97 106.38 499.58 122.97 533.08 C 124.57 535.76 126.18 539.97 129.99 539.57 C 133.14 539.72 135.39 536.89 136.46 534.24 C 157.83 485.60 179.01 436.86 200.43 388.24 C 201.74 385.93 201.79 383.31 201.47 380.76 C 199.68 380.33 197.93 379.55 196.07 379.57 C 194.50 380.39 193.13 381.62 192.22 383.14 M 406.13 398.15 C 391.99 409.79 381.47 426.12 377.97 444.21 C 374.62 459.39 376.42 475.50 382.23 489.85 C 388.83 505.83 400.77 519.53 415.69 528.28 C 439.22 542.50 470.30 542.61 494.20 529.16 C 497.07 527.46 499.74 525.44 502.63 523.77 C 503.07 539.51 502.71 555.26 502.83 571.00 C 502.75 584.00 502.91 597.37 498.68 609.83 C 494.61 619.44 484.93 625.07 475.33 627.98 C 467.34 630.96 458.50 629.49 450.58 632.72 C 450.47 634.00 450.36 635.29 450.28 636.59 C 455.15 639.05 460.68 639.29 466.03 639.56 C 471.84 639.66 477.71 639.79 483.46 638.69 C 499.80 636.53 514.70 626.16 522.75 611.83 C 527.71 603.86 530.69 594.83 532.81 585.73 C 536.07 574.06 536.61 561.88 537.43 549.87 C 537.86 502.25 537.42 454.62 537.66 407.00 C 537.65 399.35 538.44 391.72 538.40 384.07 C 526.49 384.16 514.57 384.17 502.66 384.07 C 502.60 388.07 502.71 392.08 502.71 396.08 C 500.25 394.62 497.87 393.05 495.42 391.58 C 481.53 383.27 465.01 379.92 448.94 380.92 C 433.38 382.38 418.42 388.54 406.13 398.15 Z" />
<path fill="#31B478" opacity="1.00" d=" M 358.78 178.46 C 430.68 178.64 502.57 178.58 574.47 178.49 C 574.79 188.27 574.72 198.05 574.68 207.84 C 560.25 207.82 545.82 207.78 531.39 207.85 C 530.42 203.11 529.63 197.56 525.41 194.50 C 523.06 192.79 519.63 193.76 518.08 196.08 C 515.73 199.58 515.02 203.86 513.98 207.87 C 511.96 207.87 509.94 207.84 507.93 207.81 C 507.54 203.86 506.90 199.76 504.46 196.49 C 502.79 193.31 497.70 192.60 495.47 195.53 C 492.61 198.97 491.81 203.52 491.05 207.79 C 489.06 207.82 487.08 207.84 485.10 207.84 C 484.49 203.48 483.83 198.75 480.59 195.47 C 478.26 192.60 473.28 193.40 471.51 196.48 C 469.07 199.74 468.42 203.86 468.01 207.80 C 464.63 207.81 461.24 207.82 457.86 207.86 C 457.09 203.36 456.11 198.59 452.96 195.10 C 450.72 192.81 446.75 193.52 444.89 195.92 C 441.93 199.17 441.38 203.68 440.69 207.82 C 428.63 207.79 416.58 207.84 404.52 207.80 C 403.85 203.11 402.68 198.20 399.30 194.68 C 397.18 193.20 393.93 193.24 392.19 195.29 C 389.06 198.67 388.23 203.37 387.44 207.75 C 377.82 207.93 368.20 207.69 358.58 207.90 C 358.56 198.09 358.14 188.25 358.78 178.46 Z" />
<path fill="#31B478" opacity="1.00" d=" M 403.92 214.58 C 416.30 214.41 428.68 214.38 441.06 214.60 C 442.39 218.84 442.96 224.98 447.98 226.41 C 450.26 226.91 452.80 225.76 453.94 223.71 C 455.67 220.84 456.70 217.63 457.87 214.51 C 461.30 214.46 464.72 214.47 468.15 214.59 C 469.19 218.26 470.03 222.34 472.91 225.08 C 474.71 227.02 478.31 227.11 480.04 225.03 C 483.07 222.50 483.60 218.43 484.88 214.95 C 486.54 213.97 488.68 214.48 490.54 214.51 C 492.97 217.62 492.77 222.39 496.01 225.01 C 497.57 226.90 500.53 227.09 502.41 225.59 C 506.01 223.14 507.04 218.53 507.97 214.55 C 510.04 214.50 512.11 214.46 514.19 214.47 C 515.56 218.54 516.27 223.57 520.30 225.97 C 522.90 227.52 526.06 225.82 527.73 223.65 C 529.30 220.83 530.22 217.70 530.88 214.56 C 545.45 214.34 560.03 214.58 574.61 214.44 C 574.83 232.18 574.75 249.92 574.64 267.66 C 568.21 267.64 561.77 267.79 555.34 267.64 C 554.36 262.77 553.73 256.49 548.63 254.12 C 546.10 252.60 543.13 254.62 541.64 256.68 C 539.67 259.98 538.89 263.82 538.36 267.59 C 536.37 267.61 534.38 267.64 532.40 267.67 C 531.55 262.96 530.62 257.47 526.50 254.46 C 524.09 252.63 520.75 253.90 519.10 256.13 C 516.62 259.40 515.68 263.58 515.32 267.61 C 513.31 267.62 511.31 267.62 509.32 267.62 C 508.25 262.99 507.61 257.48 503.39 254.53 C 500.85 252.44 497.18 254.15 495.55 256.55 C 493.62 259.97 492.76 263.85 491.89 267.64 C 470.49 267.74 449.08 267.84 427.69 267.59 C 426.99 263.41 426.21 258.96 423.47 255.58 C 421.20 253.02 416.84 252.95 414.63 255.62 C 411.97 259.04 411.12 263.42 410.41 267.59 C 408.39 267.60 406.37 267.62 404.36 267.66 C 403.78 262.62 402.58 256.64 397.76 253.93 C 395.33 252.62 392.84 254.55 391.30 256.33 C 388.76 259.53 388.21 263.71 387.47 267.60 C 377.88 267.83 368.29 267.66 358.70 267.74 C 358.23 250.01 358.54 232.27 358.54 214.54 C 368.11 214.40 377.69 214.52 387.27 214.47 C 388.80 218.67 389.79 224.04 394.16 226.24 C 400.83 227.90 403.28 219.67 403.92 214.58 Z" />
<path fill="#31B478" opacity="1.00" d=" M 404.39 274.42 C 406.48 274.44 408.57 274.45 410.67 274.44 C 411.79 278.27 412.69 282.45 415.65 285.35 C 417.72 287.12 421.05 286.80 422.87 284.80 C 425.78 282.08 425.71 277.61 428.03 274.61 C 449.41 274.22 470.82 274.49 492.21 274.48 C 493.44 278.10 494.00 282.32 496.94 285.04 C 498.83 286.91 502.27 287.02 504.16 285.09 C 507.14 282.32 507.93 278.13 509.17 274.42 C 511.26 274.43 513.36 274.44 515.47 274.45 C 516.33 277.72 517.10 281.14 519.05 283.97 C 520.79 286.54 524.88 287.50 527.26 285.27 C 530.03 282.36 531.19 278.40 531.93 274.55 C 534.12 274.48 536.30 274.46 538.50 274.41 C 539.36 277.89 540.05 281.67 542.51 284.43 C 544.02 286.05 546.60 287.30 548.71 286.04 C 552.99 283.78 553.95 278.61 555.41 274.44 C 561.82 274.40 568.22 274.51 574.63 274.45 C 574.79 290.00 574.72 305.55 574.72 321.11 C 566.51 321.29 558.30 321.24 550.10 321.21 C 547.98 318.46 548.78 314.24 546.71 311.31 C 545.13 308.45 541.71 305.41 538.34 307.37 C 533.94 310.23 533.12 316.04 532.30 320.83 C 524.32 321.54 516.25 321.30 508.25 320.98 C 507.22 316.04 506.21 310.19 501.58 307.30 C 499.32 305.76 496.72 307.48 495.25 309.27 C 492.38 312.45 491.59 316.83 491.29 320.96 C 489.38 320.88 486.90 322.12 485.38 320.72 C 483.78 316.05 483.65 309.78 478.57 307.34 C 476.82 306.04 474.62 307.00 473.02 308.05 C 469.68 311.53 468.62 316.42 467.72 321.00 C 464.35 321.36 460.96 321.28 457.59 320.99 C 457.11 316.22 456.12 311.02 452.09 307.91 C 450.30 305.70 447.09 306.61 445.51 308.57 C 442.13 311.69 441.84 316.46 440.67 320.62 C 440.26 320.76 439.44 321.04 439.03 321.18 C 427.50 321.11 415.95 321.54 404.45 320.93 C 403.70 315.87 402.73 309.71 397.66 307.17 C 395.63 305.93 393.35 307.50 391.88 308.90 C 388.69 311.99 388.37 316.68 387.55 320.79 C 377.88 321.57 368.11 321.31 358.42 320.93 C 358.48 305.53 358.56 290.12 358.38 274.71 C 367.92 274.17 377.49 274.43 387.04 274.53 C 388.97 277.33 388.83 281.21 391.14 283.86 C 392.89 286.52 396.80 287.30 399.39 285.42 C 402.19 282.39 403.35 278.31 404.39 274.42 Z" />
<path fill="#31B478" opacity="1.00" d=" M 272.29 394.14 C 291.00 392.52 310.26 399.21 323.60 412.47 C 324.34 414.89 323.96 417.49 324.04 420.00 C 324.00 448.03 324.01 476.07 324.04 504.10 C 324.00 505.69 323.97 507.56 322.52 508.58 C 311.77 518.45 297.67 524.73 283.09 525.77 C 265.58 527.35 247.39 521.46 234.42 509.53 C 223.79 500.37 215.98 487.86 213.09 474.08 C 209.74 458.98 211.92 442.71 219.24 429.08 C 224.37 420.05 231.25 411.92 239.74 405.88 C 249.49 399.57 260.52 394.59 272.29 394.14 Z" />
<path fill="#31B478" opacity="1.00" d=" M 448.34 394.27 C 462.86 392.59 477.87 396.02 490.24 403.78 C 494.64 406.54 499.09 409.46 502.45 413.48 C 503.08 416.61 502.77 419.83 502.84 423.01 C 502.76 450.00 502.94 477.01 502.75 504.00 C 502.96 507.18 499.85 508.89 497.88 510.85 C 483.93 522.09 465.36 528.00 447.50 525.51 C 423.89 522.82 402.60 506.15 394.08 484.01 C 389.46 473.06 388.75 460.84 390.29 449.17 C 392.71 435.11 399.85 421.99 410.00 412.01 C 420.65 402.54 434.00 395.57 448.34 394.27 Z" />
<path fill="#31B478" opacity="1.00" d=" M 648.30 394.15 C 662.26 393.01 676.66 395.84 688.55 403.43 C 708.69 415.25 721.68 438.65 720.43 462.05 C 720.49 477.71 713.50 492.70 703.44 504.42 C 693.47 514.76 680.54 522.83 666.14 524.93 C 654.89 527.13 643.26 525.77 632.40 522.38 C 625.06 519.75 618.43 515.47 612.27 510.76 C 610.50 509.33 608.22 507.65 608.62 505.07 C 608.69 474.69 608.61 444.31 608.66 413.94 C 608.37 411.62 610.67 410.44 612.13 409.10 C 617.80 404.99 623.52 400.69 630.23 398.41 C 636.08 396.40 642.10 394.61 648.30 394.15 Z" />
</g>
</svg>
