<?xml version="1.0" encoding="UTF-8"?>
<!DOCTYPE svg PUBLIC "-//W3C//DTD SVG 1.1//EN" "http://www.w3.org/Graphics/SVG/1.1/DTD/svg11.dtd">
<!-- Creator: CorelDRAW X7 -->
<svg xmlns="http://www.w3.org/2000/svg" xml:space="preserve" width="16.5354in" height="11.6929in" version="1.1" style="shape-rendering:geometricPrecision; text-rendering:geometricPrecision; image-rendering:optimizeQuality; fill-rule:evenodd; clip-rule:evenodd"
viewBox="0 0 16535 11693"
 xmlns:xlink="http://www.w3.org/1999/xlink">
 <defs>
  <style type="text/css">
   <![CDATA[
    .fil0 {fill:#93CDC5}
   ]]>
  </style>
 </defs>
 <g id="Слой_x0020_1">
  <metadata id="CorelCorpID_0Corel-Layer"/>
  <path class="fil0" d="M8268 1938c2158,0 3908,1750 3908,3908 0,1168 -512,2215 -1324,2931 74,-100 136,-212 187,-333 72,-175 111,-351 116,-528 5,-178 -19,-342 -73,-494 -54,-151 -136,-280 -247,-385 -110,-106 -245,-176 -405,-212 180,-67 345,-162 494,-286 149,-123 276,-264 381,-424 106,-159 188,-333 247,-520 59,-188 89,-379 89,-575 0,-252 -54,-483 -162,-694 -108,-210 -254,-389 -440,-536 -185,-146 -401,-260 -647,-343 -247,-82 -512,-123 -794,-123 -371,0 -709,77 -1014,231 -306,154 -549,363 -729,625 -72,103 -118,187 -139,254 -46,103 -58,208 -35,316 23,108 79,198 166,270 103,93 225,135 366,128 142,-8 256,-66 344,-174 92,-103 134,-224 127,-362 -8,-139 -66,-255 -174,-347 -20,-16 -40,-30 -58,-43 -18,-13 -37,-24 -57,-34 185,-165 421,-287 709,-367 288,-79 591,-73 910,20 175,51 321,134 439,250 119,116 205,252 259,409 54,157 76,326 65,509 -10,182 -54,366 -131,551 -133,319 -297,554 -489,706 -193,151 -441,227 -745,227 -36,0 -75,-2 -119,-8 -44,-5 -86,-12 -127,-23 102,-442 225,-802 366,-1079 141,-278 348,-483 621,-617 61,-31 104,-67 127,-108 23,-41 28,-79 15,-112 -13,-33 -37,-59 -73,-77 -36,-18 -80,-19 -131,-4 -473,129 -853,373 -1141,733 -288,360 -504,866 -648,1519 -77,365 -157,673 -239,925 -82,252 -166,456 -251,613 -84,157 -174,271 -269,343 -96,72 -197,108 -305,108 -41,0 -82,-2 -123,-8 -42,-5 -83,-18 -124,-38 41,-21 82,-51 124,-93 92,-108 133,-232 123,-374 -10,-141 -67,-258 -170,-350 -108,-93 -232,-134 -374,-124 -141,10 -258,67 -351,170 -36,41 -64,88 -84,142 -21,54 -31,123 -31,205 0,61 14,144 42,247 28,102 85,204 170,304 85,100 204,186 358,258 155,72 355,108 602,108 159,0 304,-32 436,-96 131,-64 253,-153 366,-266 92,118 200,221 324,308 123,88 259,157 408,209 216,82 432,122 648,119 115,-1 226,-13 333,-36 -501,233 -1059,363 -1647,363 -2159,0 -3908,-1749 -3908,-3908 0,-408 63,-802 179,-1172 251,634 1065,1017 2634,485 -46,126 -94,259 -144,398 -87,245 -168,495 -244,752 -75,256 -142,511 -199,764 -41,179 -72,350 -93,513 59,-21 122,-34 189,-38 89,-7 174,2 255,27 21,-69 50,-145 85,-228 83,-199 186,-415 306,-647 120,-232 249,-469 385,-711 136,-241 291,-454 383,-674 -134,-16 -256,-71 -361,-164 -115,-96 -191,-218 -222,-365 -30,-141 -15,-281 42,-413 1,-2 2,-5 2,-7 -49,21 -97,45 -141,68 -701,364 -1404,607 -1819,485 -979,-287 -988,-1697 749,-1987 991,-165 2048,390 3007,229 321,-54 156,-296 -19,-268 -425,69 -1595,-555 -2252,-615 -133,-12 -262,-15 -386,-10 481,-212 1013,-330 1572,-330zm0 -384c1185,0 2258,480 3035,1257 777,777 1257,1850 1257,3035 0,1186 -480,2259 -1257,3036 -777,777 -1850,1257 -3035,1257 -1186,0 -2259,-480 -3036,-1257 -777,-777 -1257,-1850 -1257,-3036 0,-1185 480,-2258 1257,-3035 777,-777 1850,-1257 3036,-1257zm2957 1336c-757,-757 -1803,-1225 -2957,-1225 -1155,0 -2200,468 -2957,1225 -757,756 -1225,1802 -1225,2956 0,1155 468,2201 1225,2957 757,757 1802,1225 2957,1225 1154,0 2200,-468 2957,-1225 756,-756 1224,-1802 1224,-2957 0,-1154 -468,-2200 -1224,-2956zm-1435 4043c-118,-16 -237,-38 -358,-66 -121,-28 -230,-76 -328,-143l0 24c-62,277 -140,559 -235,844 -95,285 -212,546 -351,783 26,133 73,250 143,350 69,101 160,171 273,213 206,71 421,38 644,-101 224,-139 402,-362 536,-671 62,-154 99,-300 112,-439 13,-139 3,-264 -31,-374 -33,-111 -85,-202 -154,-274 -70,-72 -153,-121 -251,-146z"/>
 </g>
</svg>
