<?xml version="1.0" encoding="UTF-8"?>
<!DOCTYPE svg PUBLIC "-//W3C//DTD SVG 1.1//EN" "http://www.w3.org/Graphics/SVG/1.1/DTD/svg11.dtd">
<!-- Creator: CorelDRAW X7 -->
<svg xmlns="http://www.w3.org/2000/svg" xml:space="preserve" width="16.5354in" height="11.6929in" version="1.1" style="shape-rendering:geometricPrecision; text-rendering:geometricPrecision; image-rendering:optimizeQuality; fill-rule:evenodd; clip-rule:evenodd"
viewBox="0 0 16535 11693"
 xmlns:xlink="http://www.w3.org/1999/xlink">
 <defs>
  <style type="text/css">
   <![CDATA[
    .fil0 {fill:#93CDC5;fill-rule:nonzero}
   ]]>
  </style>
 </defs>
 <g id="Слой_x0020_1">
  <metadata id="CorelCorpID_0Corel-Layer"/>
  <path class="fil0" d="M5636 5959c25,-60 71,-100 135,-123 65,-23 131,-29 197,-18 67,11 121,38 163,83 43,44 54,106 34,187 -14,54 -39,119 -76,197 -37,77 -77,156 -121,238 -43,82 -86,162 -129,242 -42,80 -76,150 -101,211 -26,61 -38,106 -36,137 1,31 23,40 65,28 65,-20 128,-61 189,-124 60,-63 118,-135 171,-218 54,-82 102,-167 144,-256 35,-72 64,-137 87,-195 10,-101 26,-207 49,-317 36,-184 85,-376 146,-577 60,-201 127,-400 199,-596 72,-197 145,-386 218,-569 63,-156 121,-298 177,-428 -591,231 -1492,409 -2672,309 -3094,-532 -3477,1331 -2370,1656 367,108 988,-107 1607,-429 116,-60 256,-119 377,-152 784,-395 710,-232 226,930 -82,195 -219,383 -340,597 -120,214 -234,423 -340,628 -107,205 -197,396 -271,572 -74,175 -115,317 -123,424 -6,66 -30,115 -72,149 -42,33 -86,49 -131,46 -45,-2 -85,-22 -119,-61 -34,-39 -48,-96 -42,-171 17,-195 51,-405 102,-629 51,-224 109,-449 176,-676 67,-226 139,-448 216,-664 43,-123 86,-240 127,-352 -3030,1028 -2876,-1807 -1303,-2377 501,-182 1172,-217 2012,-108 983,142 2155,385 3062,-251 135,-95 257,-183 258,-184 46,-17 97,-21 152,-12 55,9 112,28 170,58 20,10 40,22 58,34 26,9 43,22 52,39 15,12 29,26 42,39 44,46 77,95 100,148 22,53 26,106 12,160 -11,42 -48,124 -112,245 -63,121 -141,267 -233,437 -92,170 -192,355 -300,557 -109,202 -213,404 -312,606 -99,203 -187,397 -264,584 -78,186 -133,348 -166,485 -32,137 -36,242 -10,316 25,73 93,98 203,74 76,-17 153,-70 231,-159 78,-89 153,-197 226,-323 -73,-52 -124,-122 -154,-210 -30,-88 -42,-183 -36,-286 6,-103 27,-209 63,-319 37,-110 87,-213 149,-310 62,-97 135,-183 220,-258 85,-75 176,-129 275,-162 11,-6 22,-10 32,-14 10,-3 22,-6 36,-10 34,-7 74,-12 121,-16 46,-3 93,0 139,10 47,9 91,29 132,58 41,29 71,72 91,130 19,58 27,132 23,222 -4,89 -29,201 -74,336 -31,91 -75,193 -131,306 -57,113 -123,227 -199,342 98,-30 187,-78 266,-145 79,-67 143,-144 191,-231 6,-10 12,-19 18,-28 33,-111 77,-223 130,-337 79,-168 179,-333 301,-494 121,-160 258,-298 411,-414 65,-54 141,-97 228,-131 31,-9 58,-17 81,-24 22,-6 45,-10 68,-12 152,-34 278,-40 379,-18 100,21 178,64 235,128 56,64 91,144 105,241 15,98 11,203 -10,318 -21,115 -59,236 -112,364 -54,127 -120,252 -199,374 107,-46 193,-106 258,-178 59,-65 108,-138 149,-219 34,-126 82,-253 143,-383 79,-168 179,-333 301,-494 121,-160 258,-299 411,-414 65,-54 141,-97 228,-131 31,-9 58,-17 81,-24 22,-6 45,-10 67,-13 153,-33 279,-39 380,-17 100,21 178,64 235,128 56,64 91,144 105,241 15,97 11,203 -10,318 -21,115 -59,236 -112,364 -54,127 -120,252 -199,374 259,-112 503,-452 765,-648 2029,-1522 3652,1426 1384,2248 -449,163 -1052,195 -1806,96 -1228,-177 -2463,-234 -2882,-58 -329,138 -2,787 -234,526 -490,-550 148,-906 1045,-1000 1004,-106 3116,265 3850,-209 1001,-646 423,-1457 -485,-1463 -804,-5 -960,394 -1527,708 -102,56 -218,96 -348,119 -138,157 -292,292 -463,404 -171,113 -351,184 -540,215 -136,21 -240,-1 -312,-67 -72,-67 -116,-160 -133,-282 -4,-32 -7,-65 -8,-100 -68,58 -146,111 -233,159 -102,56 -218,96 -348,119 -138,157 -292,292 -463,405 -171,112 -351,183 -540,214 -136,21 -240,-1 -312,-67 -72,-66 -116,-160 -133,-282 -5,-39 -8,-80 -8,-122 -6,4 -12,9 -17,13 -82,62 -173,114 -273,155 -101,42 -209,66 -324,72 -127,157 -265,296 -413,417 -149,120 -296,196 -443,228 -161,36 -289,31 -383,-15 -95,-46 -163,-121 -206,-226 -9,-22 -17,-46 -24,-71 -26,42 -54,85 -84,127 -77,110 -166,209 -266,298 -101,88 -210,145 -329,171 -121,27 -205,3 -252,-73 -46,-76 -69,-178 -69,-305 -79,142 -172,267 -278,375 -106,108 -225,171 -358,189 -144,20 -257,0 -338,-61 -82,-61 -137,-148 -163,-261 -27,-113 -27,-244 0,-394 26,-150 77,-304 152,-461 75,-158 172,-312 292,-463 120,-150 261,-281 422,-393 161,-112 340,-198 540,-258 199,-61 414,-80 645,-58 54,5 94,24 121,56 27,32 38,66 34,101 -4,35 -25,66 -64,94 -38,28 -95,42 -171,42 -130,-2 -254,21 -373,69 -118,49 -229,114 -332,196 -103,82 -197,176 -282,283 -85,106 -159,214 -224,324 -65,110 -117,218 -157,323 -40,104 -66,198 -78,282 -13,83 -12,150 4,200 15,50 49,74 99,71 60,-2 118,-31 174,-89 57,-58 112,-130 165,-218 54,-88 104,-186 151,-294 46,-108 88,-211 124,-309 26,-96 52,-185 79,-267 27,-82 51,-147 74,-194zm5216 -658c4,28 -3,64 -20,107 -9,26 -21,53 -35,81 -15,59 -25,116 -30,169 -13,117 -2,210 33,278 36,69 100,93 193,72 82,-18 162,-59 239,-122 78,-64 151,-143 218,-237 -146,-66 -250,-175 -311,-327 -61,-152 -82,-314 -65,-488 -85,138 -154,280 -208,427 -5,13 -9,27 -14,40zm742 113c74,-137 135,-279 183,-425 48,-146 77,-278 88,-394 12,-117 2,-209 -29,-276 -31,-66 -88,-88 -170,-64 -62,22 -115,62 -160,118 -46,57 -82,123 -111,198 -28,75 -47,156 -57,241 -10,86 -7,168 9,248 15,80 43,152 82,215 40,63 95,110 165,139zm-2777 330c2,4 4,9 6,13 12,34 3,81 -28,142 -12,23 -27,46 -43,70 -10,48 -18,93 -22,137 -13,117 -2,210 33,278 36,69 100,93 193,72 82,-18 162,-58 239,-122 78,-64 151,-143 218,-237 -146,-66 -250,-175 -311,-327 -60,-152 -82,-314 -65,-487 -85,137 -154,279 -208,426 -4,12 -8,24 -12,35zm740 119c74,-138 135,-280 183,-426 48,-146 77,-277 88,-394 12,-117 2,-209 -29,-275 -31,-67 -88,-88 -170,-65 -62,22 -115,62 -160,118 -46,57 -82,123 -111,198 -28,75 -47,156 -57,241 -10,86 -7,168 9,248 15,80 43,152 82,215 40,63 95,110 165,140zm-1804 -650l-4 1c-34,8 -72,46 -114,114 -43,69 -79,150 -108,242 -30,93 -47,189 -53,289 -6,100 13,184 55,251 51,-113 96,-224 135,-333 40,-109 70,-206 92,-291 21,-85 32,-153 33,-204 2,-51 -10,-74 -36,-69z"/>
 </g>
</svg>
