<?xml version="1.0" encoding="UTF-8"?>
<!DOCTYPE svg PUBLIC "-//W3C//DTD SVG 1.1//EN" "http://www.w3.org/Graphics/SVG/1.1/DTD/svg11.dtd">
<!-- Creator: CorelDRAW X7 -->
<svg xmlns="http://www.w3.org/2000/svg" xml:space="preserve" width="16.5354in" height="11.6929in" version="1.1" style="shape-rendering:geometricPrecision; text-rendering:geometricPrecision; image-rendering:optimizeQuality; fill-rule:evenodd; clip-rule:evenodd"
viewBox="0 0 16535 11693"
 xmlns:xlink="http://www.w3.org/1999/xlink">
 <defs>
  <style type="text/css">
   <![CDATA[
    .fil1 {fill:#93CDC5}
    .fil0 {fill:#93CDC5;fill-rule:nonzero}
   ]]>
  </style>
 </defs>
 <g id="Слой_x0020_1">
  <metadata id="CorelCorpID_0Corel-Layer"/>
  <path class="fil0" d="M5807 6328c24,-56 66,-94 127,-115 61,-22 122,-27 184,-17 62,10 113,36 152,77 40,42 51,100 32,175 -13,51 -37,112 -71,184 -35,73 -72,147 -113,223 -41,76 -81,152 -121,227 -39,74 -71,140 -95,197 -24,56 -35,99 -34,128 2,29 22,37 62,26 61,-19 119,-57 176,-116 57,-59 110,-127 160,-204 51,-77 95,-156 135,-239 32,-67 59,-128 81,-183 10,-94 25,-193 46,-296 34,-171 80,-351 136,-539 57,-188 119,-374 186,-558 68,-183 136,-361 204,-532 59,-145 114,-279 166,-400 -553,216 -1395,382 -2498,289 -2893,-498 -3251,1245 -2216,1549 343,100 924,-100 1503,-401 107,-56 239,-112 352,-142 733,-370 664,-217 211,869 -76,182 -205,358 -318,558 -112,200 -218,395 -318,587 -99,192 -184,370 -253,535 -69,164 -107,296 -115,397 -6,61 -29,107 -68,138 -39,32 -80,46 -122,44 -42,-2 -79,-21 -111,-58 -32,-36 -45,-89 -39,-159 16,-183 47,-379 95,-588 47,-210 102,-420 165,-632 62,-212 129,-419 201,-621 41,-115 81,-225 119,-329 -2832,961 -2689,-1690 -1218,-2223 469,-170 1096,-203 1881,-100 919,132 2015,359 2863,-236 126,-88 240,-171 241,-171 44,-16 91,-20 143,-12 51,9 104,27 158,55 19,9 37,20 55,32 23,8 40,20 48,36 14,11 27,24 39,37 41,42 72,88 94,138 21,49 25,99 11,150 -10,39 -45,115 -105,229 -59,113 -132,249 -217,408 -86,159 -180,332 -281,521 -102,189 -199,377 -291,567 -93,189 -175,371 -248,545 -72,175 -124,326 -154,454 -31,128 -34,226 -10,295 24,69 87,92 190,69 71,-16 143,-65 216,-148 72,-84 143,-184 211,-302 -68,-49 -116,-114 -144,-196 -28,-83 -39,-172 -34,-268 6,-96 25,-196 60,-298 34,-103 80,-199 138,-290 58,-91 127,-171 206,-241 79,-70 165,-121 258,-152 10,-5 20,-9 29,-12 9,-4 21,-7 34,-10 32,-7 69,-12 113,-15 43,-3 87,0 130,9 44,9 85,27 123,54 38,28 67,68 85,122 19,54 26,123 22,207 -4,84 -27,189 -69,314 -29,86 -70,181 -123,287 -53,105 -115,212 -186,320 92,-28 175,-74 249,-136 74,-63 134,-134 179,-216 5,-9 11,-18 16,-27 32,-103 72,-208 122,-314 74,-157 168,-311 281,-462 114,-150 242,-279 384,-387 61,-50 132,-91 214,-122 29,-9 54,-17 75,-23 21,-6 43,-10 64,-12 142,-31 260,-37 354,-16 94,20 167,60 220,120 53,59 86,134 99,225 13,91 10,190 -10,297 -20,108 -55,221 -105,340 -50,119 -112,236 -186,350 100,-43 181,-99 241,-166 61,-67 111,-144 151,-229 24,-53 53,-92 89,-119 36,-26 69,-39 99,-37 30,1 52,16 65,45 13,29 9,70 -12,125 -21,58 -55,121 -103,191 -47,70 -106,137 -178,202 -71,64 -154,123 -249,175 -95,53 -203,90 -325,111 -129,147 -274,274 -433,379 -160,105 -328,172 -505,200 -127,20 -224,-1 -291,-63 -68,-62 -109,-149 -125,-263 -5,-37 -8,-75 -8,-114 -5,4 -10,8 -16,12 -76,58 -161,106 -255,145 -94,39 -195,62 -303,67 -119,147 -248,277 -386,390 -139,112 -277,183 -414,213 -150,34 -270,29 -358,-14 -89,-42 -153,-113 -192,-211 -9,-21 -16,-43 -23,-67 -24,40 -51,80 -78,119 -73,103 -156,196 -250,279 -93,82 -196,136 -306,160 -114,25 -193,2 -236,-69 -44,-71 -65,-166 -65,-284 -74,132 -161,249 -260,350 -99,101 -210,159 -334,176 -135,19 -241,0 -317,-57 -77,-57 -127,-138 -153,-243 -25,-106 -25,-229 0,-369 26,-140 73,-284 143,-431 70,-147 161,-291 273,-432 112,-141 244,-264 394,-368 151,-104 319,-185 505,-242 186,-57 387,-74 604,-53 50,4 88,22 113,52 25,30 35,61 31,94 -4,33 -23,62 -59,88 -36,27 -89,40 -160,40 -122,-3 -238,19 -349,64 -111,46 -214,107 -311,184 -96,76 -184,164 -263,263 -79,100 -149,201 -210,304 -61,103 -109,203 -146,301 -37,98 -62,186 -74,264 -11,78 -10,140 4,187 15,47 46,69 93,67 56,-2 110,-30 163,-83 53,-54 104,-122 154,-205 50,-82 97,-173 141,-274 43,-101 82,-197 117,-289 23,-90 48,-173 73,-250 25,-77 48,-137 69,-181zm2974 -201c2,4 4,8 6,12 11,32 3,76 -26,133 -12,21 -25,43 -40,65 -10,45 -17,88 -22,128 -11,110 -1,197 32,261 33,64 93,86 180,67 77,-17 151,-55 224,-115 73,-59 141,-133 204,-221 -137,-62 -234,-164 -291,-306 -57,-142 -77,-294 -61,-456 -80,129 -144,262 -194,399 -4,11 -8,22 -12,33zm693 111c68,-129 125,-262 170,-398 45,-137 72,-260 83,-369 11,-109 1,-195 -28,-257 -29,-62 -82,-82 -158,-60 -58,20 -108,57 -151,110 -42,53 -76,115 -103,185 -26,71 -44,146 -53,226 -9,80 -7,157 8,232 14,74 40,141 77,200 37,59 89,103 155,131zm-1687 -607l-4 1c-32,7 -67,42 -107,106 -40,64 -73,140 -101,226 -28,87 -44,177 -49,271 -6,93 11,171 51,234 48,-106 90,-209 127,-311 37,-102 65,-193 85,-272 20,-80 30,-144 32,-191 1,-48 -10,-69 -34,-64z"/>
  <path class="fil1" d="M9344 7799c217,243 -89,-363 219,-492 392,-165 1546,-111 2694,54 706,92 1269,62 1689,-90 2121,-768 603,-3525 -1294,-2102 -245,184 -473,502 -716,606 74,-114 136,-230 186,-350 51,-119 86,-232 105,-340 20,-107 23,-206 10,-297 -13,-91 -46,-166 -99,-225 -53,-60 -126,-100 -219,-120 -94,-21 -212,-15 -355,16 -21,2 -42,6 -63,12 -21,6 -46,14 -75,23 -82,31 -154,72 -214,122 -143,108 -271,237 -384,387 -114,151 -208,305 -281,462 -74,158 -128,312 -161,463 -33,151 -41,284 -26,398 16,114 58,201 125,263 68,62 165,83 291,63 177,-28 345,-95 505,-200 160,-105 304,-232 434,-379 121,-21 229,-58 324,-111 530,-293 677,-667 1428,-662 849,6 1390,765 453,1368 -686,443 -2660,97 -3599,195 -839,88 -1435,422 -977,936zm374 -3556c-4,9 -8,17 -12,24 -7,23 -14,45 -20,68 -9,30 -17,57 -24,81 -7,24 -17,49 -31,74 -1,1 -2,3 -4,7 -2,3 -3,5 -4,7 -5,7 -11,10 -16,9 -5,-1 -12,-4 -19,-9 -8,-6 -13,-10 -14,-13 -2,-4 -2,-10 0,-20 0,-5 2,-9 3,-14 2,-7 5,-13 9,-18 3,-4 8,-10 13,-17 6,-6 12,-15 19,-26 7,-11 15,-26 23,-45 4,-10 9,-24 15,-41 7,-18 13,-36 20,-54 7,-18 13,-34 18,-50 5,-15 9,-25 10,-31 5,-21 7,-34 11,-38 3,-4 9,-8 19,-11 1,0 5,-2 12,-7 7,-4 13,-6 17,-7 5,3 10,5 16,8 15,7 22,10 22,11 1,1 1,5 1,12 0,1 1,3 4,6 2,4 3,8 3,12 0,3 0,5 0,7 -6,29 -10,60 -13,93 -3,34 -4,62 -4,84 5,8 10,11 17,6 7,-4 13,-12 20,-23 7,-10 14,-23 20,-36 6,-14 11,-27 14,-37 8,-25 15,-43 20,-56 5,-14 8,-25 11,-34 2,-9 4,-17 6,-24 1,-7 2,-16 3,-26 2,-10 3,-17 5,-20 2,-4 4,-9 3,-18 -1,-2 -1,-4 0,-4 5,1 11,2 16,2 4,-3 8,-5 13,-6 6,-2 18,-6 39,-11 4,0 6,1 8,2 3,2 8,8 18,17 3,3 6,6 8,9 1,2 3,5 4,7 1,5 3,8 5,10 2,1 3,3 3,4 0,7 -3,14 -11,23 0,-2 -1,3 -4,17 -3,14 -5,30 -9,49 -3,19 -7,37 -9,56 -3,18 -4,30 -4,37 0,21 3,38 10,51 7,13 15,18 26,17 3,0 7,-4 12,-9 4,-5 9,-11 14,-18 5,-6 10,-12 15,-18 5,-5 8,-8 11,-8 4,-1 6,1 6,3 -1,4 -1,8 -1,12 -1,9 -1,15 -1,19 0,5 0,8 0,10 0,2 0,4 0,5 -1,1 -2,4 -4,7 -1,1 -5,6 -11,14 -7,7 -15,16 -25,25 -9,9 -20,18 -32,25 -12,8 -23,13 -36,14 -12,2 -22,0 -31,-6 -9,-7 -16,-15 -23,-26 -6,-11 -11,-23 -13,-36 -3,-12 -5,-25 -5,-36 0,-6 1,-14 2,-23 1,-9 2,-17 4,-26 1,-8 2,-15 3,-22 1,-6 1,-10 1,-11 1,-1 0,-3 -1,-5 0,-3 0,-6 -1,-11 -6,16 -12,30 -16,41 -5,12 -9,23 -13,33 -4,9 -8,20 -11,30 -4,11 -9,23 -13,37 -10,30 -21,52 -33,67 -13,16 -23,26 -30,29 -4,2 -11,1 -19,0 -9,-2 -17,-6 -26,-11 -8,-6 -16,-14 -22,-24 -7,-10 -10,-22 -10,-38 -1,-13 -1,-28 0,-43 0,-16 1,-31 1,-45 0,-14 1,-26 1,-36 1,-10 2,-16 1,-19 0,-1 0,-3 1,-5 0,-3 -1,-6 -1,-9zm-907 -391c-16,31 -29,53 -38,64 -5,5 -11,11 -20,17 -8,5 -14,8 -18,9 -11,1 -20,-1 -29,-7 -9,-6 -17,-13 -24,-22 -6,-9 -11,-18 -14,-27 -4,-10 -5,-18 -5,-24 0,-50 6,-103 17,-161 0,-1 1,-4 1,-8 0,-1 -1,-5 -4,-13 0,-2 0,-4 0,-5 1,-5 2,-10 3,-15 0,-1 -1,-3 -2,-6 -1,-3 -2,-5 -2,-7 1,-7 2,-10 4,-9 6,0 12,0 18,0 10,-9 19,-14 26,-15 5,0 10,1 16,4 7,3 12,7 17,11 5,4 9,9 12,13 4,4 5,7 5,9 0,0 0,1 -1,4 -2,3 -3,6 -5,10 -1,4 -3,9 -4,13 -2,5 -2,9 -2,12 0,4 -2,13 -6,26 -3,13 -5,27 -6,40 -1,12 -1,22 -3,30 -1,7 -2,14 -3,19 -1,6 -3,11 -3,15 -1,5 -2,11 -2,17 0,2 0,4 1,7 1,4 4,7 5,11 2,4 4,7 6,9 2,3 4,4 6,4 7,-1 12,-9 18,-22 6,-14 11,-30 16,-48 6,-18 10,-36 14,-54 4,-18 6,-32 6,-40 1,-13 1,-21 1,-24 0,-4 -2,-7 -3,-11 -1,-2 -2,-4 -2,-5 0,-7 5,-14 14,-21 9,-6 19,-11 31,-12 6,0 11,2 17,7 2,1 4,1 6,1 3,2 5,3 7,5 7,5 12,8 15,10 3,3 4,6 4,12 0,2 -2,3 -5,4 -3,1 -5,4 -5,8 0,1 -1,7 -3,18 -2,11 -4,23 -6,36 -2,13 -5,26 -7,38 -2,12 -3,19 -3,22 0,5 0,12 1,18 1,7 2,14 4,19 2,6 4,11 8,15 3,4 6,5 10,5 6,-1 11,-4 15,-10 5,-6 8,-13 12,-22 3,-9 5,-18 7,-28 2,-10 3,-19 3,-27 1,-8 0,-15 -1,-22 -2,-7 -2,-13 -2,-18 -1,1 -1,0 0,-4 1,-4 2,-7 2,-10 0,-1 0,-10 -1,-26 0,-1 1,-5 4,-13 2,-8 4,-16 7,-26 3,-9 4,-17 6,-25 2,-7 2,-10 1,-9 6,-6 13,-8 22,-8 10,1 19,7 26,19 3,4 5,9 8,12 -1,4 -2,8 -3,12 -1,10 -2,19 -3,29 -3,34 -3,68 -9,102 -3,13 -6,23 -4,31 1,9 9,13 22,12 4,0 8,-2 13,-6 4,-4 9,-8 13,-11 4,-4 8,-7 10,-8 2,-2 4,0 4,5 0,2 -1,4 -1,6 0,3 0,5 0,7 0,1 0,4 0,8 0,3 0,7 0,9 0,3 -2,5 -4,8 -3,2 -6,4 -9,7 -3,2 -5,3 -8,5 -2,1 -2,2 -2,2 -3,0 -5,0 -7,0 -4,1 -8,2 -12,3 -1,0 -3,0 -7,-1 -4,-1 -8,-2 -12,-4 -5,-1 -9,-3 -13,-5 -4,-1 -7,-3 -9,-4 -3,5 -7,11 -13,17 -5,7 -12,13 -20,20 -8,6 -17,11 -28,16 -9,5 -20,8 -33,10 -15,1 -27,-2 -36,-10 -9,-9 -16,-25 -22,-49zm406 -30c-4,6 -9,13 -14,21 -6,8 -12,15 -18,23 -7,7 -13,13 -20,19 -7,5 -13,7 -20,7 -9,0 -17,0 -25,0 -5,0 -8,1 -12,1 -9,1 -16,-1 -24,-6 -8,-5 -14,-12 -19,-20 -5,-9 -9,-18 -12,-29 -3,-11 -4,-22 -3,-32 0,-8 1,-18 2,-30 2,-12 4,-24 6,-36 2,-13 4,-25 7,-36 2,-12 5,-22 7,-29 3,-8 5,-15 7,-23 2,-8 4,-15 5,-21 2,-6 4,-11 6,-14 2,-4 5,-5 8,-5 2,0 5,0 7,0 2,-1 4,-1 7,-1 2,1 6,1 8,2 0,0 3,-1 6,-2 5,-2 9,-3 14,-3 3,0 7,-1 10,-1 4,0 8,-2 11,-5 3,-4 8,-6 15,-6 10,-1 21,0 33,2 5,2 12,5 18,12 5,6 10,13 15,22 4,8 8,17 10,26 2,8 3,16 3,22 0,15 -4,38 -14,70 -3,12 -6,23 -8,33 -2,10 4,15 16,16 6,0 11,1 17,1 3,1 5,-1 8,-4 2,-4 4,-7 6,-11 2,-4 5,-8 9,-12 3,-3 8,-5 14,-6 2,1 4,5 3,10 0,3 -1,7 -1,10 -2,15 -8,26 -18,33 -10,7 -22,11 -34,12 -9,1 -21,-2 -36,-10zm-26 -18c-2,-2 -5,-7 -9,-15 -3,-9 -7,-19 -10,-31 -3,-12 -6,-24 -9,-36 -2,-12 -3,-21 -3,-29 0,-7 1,-13 2,-19 2,-6 2,-12 2,-17 0,-8 -2,-12 -6,-11 -6,0 -11,7 -14,21 -3,14 -5,29 -8,46 -3,18 -5,34 -7,50 -1,16 -2,26 -2,31 -1,16 2,29 6,41 4,11 10,16 18,16 11,-1 18,-6 22,-15 4,-9 10,-19 18,-32zm15 -45c3,-6 5,-11 7,-13 1,-3 2,-6 3,-8 0,-2 1,-4 1,-7 0,-3 0,-8 0,-14 1,-4 0,-8 1,-12 0,-7 -1,-17 -5,-28 -3,-12 -6,-20 -10,-24 -2,8 -2,16 -2,25 0,2 0,6 0,13 0,7 0,18 0,31 1,16 3,29 5,37zm270 -42c3,17 8,31 14,42 6,11 16,16 31,15 4,-1 7,-1 9,-1 2,-1 4,-2 6,-3 2,-2 4,-3 7,-6 3,-3 6,-7 12,-12 4,-4 9,-8 13,-12 5,-5 8,-9 9,-11 1,-3 2,-4 4,-4 3,0 6,3 5,9 0,1 0,4 0,7 0,4 -1,10 -1,17 -1,3 -1,5 -2,6 -2,1 -4,5 -9,11 -14,16 -29,29 -46,38 -17,9 -33,15 -47,16 -9,1 -15,1 -20,-1 -5,-1 -12,-4 -22,-9 -10,-5 -17,-13 -20,-22 -4,-10 -7,-19 -9,-27 -2,-9 -4,-16 -5,-22 -2,-5 -6,-6 -11,-3 -2,0 -4,0 -5,1 -8,2 -11,6 -11,13 -1,6 -1,16 -2,30 -1,12 -2,24 -3,35 0,7 1,12 5,14 3,3 4,9 4,19 0,0 -4,3 -13,9 -8,5 -15,8 -19,9 0,0 -3,-1 -8,-2 -4,-1 -10,-3 -15,-6 -6,-3 -11,-6 -16,-10 -5,-3 -6,-8 -7,-12 0,-1 0,-2 1,-5 1,-2 1,-3 1,-4 0,-3 0,-6 -1,-11 -1,-4 -1,-8 -1,-12 0,-10 1,-20 2,-31 2,-29 4,-54 4,-74 0,-20 0,-38 -1,-52 -2,-15 -4,-28 -6,-39 -2,-11 -5,-22 -8,-32 0,-3 0,-5 0,-8 1,-17 12,-29 35,-34 3,0 5,0 8,0 2,-1 4,-2 7,-2 1,0 3,0 6,0 2,0 5,0 8,0 4,0 10,2 16,5 7,3 12,10 14,20 -2,-1 -4,3 -5,11 -1,7 0,17 -1,29 0,11 0,24 -1,37 -1,14 -1,26 -1,37 1,12 2,21 3,28 1,7 4,10 9,8 23,-7 42,-20 55,-37 13,-17 21,-34 23,-50 1,-7 1,-15 -1,-24 -1,-9 -3,-18 -3,-25 0,-8 1,-15 4,-20 3,-5 9,-8 18,-8 19,1 36,7 49,19 12,12 19,25 18,40 -2,30 -12,53 -28,69 -17,15 -34,28 -52,37zm278 57c-4,6 -9,13 -15,21 -6,8 -13,15 -19,22 -7,8 -14,14 -21,19 -8,5 -15,7 -21,7 -9,0 -17,0 -26,0 -4,0 -8,0 -12,1 -8,1 -16,-1 -23,-6 -7,-5 -13,-11 -18,-19 -4,-8 -8,-18 -10,-28 -2,-10 -3,-21 -3,-31 0,-7 2,-16 2,-28 1,-11 3,-22 4,-34 2,-12 3,-24 4,-35 2,-11 3,-20 5,-27 2,-7 3,-15 3,-22 1,-8 2,-15 3,-20 1,-6 2,-10 3,-14 2,-3 4,-5 8,-4 2,0 5,-1 7,-1 2,0 4,-1 6,-1 3,1 6,2 9,3 0,0 2,-1 6,-3 4,-2 8,-3 12,-3 3,0 7,-1 11,-1 4,0 8,-2 11,-5 3,-4 7,-6 14,-6 10,-1 21,-1 33,1 6,1 12,4 18,10 7,6 13,13 18,21 5,8 10,16 14,24 4,9 6,16 7,22 2,14 -1,36 -8,68 -3,11 -5,22 -6,32 -2,9 4,14 16,15 5,0 11,0 17,0 3,1 5,-1 7,-4 2,-3 4,-7 6,-11 3,-4 5,-8 9,-11 3,-4 8,-6 14,-7 2,1 4,4 3,10 0,3 0,6 -1,9 -1,15 -7,26 -17,33 -11,7 -22,11 -35,13 -9,1 -21,-2 -35,-10zm-26 -16c-3,-2 -6,-7 -10,-15 -4,-8 -7,-18 -11,-29 -4,-11 -8,-23 -11,-34 -3,-12 -6,-21 -6,-28 -1,-6 0,-12 0,-19 1,-6 1,-11 0,-16 -2,-7 -4,-11 -7,-10 -7,0 -10,7 -11,20 -2,13 -3,28 -4,45 -1,16 -2,32 -3,47 -1,16 -1,25 -1,30 -1,15 0,28 5,39 4,11 10,16 17,15 11,-1 19,-6 23,-14 4,-9 11,-19 19,-31zm13 -44c3,-6 4,-10 6,-13 1,-3 2,-5 2,-7 1,-2 1,-4 1,-7 0,-3 0,-8 0,-14 -1,-4 -1,-7 -1,-11 -1,-7 -3,-16 -8,-27 -4,-11 -9,-19 -13,-23 -1,8 0,16 1,25 0,1 1,5 1,12 1,7 3,17 4,30 2,15 5,27 7,35zm105 43c7,-2 15,-3 24,-4 5,2 9,4 13,6 4,1 8,1 13,1 5,-1 10,-2 17,-5 7,-4 17,-9 29,-16 8,-7 16,-17 24,-30 8,-13 13,-24 15,-33 1,-7 2,-15 3,-26 2,-10 3,-20 3,-31 0,-11 0,-22 -1,-33 0,-10 -1,-20 -2,-27 -2,-7 -3,-12 -3,-16 0,-4 2,-8 4,-11 2,-3 6,-7 11,-10 4,-4 11,-8 19,-14 1,0 2,0 3,0 2,0 4,0 7,0 4,2 9,4 14,5 11,5 18,6 22,6 4,-1 6,1 8,5 -1,4 -1,7 -2,10 1,5 2,10 2,14 3,17 5,29 5,36 0,8 0,14 1,19 0,5 0,10 1,16 0,6 2,15 5,28 0,3 0,5 1,7 1,6 2,11 2,16 1,5 2,9 3,13 2,9 6,16 12,21 6,5 13,6 21,4 5,-1 10,-6 15,-12 5,-6 10,-13 14,-19 5,-6 8,-11 11,-14 3,-3 5,-2 6,4 1,3 1,5 1,8 1,5 1,10 3,14 -2,6 -4,11 -4,14 -1,4 -2,6 -2,8 -1,3 -2,5 -4,6 -2,2 -4,5 -7,7 -9,8 -18,16 -27,28 -9,11 -20,18 -32,21 -19,5 -34,4 -44,-2 -11,-5 -18,-14 -22,-25 -4,-12 -7,-23 -8,-35 -1,-12 -2,-23 -2,-33 0,-9 0,-15 -1,-16 0,-4 -3,-6 -6,-5 -2,2 -5,9 -7,21 -2,12 -5,26 -9,40 -5,15 -10,30 -16,44 -7,14 -14,24 -23,30 -6,1 -12,4 -17,7 -5,4 -11,8 -17,12 -6,5 -14,8 -22,12 -8,4 -20,7 -34,9 -5,0 -10,-3 -17,-9 -7,-6 -12,-13 -17,-21 -4,-8 -6,-17 -5,-25 1,-9 8,-16 19,-20zm467 -71c-2,3 -6,9 -11,18 -5,8 -11,18 -18,27 -7,9 -15,18 -23,26 -9,8 -17,12 -26,14 -21,3 -37,-3 -49,-18 -11,-16 -17,-36 -17,-58 0,-14 1,-31 2,-50 1,-19 1,-41 2,-65 0,-7 2,-18 4,-35 3,-16 8,-32 16,-46 8,-15 19,-26 33,-33 15,-7 34,-4 58,8 3,2 6,3 7,2 2,0 6,-1 15,-2 8,-1 17,-1 26,-1 10,1 19,2 27,5 8,2 13,6 15,13 0,1 0,3 -1,7 -1,4 -1,6 -1,7 1,4 2,9 3,13 3,9 3,24 1,43 -3,19 -2,39 1,60 1,9 3,19 8,28 5,10 10,14 17,13 4,-1 10,-6 16,-13 6,-7 11,-15 16,-23 4,-8 8,-16 11,-23 3,-7 5,-10 6,-11 2,0 3,1 4,4 0,2 -1,4 0,8 0,4 0,7 0,10 0,3 1,5 2,8 0,3 0,5 1,6 0,2 -2,8 -6,16 -3,9 -9,18 -17,28 -8,10 -18,19 -29,28 -12,9 -25,16 -40,18 -7,1 -16,-2 -26,-5 -10,-4 -20,-13 -27,-27zm-47 -184c-4,1 -7,7 -10,19 -3,11 -5,25 -7,41 -1,17 -2,34 -3,53 -1,19 -1,37 0,53 0,9 2,18 5,28 3,10 7,14 13,13 0,0 2,-3 7,-9 4,-6 9,-13 13,-21 5,-9 9,-18 13,-28 3,-10 5,-19 3,-27 1,-3 2,-6 2,-9 0,-4 0,-9 -1,-14 -1,-6 0,-16 0,-28 1,-12 0,-24 -1,-36 -2,-11 -5,-21 -10,-28 -5,-7 -13,-10 -24,-7zm330 136c-1,-2 -1,-5 -1,-7 -1,-2 -1,-4 -1,-6 -25,38 -48,59 -70,63 -6,1 -13,1 -21,-1 -7,-2 -15,-5 -21,-10 -6,-5 -12,-11 -16,-19 -5,-7 -7,-15 -8,-24 -2,-22 -5,-40 -7,-53 -3,-13 -4,-25 -5,-37 0,-11 0,-23 1,-37 2,-13 4,-30 6,-52 2,-10 7,-21 15,-32 8,-11 16,-17 23,-19 2,-1 5,-1 10,0 4,0 9,1 13,1 5,1 10,2 14,3 4,1 6,2 7,3 0,0 1,0 2,1 1,-3 3,-5 4,-8 1,-3 3,-5 7,-7 4,-1 5,-2 4,-1 1,0 2,0 5,0 3,0 5,0 7,0 2,-1 5,-3 10,-7 4,-3 8,-6 10,-6 0,0 2,0 6,1 5,0 9,1 15,2 6,1 11,2 17,5 5,2 8,5 9,9 2,6 3,14 2,22 -2,9 1,22 6,40 2,8 3,16 4,23 0,7 0,12 2,17 2,4 4,8 6,11 5,20 9,40 13,60 0,3 1,7 2,12 1,5 3,10 4,16 2,6 3,12 4,18 1,6 1,12 2,16 1,33 -5,64 -18,92 -1,5 -6,11 -15,20 -8,10 -17,19 -28,29 -11,10 -21,19 -32,27 -10,8 -18,12 -24,13 -21,5 -38,1 -51,-9 -14,-11 -19,-30 -16,-58 0,-3 0,-5 2,-6 1,-1 4,-3 9,-5 5,-4 10,-7 15,-11 2,-1 3,2 5,7 2,5 5,11 9,17 4,6 10,11 19,16 9,4 20,5 35,2 7,-1 11,-8 13,-19 1,-12 2,-25 2,-39 0,0 1,-2 0,-7 -1,-5 -1,-12 -2,-19 -1,-7 -1,-15 -2,-24 -1,-8 -1,-16 -1,-23zm-50 -197c-2,1 -5,1 -7,2 -2,0 -4,0 -6,0 -1,4 -3,12 -4,24 -2,13 -2,26 -3,41 -1,15 -2,30 -2,45 1,16 1,29 3,41 2,10 5,21 9,31 4,11 11,15 19,13 7,-10 13,-23 17,-39 3,-15 5,-31 4,-47 0,-16 -2,-32 -5,-48 -2,-15 -6,-29 -8,-41 0,-3 0,-6 0,-10 0,-2 -2,-5 -7,-8 -5,-3 -9,-4 -10,-4zm236 54c13,-17 25,-34 37,-51 0,-11 -1,-20 -2,-27 -1,-7 -3,-13 -4,-18 -2,-6 -4,-11 -6,-15 -2,-5 -3,-11 -4,-17 -1,-8 -2,-14 -2,-18 0,-4 2,-8 5,-12 2,-4 6,-8 11,-11 5,-4 11,-8 20,-14 1,0 2,1 3,1 2,0 5,0 7,-1 4,3 9,6 13,8 11,6 18,8 22,8 4,0 7,2 8,7 -1,4 -2,7 -3,11 1,5 2,10 2,15 2,19 3,33 4,41 0,8 0,15 0,20 0,5 0,11 1,18 1,6 3,17 6,32 1,2 1,3 1,4 0,2 0,3 1,4 1,7 3,13 4,19 1,5 2,10 3,14 2,11 7,19 13,25 7,5 14,8 21,6 5,-1 10,-5 15,-12 5,-7 9,-14 13,-20 4,-6 7,-11 10,-14 3,-2 5,-1 6,6 1,3 1,6 2,9 1,5 2,10 3,16 -3,13 -5,21 -5,24 0,3 -4,7 -11,12 -4,4 -8,8 -13,13 -4,6 -9,11 -14,16 -4,4 -9,9 -14,13 -6,4 -12,7 -17,8 -19,4 -33,2 -43,-5 -10,-8 -17,-17 -21,-30 -4,-12 -7,-24 -9,-36 -3,-12 -4,-23 -4,-33 -1,-9 -1,-15 -2,-17 -1,-5 -3,-7 -6,-6 -5,5 -12,10 -21,16 -9,7 -16,16 -18,27 -1,4 -1,11 0,21 1,10 2,21 3,33 2,12 3,23 4,35 1,11 3,20 5,26 1,2 -1,6 -5,12 -4,5 -9,9 -14,10 -4,1 -8,1 -12,2 -4,1 -8,1 -11,0 -2,0 -5,-2 -6,-2 -2,-2 -5,-2 -8,-2 -3,0 -6,1 -11,3 -7,4 -11,-2 -12,-17 -1,-15 -4,-40 -8,-73 -1,-10 -2,-20 -4,-30 -2,-15 -4,-30 -8,-46 -3,-16 -7,-31 -10,-44 -3,-14 -7,-26 -10,-37 -2,-10 -5,-17 -8,-21 0,-4 0,-8 1,-12 0,-4 2,-8 7,-11 4,-3 6,-4 4,-4 2,3 5,4 9,3 3,-1 7,-2 11,-4 3,-1 7,-3 11,-5 3,-3 6,-4 8,-5 4,-1 11,2 20,9 10,6 15,12 17,16 2,7 3,15 3,24 0,10 1,22 2,39 1,4 1,7 1,10 0,2 0,5 1,8 1,2 2,6 3,10 1,4 3,9 5,16zm350 16c-1,3 -3,10 -6,19 -4,10 -8,19 -13,29 -5,11 -12,20 -20,28 -7,9 -16,14 -24,16 -21,4 -37,-2 -51,-19 -14,-18 -23,-38 -28,-63 -3,-15 -6,-34 -10,-55 -3,-21 -6,-44 -10,-71 -1,-7 -1,-20 0,-38 2,-18 5,-35 12,-51 7,-16 18,-27 32,-34 14,-7 33,-4 57,11 3,1 5,2 7,2 2,-1 7,-1 15,-2 8,-1 16,0 26,0 9,1 18,3 26,6 9,3 14,8 16,15 0,1 0,3 -1,7 0,4 0,7 0,8 1,5 3,9 5,14 3,10 5,25 5,45 1,21 5,42 12,65 4,10 8,20 15,30 7,11 13,15 20,14 4,-1 9,-5 13,-13 5,-7 8,-16 11,-24 3,-9 5,-17 7,-24 1,-7 2,-11 2,-11 2,0 4,1 5,4 1,2 1,5 2,9 1,3 2,7 3,10 1,3 2,6 3,9 1,3 2,5 2,6 1,3 1,8 -1,17 -2,9 -5,19 -11,29 -6,11 -13,20 -23,30 -10,9 -22,16 -37,17 -7,1 -16,-2 -27,-6 -11,-3 -22,-13 -34,-29zm-78 -200c-3,1 -6,8 -7,21 -2,12 -3,27 -2,45 0,17 2,37 5,57 3,21 6,40 11,57 2,10 6,20 11,30 5,11 11,16 16,15 0,0 2,-4 5,-10 3,-6 7,-14 10,-23 2,-9 4,-19 5,-30 2,-10 1,-20 -2,-29 0,-3 0,-6 1,-9 -2,-5 -3,-10 -5,-15 -2,-8 -3,-18 -4,-31 -2,-13 -4,-26 -6,-38 -3,-12 -8,-23 -13,-31 -5,-8 -14,-12 -25,-9zm283 73c-15,-1 -30,-8 -47,-19 -16,-12 -27,-30 -33,-54 -1,-4 -2,-7 -3,-11 -4,-17 -4,-32 1,-47 5,-14 16,-26 34,-33 12,-6 23,-7 32,-7 9,0 18,2 24,6 7,3 14,8 21,13 6,5 13,10 21,15 -3,-7 -6,-14 -9,-22 -1,-11 1,-20 6,-26 5,-7 10,-11 15,-12 2,-1 4,-2 6,-4 2,-2 3,-2 4,-2 3,-1 6,-1 9,-2 2,-1 5,-2 7,-3 24,-5 39,3 44,22 0,2 0,5 1,8 -4,5 -6,12 -7,20 -2,8 -1,19 1,32 2,14 6,31 11,51 6,21 15,46 24,78 4,11 9,22 12,34 1,4 1,9 1,15 0,6 0,11 2,13 0,1 1,3 2,5 1,3 3,4 3,5 1,5 -1,11 -5,17 -3,6 -7,13 -11,18 -5,6 -10,11 -14,14 -4,4 -6,6 -6,6 -3,1 -9,0 -18,-2 -9,-3 -13,-4 -13,-5 -3,-11 -3,-19 0,-23 2,-5 2,-11 0,-19 -4,-13 -7,-27 -11,-40 -4,-17 -7,-28 -9,-35 -1,-7 -5,-11 -12,-10 -2,0 -4,0 -5,1 -6,-2 -8,1 -8,8 1,8 1,17 2,28 1,11 0,23 -1,36 -1,13 -5,25 -13,35 -9,11 -17,18 -21,22 -3,4 -9,7 -17,9 -13,5 -28,7 -45,4 -16,-3 -32,-12 -47,-25 -5,-5 -9,-7 -9,-8 -1,0 -1,-2 -2,-6 -4,-15 -7,-24 -7,-27 -1,-8 0,-13 2,-15 2,-1 4,0 5,3 2,2 5,6 10,9 5,3 10,5 15,8 11,7 18,11 19,13 2,2 7,1 15,-3 13,-5 21,-15 24,-31 3,-16 2,-35 0,-57zm-5 -122c-6,4 -9,12 -6,24 2,8 7,17 13,26 5,8 12,16 19,22 8,6 16,11 25,14 8,2 16,1 24,-2 6,-2 7,-8 1,-19 -5,-11 -12,-21 -22,-32 -9,-11 -19,-21 -30,-28 -10,-8 -18,-9 -24,-5zm-1919 1176c0,0 -428,23 -1034,69 -95,-214 -68,-461 167,-542 -292,-132 -326,-319 -213,-533 786,92 1972,-17 3331,-553 66,8 138,340 78,534 -3,10 -53,129 -57,138 1474,-282 2885,-177 3238,1565 -647,-1141 -2186,-1002 -3364,-803 -1,-3 -2,-7 -3,-11 -1,-7 -3,-14 -3,-20 -1,-13 -2,-25 -3,-38 -1,-6 -1,-12 -3,-18 1,-10 2,-21 3,-31 -3,-5 -5,-10 -7,-15 0,-1 0,-3 3,-5 2,-2 4,-3 5,-4 4,0 8,0 14,2 5,2 11,2 19,1 2,0 5,-1 9,-2 3,-1 5,-2 6,-2 5,0 11,0 17,-1 1,0 5,-3 11,-10 7,-6 11,-10 14,-13 3,-3 7,-6 11,-9 3,-5 6,-10 9,-16 6,-8 13,-16 19,-24 1,-4 2,-8 3,-12 4,-18 9,-32 12,-42 3,-10 5,-20 6,-29 0,-9 0,-19 0,-28 -1,-11 -2,-24 -4,-41 -7,-58 -20,-102 -40,-132 -16,-5 -26,-10 -31,-15 -4,-6 -11,-7 -21,-6 -15,3 -28,7 -38,13 -9,6 -17,13 -23,21 -5,8 -10,16 -12,24 -3,9 -5,17 -8,25 -1,-4 -2,-7 -2,-10 -1,-2 -1,-4 -1,-5 -2,-13 -2,-26 -2,-38 1,-13 1,-24 3,-34 1,-10 2,-18 4,-24 1,-6 2,-10 2,-10 0,0 -1,-2 -3,-5 -2,-3 -5,-7 -8,-11 -3,-3 -7,-6 -12,-8 -4,-3 -9,-4 -13,-3 -18,4 -30,5 -35,4 0,0 -2,1 -7,4 -4,3 -9,6 -15,10 -5,3 -10,7 -15,11 -4,4 -6,6 -6,8 0,3 2,5 6,6 3,1 5,3 6,6 0,3 0,7 -1,11 0,5 0,9 0,12 0,3 2,8 3,14 2,7 3,12 3,15 0,2 1,8 1,18 1,10 -1,24 0,41 1,20 5,40 8,59 3,44 7,87 10,131 1,29 2,59 3,89 -1,20 -5,40 -4,60 1,20 4,37 4,51 -1,14 -2,27 -2,37 0,7 0,13 0,18 -84,14 -166,29 -245,44 -651,209 -1265,297 -1843,263l50 -201zm841 -124c-3,4 -7,11 -13,22 -5,11 -12,23 -20,34 -7,12 -16,23 -26,33 -9,10 -19,16 -30,17 -25,4 -46,-5 -62,-27 -15,-22 -23,-48 -23,-79 0,-19 2,-41 5,-66 3,-26 8,-55 13,-87 2,-9 6,-25 13,-46 8,-22 18,-41 30,-60 12,-18 27,-31 45,-38 19,-7 41,-1 68,19 3,2 6,3 9,3 1,0 7,-1 17,-1 10,0 20,1 31,2 12,2 22,5 32,9 9,4 14,10 15,18 1,2 -1,5 -3,10 -2,4 -3,7 -3,9 0,5 1,11 2,17 1,12 -3,30 -10,54 -7,25 -10,51 -10,78 1,12 4,24 9,37 4,13 11,19 20,17 5,0 12,-5 19,-14 8,-9 14,-19 21,-29 6,-10 11,-20 16,-28 5,-9 7,-13 8,-13 2,0 4,1 4,5 0,2 0,6 -1,10 0,5 -1,9 -1,13 0,3 1,7 1,11 1,3 1,6 1,7 0,3 -2,10 -7,20 -5,11 -12,23 -22,35 -9,12 -21,23 -34,34 -14,10 -30,18 -48,20 -9,0 -19,-4 -32,-9 -13,-5 -24,-18 -34,-37zm-27 -246c-5,1 -11,10 -16,24 -6,14 -11,32 -17,54 -6,21 -11,44 -15,69 -4,25 -6,48 -6,70 0,11 2,23 6,37 4,13 9,19 16,18 0,0 3,-3 8,-11 5,-7 10,-16 16,-27 6,-11 12,-22 17,-35 5,-13 7,-25 7,-35 1,-4 2,-8 3,-12 0,-6 1,-12 1,-18 0,-9 3,-21 6,-37 3,-16 6,-31 6,-46 1,-15 -1,-28 -5,-38 -4,-10 -13,-15 -27,-13zm406 62c-8,1 -15,4 -23,8 -7,4 -11,6 -12,6 -19,3 -31,-22 -34,-75 -1,-5 -1,-10 -2,-14 -1,-5 0,-9 0,-12 0,-6 -1,-11 -1,-15 -1,-5 -2,-8 -2,-11 0,-5 -4,-8 -9,-7 -5,1 -9,9 -12,25 -3,16 -6,34 -8,55 -3,21 -5,43 -6,66 -2,23 -2,42 -2,57 1,19 7,37 17,53 10,16 23,23 42,20 1,0 13,-6 33,-15 3,-4 7,-8 11,-12 4,-4 9,-8 13,-11 7,-9 16,-18 23,-26 6,-7 13,-16 20,-25 7,-10 10,-15 12,-15 4,0 6,12 7,36 1,11 -3,23 -10,35 -7,11 -16,22 -25,32 -9,9 -18,18 -28,24 -9,7 -15,12 -19,14 -4,3 -11,5 -18,9 -8,5 -15,9 -23,13 -8,5 -15,9 -22,12 -6,4 -10,6 -12,6 -16,2 -31,1 -44,-4 -13,-5 -25,-12 -35,-22 -10,-9 -17,-20 -23,-33 -6,-13 -8,-26 -9,-39 -1,-34 0,-63 1,-88 1,-25 2,-47 6,-64 2,-5 3,-14 5,-26 1,-12 3,-25 6,-38 2,-13 6,-24 10,-35 4,-10 8,-16 15,-17 9,-1 18,-6 29,-14 11,-8 31,-15 61,-20 8,-1 15,0 21,3 6,3 13,5 20,6 2,0 3,1 5,2 4,2 8,3 10,4 3,1 6,3 8,6 2,3 5,9 7,17 2,8 4,20 6,37 2,16 5,31 7,44 3,13 5,24 6,35 1,9 -3,14 -10,13 -7,0 -11,0 -12,0zm215 -51c-3,9 -6,17 -10,24 -5,23 -10,45 -15,68 -7,30 -15,54 -23,73 -9,18 -12,37 -12,56 0,1 1,4 2,8 1,4 1,7 1,8 0,9 -2,14 -7,17 -5,2 -12,4 -22,6 -9,1 -16,2 -19,0 -3,-1 -8,-5 -13,-13 -4,0 -7,1 -11,1 -5,1 -10,-3 -14,-13 -4,-10 -6,-23 -7,-40 -1,-34 -2,-63 -2,-85 -1,-23 0,-38 0,-47 2,-21 3,-36 3,-47 0,-10 0,-17 0,-19 -2,-16 -4,-32 -7,-48 -1,-7 -2,-12 -1,-16 1,-4 1,-6 1,-7 0,-3 -2,-6 -4,-10 -3,-5 -5,-6 -5,-6 -1,-10 2,-17 9,-22 8,-5 15,-7 22,-9 2,-1 4,-2 6,-3 3,1 5,2 8,3 5,-2 11,-3 16,-4 1,0 4,0 9,1 4,1 9,3 14,5 6,2 11,5 16,8 4,3 7,6 7,10 -2,3 -4,10 -6,19 -2,9 -2,20 -1,33 1,22 1,43 1,65 0,24 -1,45 -2,61 -2,16 -3,27 -3,33 3,-10 8,-23 13,-41 5,-18 10,-36 16,-53 5,-18 10,-35 13,-50 4,-16 5,-26 6,-32 2,-21 5,-33 7,-38 2,-4 7,-8 18,-12 1,0 4,-2 11,-7 6,-5 12,-8 16,-9 6,2 11,5 16,7 16,6 24,9 24,10 1,1 1,4 2,11 0,1 1,3 4,6 3,4 5,7 5,11 1,3 1,6 0,7 -2,29 -3,56 -4,82 -1,25 -1,49 1,71 3,-11 11,-39 22,-84 6,-24 10,-43 13,-57 3,-13 5,-25 7,-34 2,-9 3,-17 3,-24 0,-7 1,-16 2,-27 0,-10 1,-17 3,-20 2,-3 2,-10 1,-18 -1,-2 0,-4 0,-4 5,0 11,1 16,1 4,-3 8,-6 14,-8 4,-2 17,-6 37,-13 4,0 7,0 9,2 2,1 9,7 19,16 2,3 5,5 8,8 2,2 3,5 5,7 2,5 3,8 5,9 3,2 4,3 4,5 0,6 -2,14 -9,24 -1,-3 -1,3 -3,17 -1,14 -3,31 -4,50 -1,20 -2,39 -3,57 -1,19 -2,32 -1,38 2,22 6,39 13,52 8,13 16,19 27,17 4,-1 7,-4 12,-10 4,-5 9,-12 13,-18 5,-7 9,-13 14,-19 4,-6 8,-9 11,-9 3,-1 5,0 5,4 0,4 0,8 0,12 0,8 0,15 0,19 1,5 1,8 1,10 0,2 0,4 -1,5 0,2 -1,4 -3,7 -1,2 -5,6 -11,15 -6,8 -13,17 -23,27 -9,9 -20,18 -32,26 -12,8 -23,13 -35,15 -12,2 -23,0 -32,-6 -9,-7 -17,-15 -23,-26 -6,-10 -11,-22 -14,-35 -3,-13 -5,-25 -6,-37 0,-6 0,-14 0,-23 1,-9 1,-17 2,-26 0,-8 1,-16 1,-22 1,-7 1,-11 1,-12 0,-1 -1,-2 -1,-5 -1,-3 -1,-6 -3,-10 -6,16 -10,28 -13,37 -3,8 -6,16 -8,24 -2,8 -4,18 -6,29 -2,11 -6,26 -11,48 -4,17 -7,31 -10,41 -3,11 -4,19 -4,23 0,10 2,19 3,29 -3,4 -5,8 -7,13 0,1 1,3 1,5 0,4 -2,7 -7,7 5,0 4,-1 -4,-1 -7,0 -17,-1 -28,-4 -11,-3 -22,-8 -33,-15 -10,-7 -16,-18 -17,-33 0,-14 0,-29 0,-46 1,-17 1,-33 2,-49 0,-16 0,-30 1,-42 0,-11 0,-19 0,-21 0,-1 0,-3 -1,-5 0,-3 0,-6 -1,-9zm335 -209c8,-2 19,-8 35,-18 15,-9 34,-17 57,-24 10,-3 20,-6 30,-9 8,-2 16,-1 26,4 10,6 19,15 28,25 10,10 17,23 24,37 7,14 11,28 12,42 3,18 2,36 -2,55 -3,18 -9,34 -18,46 -16,23 -27,38 -33,45 -6,6 -13,11 -20,12 -3,0 -6,2 -10,4 -2,2 -5,3 -8,4 -1,0 -6,0 -14,0 -9,0 -16,0 -20,1 -6,1 -9,5 -8,13 1,18 7,33 19,44 11,12 24,17 37,15 31,-5 59,-26 84,-61 0,0 3,-5 10,-16 8,-10 15,-21 21,-31 6,-10 9,-16 10,-17 3,-1 4,1 5,4 0,3 0,6 0,9 1,8 1,16 2,24 1,2 1,4 2,7 0,2 1,5 1,8 0,9 -4,22 -13,38 -10,17 -22,33 -38,49 -16,17 -34,31 -53,44 -20,13 -40,21 -60,24 -10,2 -20,1 -30,-2 -10,-4 -20,-10 -32,-18 -19,-13 -33,-26 -41,-39 -8,-13 -13,-33 -15,-58 -1,-20 -2,-38 -3,-54 0,-16 0,-32 0,-47 0,-15 1,-31 2,-48 2,-17 3,-37 5,-59 1,-10 2,-20 4,-29 1,-9 2,-17 4,-24zm105 -3c-3,-1 -5,-2 -7,-2 -4,-2 -7,7 -9,25 -3,18 -6,38 -8,60 -1,23 -3,44 -4,64 -2,20 -3,31 -2,35 0,2 3,5 9,7 7,2 12,2 16,1 9,-1 16,-8 21,-20 5,-12 7,-26 9,-41 2,-15 3,-30 3,-44 0,-14 -1,-25 -1,-31 -2,-14 -6,-27 -11,-41 -2,-5 -4,-8 -6,-9 -1,-1 -4,-3 -10,-4zm255 247c6,2 11,3 13,5 2,1 5,3 7,4 2,-2 6,-3 9,-5 2,1 5,2 8,2 6,-1 11,-9 14,-25 4,-15 6,-35 6,-58 1,-11 1,-22 1,-33 -3,-31 -6,-62 -9,-93 -1,-8 -4,-14 -10,-19 -5,-5 -9,-8 -14,-7 -4,1 -8,5 -12,13 -4,8 -8,17 -11,27 -3,10 -5,20 -7,30 -1,10 -2,18 -1,23 2,14 3,33 3,58 0,24 1,50 3,78zm668 -213c8,25 16,46 25,62 10,16 23,23 41,21 5,-1 8,-2 10,-2 3,-1 4,-2 6,-4 2,-3 5,-6 7,-10 3,-3 7,-9 13,-17 4,-6 8,-12 13,-18 5,-7 7,-13 8,-17 1,-3 3,-5 5,-5 4,-1 6,4 8,13 0,2 0,5 1,11 0,6 1,14 2,24 0,5 0,8 -1,9 -1,2 -4,7 -9,16 -13,24 -28,43 -46,57 -18,14 -36,22 -53,24 -10,2 -18,2 -24,0 -6,-2 -16,-6 -29,-14 -13,-7 -22,-18 -29,-32 -6,-13 -12,-26 -16,-39 -4,-13 -8,-24 -11,-31 -3,-8 -8,-10 -13,-5 -3,0 -5,1 -7,2 -8,3 -12,10 -10,19 1,9 2,23 4,43 2,18 3,35 5,53 1,10 4,16 8,20 4,4 7,13 8,27 0,1 -5,5 -14,14 -9,8 -17,12 -22,13 0,0 -3,-1 -9,-3 -7,-1 -13,-4 -20,-8 -7,-3 -14,-8 -20,-14 -6,-5 -10,-11 -10,-17 0,-2 0,-4 0,-7 0,-4 0,-6 0,-7 0,-4 -1,-8 -3,-15 -2,-7 -3,-13 -4,-18 0,-7 -1,-14 -2,-21 -1,7 -3,14 -7,20 -6,13 -13,24 -22,34 -8,10 -17,18 -26,26 -9,7 -15,12 -18,14 -4,2 -10,5 -18,9 -7,4 -14,9 -22,13 -7,5 -14,9 -20,13 -7,3 -11,5 -13,5 -15,2 -30,0 -43,-5 -14,-6 -26,-14 -36,-25 -10,-10 -19,-23 -25,-37 -7,-14 -10,-28 -12,-42 -3,-37 -7,-69 -8,-96 -1,-27 0,-50 3,-69 0,-5 1,-15 2,-28 1,-13 3,-27 5,-41 2,-14 5,-26 9,-37 5,-11 10,-17 17,-18 8,-2 18,-7 29,-15 11,-9 31,-15 61,-19 8,-1 15,0 21,3 6,4 13,6 20,8 2,0 4,1 5,2 4,2 8,4 10,5 3,1 5,3 7,7 3,3 5,10 7,19 2,9 4,22 6,39 3,19 5,35 9,49 3,14 5,27 7,38 1,10 -2,15 -9,14 -7,-1 -11,-1 -12,-1 -7,1 -15,4 -22,8 -7,4 -11,6 -12,6 -19,2 -32,-25 -39,-83 0,-5 -1,-10 -2,-15 0,-5 0,-9 0,-14 0,-5 -1,-11 -1,-16 -1,-4 -1,-8 -2,-11 -1,-6 -3,-9 -9,-9 -5,1 -9,10 -12,27 -3,17 -5,37 -7,60 -1,23 -1,46 -1,71 0,25 1,45 3,62 3,21 10,40 21,58 11,18 25,25 43,23 2,-1 12,-6 32,-15 4,-4 7,-9 11,-13 3,-3 7,-7 11,-11 7,-9 14,-18 21,-28 5,-7 11,-15 17,-26 6,-9 10,-15 11,-15 2,0 4,4 6,12 -3,-34 -7,-63 -9,-88 -4,-29 -7,-54 -10,-75 -3,-22 -6,-40 -9,-56 -3,-15 -6,-31 -10,-46 1,-4 1,-8 1,-11 2,-26 16,-44 45,-52 3,-1 6,-1 10,-1 3,-2 6,-3 9,-4 1,0 3,0 7,0 3,1 6,1 9,0 6,0 12,1 21,6 7,5 12,14 14,28 -3,0 -4,6 -6,17 -2,11 -2,25 -3,42 -1,17 -1,35 -1,55 1,20 2,38 4,54 2,17 4,30 8,40 3,10 7,14 12,12 27,-11 47,-30 60,-56 13,-26 22,-50 24,-74 1,-10 0,-22 -1,-35 -1,-14 -2,-26 -2,-38 1,-11 3,-21 7,-29 4,-8 11,-12 22,-12 25,0 44,9 58,26 15,18 22,37 20,59 -4,45 -14,79 -32,102 -17,23 -36,42 -56,56zm313 79c-2,4 -6,12 -11,24 -4,11 -9,24 -16,36 -6,12 -14,23 -23,34 -9,10 -18,16 -28,17 -25,3 -46,-8 -63,-32 -17,-24 -28,-52 -32,-85 -2,-20 -3,-44 -2,-71 0,-28 2,-59 5,-93 0,-10 4,-26 11,-49 6,-23 14,-44 26,-63 12,-19 28,-31 46,-38 19,-7 41,0 68,22 3,3 6,5 8,4 3,0 8,0 18,0 10,1 20,2 32,4 11,3 22,6 31,11 9,5 15,12 16,21 0,1 -1,4 -3,9 -2,5 -3,9 -3,10 1,6 1,12 2,18 2,13 -1,32 -6,58 -6,26 -7,54 -4,83 2,13 5,26 11,40 7,14 14,20 22,19 6,0 12,-5 18,-14 7,-10 13,-20 18,-30 6,-11 10,-21 14,-29 4,-9 7,-14 7,-14 2,0 4,2 4,6 1,2 1,6 1,11 0,5 0,9 0,14 1,3 1,7 2,11 0,4 1,6 1,8 1,3 -2,10 -6,21 -3,11 -9,23 -18,36 -8,12 -19,24 -31,34 -13,11 -28,18 -45,19 -9,1 -20,-4 -33,-10 -13,-7 -26,-20 -37,-42zm-46 -263c-5,0 -10,9 -15,24 -6,15 -10,34 -14,57 -4,22 -8,47 -10,73 -1,27 -1,52 2,75 1,12 4,25 9,40 5,14 11,21 18,20 0,0 3,-4 7,-12 4,-7 9,-16 14,-28 5,-11 9,-23 12,-37 4,-13 5,-26 4,-37 1,-4 1,-8 2,-12 0,-7 -1,-13 -1,-20 0,-9 1,-22 3,-39 2,-17 3,-33 3,-49 0,-16 -2,-30 -6,-41 -5,-11 -14,-16 -28,-14zm322 125c-18,-3 -35,-13 -51,-29 -16,-16 -24,-40 -24,-71 0,-4 -1,-9 -1,-13 0,-22 4,-42 13,-59 9,-18 25,-31 48,-39 16,-6 30,-7 41,-6 12,1 22,4 30,9 7,5 16,11 23,18 7,8 15,15 23,22 -2,-10 -5,-19 -7,-29 0,-14 4,-25 11,-33 7,-8 14,-12 20,-14 3,-1 5,-2 8,-4 2,-2 4,-3 5,-3 3,-1 7,-1 10,-2 3,-1 7,-2 10,-3 30,-5 48,5 52,29 1,4 0,7 1,10 -5,7 -9,16 -12,26 -3,10 -5,23 -6,40 -1,17 -1,39 -1,65 1,26 2,59 4,98 1,15 2,29 2,44 1,5 -1,11 -2,19 -2,8 -3,13 -2,16 1,1 1,3 2,7 1,3 2,5 2,6 -1,7 -4,14 -9,21 -6,8 -11,16 -18,22 -6,8 -12,13 -18,18 -5,4 -8,7 -8,7 -4,1 -12,0 -22,-4 -10,-3 -15,-5 -15,-6 -2,-14 0,-24 4,-30 4,-6 4,-14 3,-23 -2,-17 -1,-35 -2,-52 -1,-20 -1,-35 0,-44 1,-9 -4,-14 -12,-13 -3,0 -5,1 -7,1 -6,-3 -10,1 -11,10 -2,9 -5,21 -7,35 -3,14 -6,29 -11,46 -4,16 -12,30 -23,42 -13,14 -23,23 -28,27 -5,5 -13,8 -21,10 -17,5 -36,6 -55,1 -20,-5 -38,-17 -54,-36 -6,-6 -9,-10 -10,-11 -1,0 -1,-3 -2,-8 -1,-19 -3,-30 -2,-35 1,-10 3,-16 6,-18 3,-1 4,1 6,4 1,3 4,8 10,13 4,4 10,7 14,11 13,10 20,16 22,18 2,3 8,2 18,-2 17,-5 30,-17 37,-37 7,-20 12,-44 16,-71zm30 -154c-9,5 -13,14 -13,29 0,11 3,22 7,34 5,11 10,21 18,29 7,9 15,15 25,19 9,4 19,4 30,0 8,-2 11,-10 8,-24 -3,-14 -9,-28 -17,-42 -8,-15 -17,-27 -29,-37 -11,-10 -21,-13 -29,-8zm-1939 1588c-79,129 -144,262 -194,399 -50,138 -81,262 -93,371 -12,110 -1,197 32,261 33,64 93,86 180,67 76,-17 151,-55 224,-115 72,-59 140,-133 203,-221 -137,-62 -234,-164 -291,-306 -56,-142 -77,-294 -61,-456zm487 543c69,-129 125,-262 170,-398 45,-137 73,-260 83,-369 11,-109 2,-195 -27,-257 -29,-62 -82,-82 -159,-60 -58,20 -108,57 -150,110 -42,53 -77,115 -103,185 -26,71 -44,146 -53,226 -10,80 -7,157 7,232 15,74 41,141 78,200 37,59 88,103 154,131z"/>
  <g id="_2428226846304">
   <path class="fil0" d="M4194 8696c-19,40 -36,68 -48,83 -6,6 -14,14 -24,21 -10,8 -17,13 -22,13 -11,2 -22,0 -31,-7 -10,-6 -17,-15 -23,-26 -6,-10 -10,-21 -14,-33 -3,-12 -4,-22 -4,-29 0,-61 6,-128 16,-199 0,-2 1,-5 1,-9 0,-1 -2,-7 -5,-17 0,-2 0,-4 0,-6 1,-6 2,-12 3,-18 0,-1 -1,-3 -2,-7 -1,-4 -2,-6 -2,-9 0,-8 2,-12 5,-11 6,-1 13,-1 19,-2 12,-12 22,-18 30,-20 5,-1 12,0 18,4 7,3 13,7 18,12 6,5 11,10 14,14 4,5 6,9 6,11 0,0 -1,2 -2,5 -2,4 -3,8 -5,13 -1,6 -3,11 -5,17 -1,6 -2,10 -2,14 -1,6 -2,17 -5,33 -4,17 -6,33 -6,50 0,15 -1,27 -2,36 -1,10 -2,18 -3,25 -1,7 -2,13 -3,19 -1,6 -2,13 -2,21 0,2 1,5 2,9 1,4 2,8 4,12 2,5 4,8 6,11 2,3 4,5 7,5 7,-2 14,-11 21,-29 7,-18 13,-38 18,-60 6,-23 10,-46 13,-68 4,-23 6,-40 6,-51 0,-15 0,-25 0,-30 0,-4 -2,-8 -4,-12 -1,-3 -2,-6 -2,-7 0,-8 6,-17 16,-27 11,-10 22,-16 36,-19 6,-1 12,1 18,7 2,0 5,0 7,0 3,2 5,4 8,5 8,5 13,9 16,12 3,2 5,6 5,13 0,3 -2,5 -6,6 -3,2 -5,5 -5,11 0,1 -1,9 -3,22 -2,14 -4,29 -6,46 -2,17 -4,33 -6,48 -2,15 -3,24 -3,27 0,7 1,15 2,24 1,8 2,16 4,23 2,7 5,13 8,18 3,4 7,6 12,5 7,-2 13,-6 18,-14 4,-8 9,-18 12,-29 4,-11 6,-23 8,-36 1,-12 2,-24 2,-34 0,-10 0,-20 -2,-28 -2,-9 -3,-16 -3,-22 -1,1 0,0 0,-5 1,-5 2,-9 2,-13 0,-1 -1,-12 -2,-32 0,-1 2,-6 4,-16 3,-11 5,-22 9,-34 3,-12 5,-23 8,-32 2,-10 3,-14 2,-12 6,-8 15,-13 26,-14 10,-1 19,6 28,20 2,5 4,10 7,14 -2,5 -3,10 -3,15 -2,13 -3,25 -5,38 -8,40 -13,80 -23,120 -4,18 -10,27 -10,32 0,7 3,12 10,16 7,5 14,6 23,4 4,-1 8,-4 13,-9 5,-6 10,-11 15,-17 4,-5 8,-9 10,-11 3,-2 5,0 5,6 0,3 0,6 -1,8 0,3 0,6 0,8 0,3 0,6 0,11 0,4 0,8 0,12 0,3 -1,6 -4,10 -3,3 -6,7 -9,10 -4,3 -7,5 -9,7 -3,3 -4,4 -3,3 -3,1 -6,2 -8,2 -4,2 -9,3 -13,5 -2,0 -4,0 -9,0 -4,-1 -9,-2 -14,-3 -4,-2 -9,-3 -13,-5 -5,-1 -8,-3 -10,-4 -4,6 -8,15 -13,25 -5,10 -11,19 -19,29 -7,10 -16,19 -26,27 -10,8 -22,14 -35,17 -18,4 -31,1 -40,-9 -9,-10 -16,-30 -22,-59zm413 -95c-20,41 -36,69 -48,85 -6,7 -14,15 -24,23 -10,8 -17,13 -22,14 -12,3 -22,2 -32,-5 -9,-7 -16,-15 -22,-25 -6,-10 -11,-21 -14,-33 -3,-11 -4,-21 -4,-28 1,-62 6,-128 16,-200 0,-1 1,-4 1,-9 0,-1 -2,-7 -5,-16 0,-2 0,-4 0,-7 1,-6 2,-12 3,-18 0,-1 -1,-3 -2,-7 -2,-3 -2,-6 -2,-8 0,-8 2,-12 5,-12 6,-1 12,-2 19,-3 12,-12 22,-18 30,-21 5,-1 11,0 18,3 7,3 13,7 18,11 6,5 10,9 14,14 4,4 5,8 5,10 0,0 0,2 -1,6 -2,3 -4,7 -5,13 -2,5 -3,11 -5,17 -1,5 -2,10 -2,14 0,5 -2,16 -6,33 -3,17 -5,33 -5,50 0,15 -1,27 -2,36 -1,10 -2,18 -3,25 -1,7 -3,14 -3,19 -1,6 -2,13 -2,21 0,2 1,5 2,9 1,4 2,8 3,12 2,5 5,8 7,11 2,3 4,4 7,3 7,-1 13,-11 20,-29 8,-18 14,-38 19,-61 5,-23 10,-46 13,-69 4,-23 6,-40 6,-51 0,-15 0,-24 0,-29 0,-4 -2,-8 -4,-12 -2,-3 -2,-6 -2,-7 0,-8 6,-17 16,-27 10,-10 22,-17 36,-20 6,-2 11,0 18,6 2,-1 5,-1 7,-1 3,2 5,4 8,5 7,5 13,8 16,11 3,2 5,6 4,13 0,3 -1,5 -5,6 -4,2 -5,5 -5,11 0,1 -1,9 -3,23 -2,13 -4,29 -6,46 -2,16 -4,32 -6,47 -2,15 -3,24 -3,28 0,7 0,15 1,23 1,8 3,16 5,23 2,7 5,13 8,17 3,5 7,6 12,5 7,-2 13,-7 18,-15 4,-8 9,-18 12,-30 3,-11 6,-23 8,-35 1,-13 2,-24 2,-35 0,-10 0,-19 -2,-27 -2,-9 -3,-16 -3,-22 -1,2 -1,0 0,-5 1,-5 2,-9 2,-13 0,-1 -1,-12 -2,-32 0,-1 1,-6 4,-16 2,-11 6,-22 9,-34 2,-12 5,-23 8,-32 2,-10 3,-14 2,-13 6,-8 15,-12 25,-14 11,-1 20,6 28,20 2,4 5,9 8,13 -2,5 -3,10 -4,15 -2,13 -3,25 -4,38 -8,40 -12,81 -23,120 -4,18 -10,28 -10,33 0,6 3,11 10,16 7,4 14,5 23,3 4,-1 8,-5 13,-11 5,-5 10,-11 15,-16 4,-6 7,-10 10,-12 3,-2 5,0 5,6 0,3 0,5 -1,8 0,3 0,6 0,8 0,3 0,6 0,11 0,4 0,8 0,12 0,3 -1,6 -4,9 -3,4 -6,8 -9,11 -4,3 -7,6 -9,8 -3,2 -4,3 -4,3 -3,1 -5,1 -8,2 -4,2 -8,4 -13,5 -1,1 -4,0 -8,0 -4,0 -9,-1 -14,-2 -4,-2 -9,-3 -13,-4 -5,-2 -8,-3 -10,-4 -4,6 -8,15 -13,24 -5,11 -11,21 -19,31 -7,10 -16,19 -26,28 -10,8 -22,14 -35,18 -18,5 -31,2 -40,-7 -9,-10 -16,-29 -22,-58zm412 -109c-19,42 -35,70 -47,86 -6,7 -14,15 -24,24 -10,8 -17,13 -22,14 -12,3 -23,2 -32,-4 -9,-6 -16,-15 -22,-25 -6,-9 -11,-20 -14,-31 -3,-12 -5,-21 -5,-29 1,-61 7,-127 17,-199 0,-1 1,-4 1,-9 0,-1 -2,-7 -6,-16 0,-2 0,-4 1,-6 1,-6 2,-12 3,-18 0,-1 -1,-4 -2,-7 -1,-4 -2,-7 -2,-9 0,-8 2,-12 5,-11 6,-2 12,-3 19,-4 12,-12 22,-19 30,-22 5,-1 11,-1 18,2 6,3 13,7 18,11 6,5 10,9 14,13 4,5 5,8 5,11 0,0 0,2 -2,5 -1,4 -3,8 -4,13 -2,6 -3,11 -5,17 -1,6 -2,11 -2,14 0,6 -2,17 -6,34 -3,16 -5,33 -5,50 0,14 -1,26 -2,36 -1,9 -2,18 -4,25 -1,6 -2,13 -3,19 -1,5 -1,12 -2,20 0,2 1,5 2,9 2,4 3,8 4,12 2,5 4,8 6,11 3,3 5,4 8,3 7,-2 13,-12 20,-30 7,-18 13,-38 19,-61 5,-23 9,-46 13,-69 4,-23 6,-39 6,-50 0,-15 0,-25 0,-29 0,-5 -2,-9 -4,-13 -1,-3 -2,-5 -2,-6 0,-8 5,-18 16,-28 10,-10 22,-17 36,-21 5,-1 11,1 18,6 2,0 4,0 7,0 2,1 5,3 8,4 7,5 12,8 16,10 3,3 4,7 4,13 0,3 -1,5 -5,7 -4,1 -5,5 -6,11 0,1 -1,8 -3,22 -1,14 -3,29 -6,46 -2,17 -3,32 -5,47 -2,15 -3,25 -3,28 0,7 0,15 1,23 1,8 3,16 5,23 2,7 5,12 8,17 3,4 7,5 12,4 7,-1 12,-7 17,-15 5,-8 10,-18 13,-29 3,-12 6,-23 8,-36 1,-13 2,-24 2,-34 0,-10 0,-19 -2,-28 -2,-8 -3,-15 -3,-21 -1,1 -1,-1 0,-6 1,-4 2,-8 2,-12 0,-1 -1,-12 -2,-32 0,-1 1,-6 4,-16 3,-11 6,-22 8,-34 3,-12 6,-23 9,-32 2,-10 3,-14 2,-13 6,-8 15,-12 25,-14 11,-1 20,5 28,19 2,4 5,9 8,13 -2,5 -3,10 -4,15 -2,13 -3,25 -4,38 -8,40 -13,80 -23,120 -4,18 -10,27 -11,32 0,6 3,12 11,16 7,4 14,5 22,3 4,-1 9,-5 14,-11 5,-5 10,-11 14,-16 4,-6 8,-10 11,-12 3,-2 5,0 5,6 0,2 0,5 -1,8 0,3 0,6 -1,8 0,2 1,6 1,10 0,5 0,9 0,12 0,3 -2,6 -5,10 -3,4 -6,7 -9,10 -3,4 -6,6 -9,8 -2,2 -3,4 -3,3 -3,1 -5,2 -8,3 -4,1 -9,3 -13,5 -1,0 -4,0 -8,0 -4,0 -9,-1 -14,-2 -5,-2 -9,-3 -13,-4 -5,-2 -8,-3 -10,-4 -4,7 -8,15 -13,25 -5,10 -12,20 -19,30 -8,10 -16,20 -26,29 -10,8 -22,15 -35,19 -18,4 -31,2 -40,-7 -9,-9 -16,-28 -23,-57zm309 -92c2,-1 8,-1 18,-3 8,-3 16,-7 24,-11 3,-1 7,0 11,2 4,3 8,6 13,10 4,3 8,7 11,12 3,4 5,7 5,9 0,3 -1,8 -3,17 -3,9 -6,19 -11,29 -5,11 -11,21 -18,30 -8,9 -17,15 -27,18 -24,7 -39,5 -48,-4 -8,-9 -12,-20 -12,-34 0,-3 1,-9 3,-16 2,-8 4,-16 7,-24 3,-8 7,-16 12,-23 4,-7 9,-11 15,-12zm230 -217c-4,30 -7,55 -10,74 -2,19 -4,33 -4,42 0,19 3,35 9,47 5,12 12,17 20,15 6,-2 13,-8 23,-20 9,-12 18,-23 27,-36 9,-12 17,-22 24,-30 7,-8 10,-9 10,-2 0,1 -1,3 -1,5 0,5 0,10 0,15 -1,4 -1,8 -1,12 0,5 1,11 1,16 0,2 -6,9 -16,22 -6,8 -10,17 -16,26 -4,7 -10,14 -18,22 -7,7 -14,14 -23,22 -8,7 -16,13 -24,18 -8,5 -15,9 -20,10 -10,3 -21,3 -31,0 -10,-3 -19,-7 -28,-14 -8,-6 -14,-13 -19,-21 -5,-9 -7,-18 -7,-26 1,-10 0,-21 1,-35 0,-14 1,-28 2,-42 1,-14 2,-28 4,-41 1,-14 3,-25 6,-33 3,-12 5,-21 6,-28 0,-4 -2,-6 -7,-8 -4,-1 -6,-6 -6,-13 0,-2 1,-6 3,-11 2,-5 3,-8 3,-9 0,-5 -1,-9 -2,-13 -2,-4 -3,-9 -3,-15 0,-8 2,-13 4,-16 2,-2 5,-4 8,-6 3,-1 6,-4 8,-7 3,-3 5,-10 7,-20 3,-16 5,-31 8,-46 2,-17 4,-30 5,-39 0,-10 1,-15 1,-15 0,-4 -2,-6 -5,-6 -4,-1 -6,-3 -6,-5 0,-3 3,-8 9,-14 5,-6 11,-13 17,-20 7,-7 13,-13 19,-18 6,-5 9,-8 10,-8 1,0 2,0 4,0 -1,0 1,0 7,0 6,0 12,0 20,1 8,2 16,3 23,6 6,2 9,7 9,12 0,-1 -2,4 -6,16 -4,11 -9,25 -14,41 -5,16 -9,33 -14,51 -4,18 -7,33 -7,45 0,1 1,2 4,2 2,0 9,-1 21,-3 11,-2 19,1 22,9 4,8 6,14 6,18 0,0 -3,3 -7,8 -5,6 -8,10 -8,13 0,5 3,9 8,12 5,2 8,6 8,11 0,10 -4,15 -11,17 -4,1 -8,2 -13,1 -5,0 -9,0 -12,1 -3,1 -7,2 -12,4 -5,2 -10,4 -16,6zm256 101c-2,4 -6,11 -12,22 -5,12 -12,23 -19,35 -8,13 -17,24 -26,34 -9,11 -19,17 -29,19 -23,6 -41,0 -54,-20 -13,-19 -20,-43 -19,-73 0,-17 2,-39 6,-64 4,-25 9,-53 15,-84 2,-9 7,-25 15,-46 8,-22 19,-42 33,-61 13,-19 28,-33 46,-41 18,-9 38,-5 60,11 3,2 6,3 8,2 2,0 7,-1 16,-2 9,-1 19,-1 29,-1 10,1 20,3 28,6 8,4 12,9 12,17 0,1 -2,4 -4,9 -2,5 -4,8 -4,9 0,6 1,11 0,16 0,12 -4,30 -12,54 -8,24 -12,49 -12,75 0,12 1,23 6,35 4,12 10,17 17,15 6,-1 12,-6 19,-15 7,-9 14,-19 20,-30 6,-10 12,-20 16,-28 5,-8 8,-13 8,-13 2,0 3,1 3,4 0,3 0,6 -1,11 0,4 -1,8 -1,12 0,3 0,6 0,10 1,4 1,6 1,7 0,3 -3,10 -7,20 -5,11 -12,22 -22,35 -9,12 -20,24 -33,35 -13,11 -27,20 -44,23 -8,1 -18,-2 -29,-6 -11,-4 -21,-15 -30,-32zm-12 -234c-3,1 -7,8 -13,23 -6,15 -13,32 -20,53 -7,22 -14,45 -19,69 -6,25 -8,48 -9,69 0,11 1,22 4,34 3,13 8,18 14,16 0,0 3,-3 8,-11 5,-7 11,-17 16,-27 6,-11 12,-23 16,-36 5,-12 7,-24 8,-34 1,-4 2,-8 3,-11 0,-6 1,-12 1,-18 1,-8 4,-21 8,-36 3,-16 6,-31 8,-45 2,-14 1,-27 -2,-36 -2,-10 -10,-13 -23,-10zm339 150c-2,5 -6,12 -11,22 -6,11 -12,21 -19,32 -7,11 -14,20 -23,29 -8,9 -17,14 -25,16 -10,2 -20,2 -30,0 -11,-2 -20,-6 -28,-12 -9,-7 -16,-16 -21,-28 -6,-12 -8,-28 -7,-46 0,-4 0,-9 0,-14 0,-4 1,-9 1,-14 3,-12 2,-22 2,-29 1,-7 1,-11 1,-13 0,-15 0,-30 0,-46 1,-5 2,-21 5,-46 3,-25 7,-52 10,-81 4,-28 7,-55 11,-79 3,-24 4,-38 4,-41 1,-1 2,-5 2,-13 0,-2 -1,-7 -3,-15 -2,-7 -3,-15 -3,-24 0,-2 1,-6 3,-12 3,-5 6,-11 11,-18 4,-6 11,-13 20,-19 9,-6 20,-10 32,-13 3,0 7,0 12,1 5,1 11,2 16,4 4,1 8,4 11,6 4,3 5,6 3,9 0,4 0,9 0,13 0,1 1,3 3,4 2,2 2,3 2,4 0,2 -1,4 -1,6 0,2 1,5 1,7 0,1 -3,5 -9,13 -2,1 -3,7 -6,20 -2,12 -4,28 -7,49 -3,21 -8,46 -13,74 -5,29 -11,60 -17,95 -2,14 -5,24 -6,32 -2,8 -3,13 -3,15 0,4 0,11 0,22 0,10 0,22 1,34 0,12 0,23 1,34 1,10 2,17 2,20 3,19 11,27 23,24 3,-1 6,-3 10,-9 3,-5 6,-12 10,-19 4,-7 7,-15 9,-23 3,-8 4,-15 4,-21 0,-6 0,-14 -2,-22 -1,-8 -2,-21 -2,-37 1,-38 -3,-61 -9,-71 -4,-7 -7,-13 -10,-16 -3,-3 -5,-5 -4,-7 0,-1 1,-4 5,-10 4,-5 9,-11 14,-16 5,-6 11,-11 18,-16 6,-5 11,-9 15,-9 3,-1 6,-1 10,-2 2,0 4,-1 7,-2 2,0 5,1 10,5 5,3 10,8 14,13 5,5 9,10 12,15 3,5 5,9 5,10 -1,6 -3,11 -4,16 0,4 0,7 0,11 0,11 0,20 -1,26 0,6 -1,11 -1,15 -1,5 -3,8 -4,12 -1,3 -3,8 -5,13 -2,1 -3,7 -6,15 -2,9 -5,18 -7,28 -3,9 -5,18 -7,26 -1,8 -2,11 -2,11 0,3 1,6 3,9 3,4 9,4 16,3 6,-1 13,0 19,-1 6,0 22,-19 48,-56 2,0 3,2 3,6 0,4 0,9 -1,13 -1,4 -1,9 -1,13 0,6 0,12 0,18 0,4 -2,8 -7,14 -5,6 -11,12 -17,17 -7,6 -14,11 -21,15 -7,4 -12,7 -17,8 -7,1 -12,1 -17,-1 -5,-2 -16,-8 -32,-16z"/>
   <path class="fil0" d="M6441 8154c-4,8 -9,17 -16,28 -6,10 -13,20 -20,30 -8,10 -15,19 -23,26 -8,7 -16,11 -24,11 -9,1 -18,2 -28,2 -4,1 -8,2 -13,3 -9,2 -18,0 -26,-5 -8,-6 -15,-14 -20,-24 -6,-10 -10,-21 -13,-35 -3,-13 -4,-26 -4,-39 0,-10 1,-22 2,-37 1,-14 3,-30 4,-45 2,-16 4,-32 7,-46 3,-15 5,-27 8,-37 3,-10 6,-19 9,-30 2,-10 5,-19 7,-26 3,-8 5,-14 8,-19 3,-4 6,-7 9,-6 3,-1 6,-1 9,-2 2,-1 5,-1 7,-2 3,1 6,1 10,2 0,0 2,-1 7,-4 4,-2 10,-4 14,-5 4,-1 8,-1 13,-2 5,-1 9,-4 13,-9 4,-5 10,-7 19,-9 11,-2 23,-2 36,-1 6,1 12,5 18,13 6,7 10,16 14,26 4,10 8,20 10,31 2,11 3,21 3,29 -1,18 -6,47 -16,89 -3,15 -5,30 -7,42 -1,13 5,19 19,19 5,0 12,0 18,0 4,0 7,-2 9,-6 2,-5 4,-10 7,-15 2,-5 5,-10 9,-15 4,-5 9,-8 15,-9 3,1 5,5 5,12 -1,4 -1,9 -1,13 -2,19 -8,33 -20,43 -11,10 -24,16 -38,19 -9,2 -23,-2 -40,-10zm-29 -20c-3,-2 -7,-8 -11,-19 -4,-10 -9,-23 -13,-37 -3,-14 -7,-29 -10,-43 -3,-15 -5,-27 -5,-37 0,-8 1,-16 3,-24 2,-8 3,-15 3,-21 0,-10 -1,-15 -6,-14 -7,2 -12,11 -16,28 -4,18 -8,38 -10,59 -3,22 -5,43 -6,63 -1,20 -1,33 -1,39 0,20 2,36 7,50 5,14 12,20 20,19 13,-3 21,-9 25,-21 5,-11 11,-25 20,-42zm15 -58c3,-8 5,-14 6,-18 2,-4 3,-7 4,-9 0,-3 1,-6 1,-10 0,-4 0,-9 0,-17 0,-5 0,-10 0,-16 0,-9 -2,-20 -5,-35 -3,-14 -6,-23 -10,-28 -2,10 -4,20 -4,32 0,1 0,7 0,16 0,9 0,22 1,39 2,20 4,35 7,46zm301 30c-4,8 -10,17 -16,27 -7,11 -13,21 -21,31 -7,9 -15,17 -23,24 -8,7 -16,11 -23,11 -9,0 -19,1 -28,1 -5,1 -9,1 -13,2 -10,2 -19,0 -27,-6 -8,-6 -14,-14 -20,-24 -5,-10 -10,-22 -13,-35 -2,-13 -4,-27 -4,-40 0,-9 1,-21 2,-36 1,-15 2,-30 4,-45 2,-16 4,-31 7,-46 2,-14 5,-26 8,-36 3,-9 6,-19 9,-29 2,-10 4,-19 7,-27 2,-7 5,-13 8,-18 2,-5 6,-7 9,-6 3,-1 6,-1 9,-2 2,0 4,-1 7,-2 3,1 6,2 9,3 0,0 3,-1 8,-4 4,-2 9,-4 14,-5 4,0 8,-1 13,-2 5,0 9,-3 13,-8 4,-4 10,-7 19,-9 11,-1 23,-1 36,1 6,0 12,4 18,12 6,7 10,16 14,27 4,10 7,20 10,31 2,11 2,21 2,29 0,18 -5,48 -15,89 -3,15 -5,29 -6,42 -2,12 4,18 18,19 6,0 12,0 19,0 3,0 6,-2 8,-6 2,-4 4,-9 6,-14 2,-5 6,-10 10,-15 3,-5 9,-8 15,-9 3,1 5,5 5,12 -1,5 -1,9 -1,13 -2,19 -8,33 -19,43 -11,9 -24,16 -38,18 -10,1 -24,-2 -40,-11zm-30 -21c-3,-2 -7,-8 -11,-19 -4,-10 -8,-23 -13,-37 -4,-14 -7,-29 -10,-44 -3,-14 -5,-27 -5,-36 0,-8 1,-16 3,-24 2,-8 3,-15 3,-22 0,-9 -2,-14 -6,-13 -7,1 -12,10 -17,28 -4,17 -7,37 -9,58 -3,22 -5,43 -6,63 0,20 -1,32 -1,38 0,20 3,37 8,51 4,13 11,20 19,18 13,-2 21,-8 26,-19 4,-11 11,-25 19,-42zm14 -57c3,-8 6,-14 7,-18 2,-3 3,-6 4,-9 0,-3 1,-6 1,-10 0,-3 0,-9 0,-17 0,-5 0,-10 0,-15 0,-9 -1,-21 -5,-35 -3,-14 -7,-24 -10,-29 -3,10 -4,20 -4,32 0,1 0,7 0,16 0,9 0,22 1,39 1,20 4,35 6,46zm214 -124c-4,29 -7,53 -10,72 -2,19 -3,32 -3,41 -1,19 2,35 8,47 6,13 13,18 21,17 5,0 12,-6 22,-16 9,-11 18,-22 27,-32 9,-11 17,-20 24,-27 6,-8 10,-8 10,-2 0,2 -1,4 -1,5 0,5 0,10 0,16 -1,3 -1,7 -1,11 0,5 1,10 1,16 1,2 -5,8 -15,20 -7,7 -11,15 -17,23 -4,6 -10,13 -17,20 -7,7 -15,13 -23,19 -9,6 -17,11 -25,15 -7,5 -14,7 -20,8 -10,1 -21,0 -31,-4 -10,-4 -19,-10 -27,-17 -8,-7 -15,-15 -20,-24 -4,-8 -6,-17 -6,-26 0,-10 0,-21 1,-35 0,-13 0,-26 1,-40 1,-14 2,-28 3,-41 2,-13 4,-23 7,-32 3,-10 5,-19 5,-26 0,-4 -2,-7 -6,-9 -4,-2 -6,-6 -6,-13 0,-2 1,-6 3,-11 2,-4 3,-7 3,-9 0,-4 -1,-8 -3,-13 -1,-4 -2,-9 -2,-15 0,-8 1,-13 4,-15 2,-2 5,-4 8,-5 3,-1 6,-3 8,-6 3,-3 5,-10 7,-19 3,-15 6,-30 8,-45 2,-16 4,-29 4,-38 1,-9 1,-14 1,-15 0,-3 -2,-5 -5,-6 -4,-1 -5,-3 -5,-6 0,-2 2,-7 8,-12 5,-6 11,-12 18,-18 6,-6 12,-11 18,-16 6,-4 10,-7 11,-7 1,0 2,1 4,1 -2,0 1,0 6,0 6,1 13,2 21,4 8,2 15,5 22,8 7,3 10,8 10,13 0,-1 -3,4 -7,15 -4,11 -9,24 -14,39 -5,16 -8,32 -13,49 -4,17 -6,32 -6,44 0,1 1,2 3,3 2,0 10,-1 21,-1 11,0 18,4 22,12 4,8 6,14 5,17 0,1 -2,3 -6,8 -5,5 -8,9 -8,12 0,5 3,9 8,12 5,4 8,8 8,12 0,10 -4,15 -11,16 -3,1 -8,1 -13,0 -5,-1 -10,-2 -13,-1 -2,0 -6,1 -11,2 -4,2 -10,3 -16,5zm256 130c-2,3 -6,10 -12,21 -5,10 -12,21 -19,32 -8,11 -16,21 -26,31 -9,9 -18,14 -28,15 -23,4 -42,-5 -55,-26 -13,-21 -19,-46 -19,-75 0,-17 2,-38 6,-62 4,-25 9,-52 15,-83 2,-8 7,-23 15,-44 8,-20 19,-39 32,-56 14,-17 29,-29 48,-36 17,-6 37,-1 59,18 3,3 6,4 8,3 2,0 7,0 16,0 10,0 19,1 29,2 11,2 19,5 28,9 8,4 12,10 12,18 0,1 -1,4 -4,9 -2,4 -3,7 -3,8 -1,6 -1,11 -1,16 0,12 -4,29 -12,52 -8,24 -12,48 -12,74 -1,12 1,24 6,36 4,12 10,18 17,17 6,-1 12,-5 19,-14 7,-8 14,-17 20,-27 7,-9 12,-18 16,-26 5,-8 7,-12 8,-12 2,0 3,1 3,5 0,2 0,5 -1,10 -1,4 -1,8 -1,12 0,3 0,6 1,10 0,4 0,6 0,7 -1,3 -2,9 -7,19 -5,10 -12,21 -21,33 -10,11 -21,21 -34,31 -12,9 -27,16 -43,17 -8,1 -18,-3 -30,-8 -11,-6 -21,-18 -30,-36zm-12 -234c-2,0 -7,7 -13,21 -7,14 -13,31 -20,51 -8,20 -14,42 -19,67 -6,24 -9,46 -9,66 0,11 1,23 4,35 3,13 8,19 15,18 0,0 2,-3 7,-10 5,-7 11,-16 16,-26 6,-10 11,-21 16,-33 5,-12 7,-23 7,-34 1,-3 3,-7 4,-10 0,-6 1,-12 1,-17 1,-9 3,-21 7,-36 4,-15 7,-30 9,-44 2,-14 1,-26 -2,-36 -2,-9 -10,-14 -23,-12zm339 185c-2,5 -6,12 -12,22 -5,10 -11,20 -18,30 -7,10 -15,18 -23,26 -8,8 -17,13 -25,14 -9,1 -19,0 -30,-3 -10,-3 -20,-8 -28,-16 -9,-7 -15,-17 -21,-30 -5,-12 -8,-28 -8,-46 0,-5 0,-9 0,-14 1,-4 2,-9 2,-14 2,-12 3,-21 3,-29 0,-7 0,-11 0,-13 0,-15 0,-30 0,-45 0,-6 2,-21 5,-46 3,-25 6,-51 9,-80 4,-28 7,-54 11,-78 3,-24 5,-37 6,-41 0,-1 1,-5 1,-12 0,-2 -1,-7 -3,-16 -2,-7 -3,-16 -3,-24 0,-3 1,-6 3,-12 2,-5 6,-11 11,-17 4,-6 11,-12 20,-17 9,-5 20,-8 33,-10 2,0 6,0 11,2 5,1 10,2 15,5 5,2 9,4 13,7 3,3 4,6 3,9 -1,5 -1,9 -1,13 0,1 1,3 3,5 2,2 3,4 2,4 0,2 -1,4 -1,6 0,2 1,5 1,7 0,1 -3,5 -9,12 -1,1 -4,7 -6,19 -2,12 -4,29 -8,49 -3,21 -7,45 -12,74 -6,28 -11,59 -18,93 -2,13 -4,24 -6,32 -2,7 -3,12 -3,14 0,4 0,11 1,22 0,11 0,22 0,34 1,13 2,24 2,34 1,10 2,17 2,21 4,19 11,27 24,26 2,0 5,-3 8,-8 4,-5 8,-11 11,-18 4,-7 7,-14 9,-22 3,-8 4,-15 4,-21 0,-6 -1,-14 -2,-22 -1,-8 -2,-21 -2,-37 0,-38 -3,-62 -9,-73 -5,-7 -8,-13 -11,-16 -3,-4 -4,-6 -4,-8 0,-1 2,-4 6,-9 4,-5 8,-10 14,-15 5,-6 11,-10 17,-15 6,-4 11,-7 15,-8 3,0 7,0 10,0 2,0 4,-1 7,-2 2,0 6,2 11,6 5,4 10,8 14,14 4,6 8,11 11,17 4,5 6,9 6,10 -1,6 -3,11 -4,16 0,4 0,7 0,10 -1,12 -1,20 -1,27 -1,6 -1,11 -2,15 -1,4 -2,8 -4,11 -1,3 -3,8 -5,13 -1,1 -3,6 -5,15 -3,8 -5,18 -7,27 -3,9 -5,18 -7,26 -2,7 -3,11 -3,10 0,4 2,7 5,10 3,4 8,4 15,4 6,0 12,1 19,1 6,0 22,-17 48,-52 2,0 3,2 3,6 0,4 0,9 -1,13 0,4 0,9 -1,13 0,6 0,12 0,18 0,4 -3,8 -7,14 -5,5 -11,10 -18,15 -7,6 -13,10 -20,14 -7,3 -12,6 -17,6 -7,1 -12,0 -17,-2 -5,-3 -16,-10 -32,-20zm300 -23c-4,8 -9,17 -15,27 -7,11 -14,20 -21,30 -7,9 -15,17 -23,24 -8,7 -16,10 -23,10 -10,0 -19,0 -28,0 -5,0 -9,1 -14,1 -9,2 -18,-1 -26,-7 -8,-7 -15,-15 -20,-25 -6,-11 -10,-23 -13,-36 -3,-14 -4,-28 -4,-41 0,-9 1,-22 2,-36 1,-15 2,-30 4,-46 2,-16 4,-31 7,-46 2,-14 5,-26 8,-36 3,-9 6,-19 8,-29 3,-10 5,-19 8,-26 2,-8 5,-14 8,-19 2,-4 5,-6 9,-5 2,-1 5,-1 8,-2 3,0 5,-1 8,-1 3,1 6,2 9,3 0,0 3,-2 7,-4 5,-2 10,-4 15,-4 4,-1 8,-1 12,-2 5,0 9,-3 13,-8 4,-4 11,-7 19,-8 11,-2 23,-1 35,1 7,1 13,6 19,13 5,8 11,17 14,28 4,10 8,21 10,32 2,12 3,21 3,29 0,19 -5,49 -15,90 -4,16 -5,30 -7,42 -1,13 5,20 19,21 6,0 12,0 18,1 3,0 6,-2 8,-6 3,-5 5,-9 7,-15 3,-5 5,-10 9,-15 4,-4 9,-7 16,-8 3,2 4,6 4,13 0,4 0,8 -1,13 -1,19 -7,33 -18,43 -12,9 -24,15 -39,16 -10,1 -23,-3 -40,-12zm-29 -22c-3,-2 -7,-9 -11,-20 -4,-11 -9,-24 -13,-38 -4,-15 -8,-30 -11,-45 -3,-15 -4,-27 -4,-37 0,-8 1,-16 3,-24 2,-8 2,-15 2,-22 0,-10 -2,-14 -6,-13 -6,0 -13,9 -16,27 -4,17 -7,37 -10,59 -2,22 -4,43 -5,63 -1,20 -1,33 -1,39 0,20 2,37 7,51 5,14 12,21 20,20 12,-1 21,-8 25,-19 5,-11 11,-25 20,-41zm14 -58c3,-8 6,-14 7,-17 1,-4 2,-7 3,-10 1,-3 1,-6 1,-9 0,-4 0,-10 0,-18 0,-5 0,-10 0,-16 1,-9 -1,-21 -4,-35 -3,-15 -7,-25 -11,-30 -2,10 -3,21 -3,32 0,2 0,7 0,17 0,9 0,22 1,39 1,21 3,36 6,47zm302 45c-5,8 -10,17 -16,28 -6,10 -13,20 -21,29 -7,10 -15,18 -23,25 -8,7 -15,10 -23,10 -10,-1 -19,0 -28,0 -5,0 -9,1 -13,1 -10,1 -19,-1 -27,-8 -8,-6 -15,-14 -20,-25 -5,-10 -9,-23 -12,-36 -3,-14 -5,-28 -5,-41 0,-10 1,-22 2,-37 1,-15 2,-30 4,-46 2,-16 4,-31 7,-46 2,-14 5,-27 8,-36 3,-10 6,-20 8,-30 3,-10 5,-19 8,-26 2,-8 4,-14 7,-19 3,-5 6,-6 9,-6 3,0 6,0 9,-1 2,0 5,-1 7,-2 3,1 7,2 10,3 0,0 2,-1 7,-3 5,-3 10,-4 15,-5 4,0 8,-1 13,-1 4,-1 9,-4 13,-8 4,-5 10,-8 18,-9 11,-1 23,-1 36,1 6,1 13,6 18,14 6,8 11,17 15,27 4,11 7,22 9,33 2,12 3,21 3,29 0,19 -5,50 -15,91 -3,16 -5,30 -7,43 -1,13 5,20 19,20 6,1 12,1 18,2 3,0 6,-2 8,-7 3,-4 5,-9 7,-14 3,-5 6,-10 10,-15 3,-5 9,-8 15,-9 3,2 5,6 4,13 0,4 0,9 -1,13 -1,20 -8,34 -18,43 -11,10 -24,16 -38,17 -10,2 -23,-3 -40,-12zm-30 -22c-3,-2 -7,-9 -11,-20 -4,-11 -9,-24 -13,-39 -4,-15 -7,-30 -10,-45 -4,-15 -5,-28 -5,-38 0,-8 1,-16 3,-24 2,-8 3,-15 3,-22 0,-9 -2,-14 -6,-14 -7,1 -13,11 -17,28 -4,18 -7,38 -9,59 -3,23 -5,44 -6,64 -1,21 -1,34 -1,40 0,20 3,37 8,51 5,15 11,22 20,21 12,-2 20,-8 25,-20 4,-11 11,-25 19,-41zm15 -59c3,-8 5,-14 6,-17 2,-4 3,-7 3,-10 1,-3 1,-6 1,-10 0,-4 1,-9 1,-17 0,-6 -1,-11 -1,-16 1,-9 -1,-22 -4,-36 -3,-15 -7,-25 -10,-30 -3,10 -4,21 -4,33 0,1 0,7 0,16 -1,9 0,23 1,40 2,21 4,37 7,47zm172 41c2,0 9,0 19,0 8,-2 16,-5 24,-7 3,-1 6,0 10,3 5,4 9,7 14,12 4,4 8,9 11,14 3,4 5,8 5,11 0,2 -1,8 -3,16 -2,9 -6,18 -11,28 -5,10 -11,20 -18,28 -7,8 -17,13 -27,14 -24,3 -39,-1 -48,-12 -8,-10 -12,-22 -12,-36 0,-3 1,-9 3,-16 2,-8 4,-16 7,-23 3,-8 7,-15 12,-21 4,-7 9,-10 14,-11z"/>
   <path class="fil0" d="M8443 7698c-2,5 -5,17 -9,37 -4,20 -9,41 -15,63 -6,22 -13,42 -19,60 -7,17 -15,27 -22,28 -3,0 -4,-2 -4,-6 0,-2 1,-5 1,-9 1,-5 1,-9 1,-13 0,-10 1,-19 1,-29 0,-6 2,-14 4,-23 1,-6 3,-14 5,-25 2,-11 3,-21 5,-32 1,-10 2,-19 3,-26 1,-7 2,-9 2,-8 0,-1 -1,-4 -3,-8 -2,-5 -4,-9 -5,-14 -2,-5 -4,-10 -5,-15 -2,-5 -3,-8 -3,-10 1,-17 2,-34 4,-52 1,-11 2,-22 3,-33 -1,-3 -2,-6 -1,-9 0,-1 0,-3 1,-4 1,-1 4,-3 9,-7 3,-3 6,-7 10,-11 5,-4 9,-7 13,-9 5,-3 6,-4 5,-3 12,-2 20,-1 25,4 5,4 7,10 7,16 0,5 -1,10 -4,16 -3,6 -4,18 -4,35 0,2 0,5 0,7 0,3 3,4 8,3 9,-2 19,-5 29,-12 10,-6 18,-12 23,-20 4,-6 7,-9 10,-10 4,-1 8,0 12,1 5,2 11,4 17,7 7,2 14,5 24,6 7,1 10,6 11,14 0,7 -1,17 -3,27 -3,11 -7,22 -11,33 -4,11 -7,21 -9,29 0,4 0,8 0,12 0,15 -2,31 -6,49 -4,17 -6,33 -6,48 0,20 1,33 6,39 4,5 13,7 29,7 3,0 6,0 8,0 3,0 6,-3 9,-9 4,-6 8,-13 12,-20 4,-7 7,-14 11,-20 4,-6 7,-9 9,-10 2,0 3,3 3,9 0,7 1,14 1,20 0,15 -1,24 -2,27 -1,4 -4,9 -9,15 -14,20 -30,37 -47,53 -17,15 -29,23 -36,24 -15,2 -29,0 -43,-8 -12,-8 -22,-17 -29,-28 -8,-14 -12,-27 -12,-38 0,-22 2,-40 3,-53 1,-12 2,-25 5,-39 4,-19 7,-38 11,-58 1,-4 2,-8 3,-11 0,-3 1,-5 1,-5 0,-3 -1,-5 -4,-9 -3,-3 -5,-4 -8,-4 -2,1 -5,2 -9,5 -5,3 -10,5 -16,6zm351 124c-21,43 -38,70 -50,83 -6,7 -13,13 -22,18 -9,6 -16,9 -22,9 -6,1 -13,0 -21,-4 -8,-3 -16,-9 -23,-18 -6,-8 -12,-19 -17,-31 -4,-13 -6,-28 -6,-46 0,-22 0,-41 2,-57 1,-16 3,-29 5,-39 2,-11 3,-17 3,-17 0,-14 0,-28 0,-41 0,-8 2,-15 6,-22 3,-8 5,-13 5,-16 -2,-5 -3,-11 -5,-16 0,-5 1,-11 1,-16 0,-11 0,-21 1,-32 0,-5 3,-11 9,-19 7,-8 13,-12 18,-13 2,0 4,0 7,0 4,1 7,1 9,0 6,-1 13,-5 21,-13 3,1 6,2 10,3 1,1 3,1 4,1 7,0 12,2 15,6 3,5 5,9 6,13 2,4 2,8 2,10 0,3 0,3 0,0 0,3 0,7 -3,12 -2,5 -3,9 -3,11 0,4 0,8 0,11 0,-1 -1,4 -4,14 -3,10 -6,24 -10,42 -3,18 -6,39 -10,64 -3,24 -5,49 -5,77 0,13 2,26 4,38 3,13 8,18 15,17 7,-1 13,-7 19,-20 5,-12 10,-27 15,-44 5,-18 9,-37 12,-58 3,-21 6,-40 8,-57 2,-18 4,-33 5,-45 1,-12 2,-19 2,-20 0,0 -1,-2 -1,-6 -1,-3 -1,-5 -2,-5 0,-3 1,-7 1,-11 0,-2 -1,-5 -2,-7 -2,-2 -3,-3 -3,-5 0,-5 2,-11 6,-17 3,-7 6,-10 9,-11 3,0 6,0 10,0 6,0 13,0 21,0 7,0 13,0 16,-1 0,0 2,-1 7,-2 5,-2 10,-3 14,-4 5,-1 7,0 7,3 0,5 -1,9 -1,14 0,0 2,3 6,8 4,5 6,10 6,14 0,2 -3,7 -8,14 1,-1 0,4 -2,14 -1,10 -3,22 -6,36 -2,14 -4,29 -7,44 -3,16 -4,28 -5,37 -1,14 -2,27 -3,41 0,11 3,22 10,32 6,11 13,16 19,15 13,-2 29,-24 47,-66 3,-7 4,-10 6,-10 4,-1 6,2 6,11 -1,8 -1,24 -1,47 0,2 -3,7 -9,16 -6,8 -12,18 -21,29 -8,10 -18,20 -29,29 -11,9 -21,14 -32,16 -15,2 -27,-1 -37,-11 -10,-9 -18,-25 -25,-49z"/>
  </g>
 </g>
</svg>
