<?xml version="1.0" encoding="UTF-8"?>
<!DOCTYPE svg PUBLIC "-//W3C//DTD SVG 1.1//EN" "http://www.w3.org/Graphics/SVG/1.1/DTD/svg11.dtd">
<!-- Creator: CorelDRAW X7 -->
<svg xmlns="http://www.w3.org/2000/svg" xml:space="preserve" width="16.5354in" height="11.6929in" version="1.1" style="shape-rendering:geometricPrecision; text-rendering:geometricPrecision; image-rendering:optimizeQuality; fill-rule:evenodd; clip-rule:evenodd"
viewBox="0 0 16535 11693"
 xmlns:xlink="http://www.w3.org/1999/xlink">
 <defs>
  <style type="text/css">
   <![CDATA[
    .fil0 {fill:#93CDC5;fill-rule:nonzero}
    .fil1 {fill:white;fill-rule:nonzero}
   ]]>
  </style>
 </defs>
 <g id="Слой_x0020_1">
  <metadata id="CorelCorpID_0Corel-Layer"/>
  <path class="fil0" d="M5636 6374c25,-59 71,-100 135,-123 65,-22 131,-28 197,-18 67,11 121,39 163,83 43,44 54,107 34,187 -14,54 -39,120 -76,197 -37,77 -77,157 -121,239 -43,81 -86,162 -129,242 -42,80 -76,150 -101,211 -26,60 -38,106 -36,137 1,30 23,40 65,28 65,-20 128,-62 189,-124 60,-63 118,-136 171,-218 54,-83 102,-168 144,-256 35,-72 64,-138 87,-196 10,-100 26,-206 49,-317 36,-183 85,-375 146,-576 60,-201 127,-400 199,-597 72,-196 145,-386 218,-569 63,-155 121,-298 177,-427 -591,230 -1492,408 -2672,309 -3094,-533 -3477,1331 -2370,1656 367,107 988,-107 1607,-429 116,-60 256,-120 377,-152 784,-396 710,-232 226,929 -82,195 -219,384 -340,597 -120,214 -234,424 -340,629 -107,205 -197,395 -271,571 -74,176 -115,318 -123,425 -6,65 -30,115 -72,148 -42,34 -86,49 -131,47 -45,-2 -85,-23 -119,-62 -34,-38 -48,-95 -42,-170 17,-196 51,-406 102,-630 51,-223 109,-449 176,-675 67,-227 139,-448 216,-665 43,-123 86,-240 127,-351 -3030,1028 -2876,-1808 -1303,-2378 501,-181 1172,-217 2012,-107 983,142 2155,385 3062,-252 135,-94 257,-183 258,-183 46,-17 97,-22 152,-13 55,10 112,29 170,58 20,11 40,22 58,35 26,8 43,21 52,38 15,13 29,26 42,40 44,45 77,95 100,148 22,52 26,106 12,160 -11,42 -48,123 -112,245 -63,121 -141,267 -233,436 -92,170 -192,356 -300,558 -109,202 -213,404 -312,606 -99,202 -187,397 -264,583 -78,187 -133,349 -166,486 -32,137 -36,242 -10,315 25,74 93,98 203,74 76,-17 153,-69 231,-159 78,-89 153,-196 226,-323 -73,-51 -124,-121 -154,-209 -30,-88 -42,-184 -36,-286 6,-103 27,-210 63,-319 37,-110 87,-213 149,-310 62,-97 135,-183 220,-258 85,-76 176,-130 275,-163 11,-5 22,-9 32,-13 10,-4 22,-7 36,-10 34,-7 74,-13 121,-16 46,-3 93,0 139,10 47,9 91,28 132,57 41,30 71,73 91,131 19,58 27,131 23,221 -4,90 -29,202 -74,336 -31,92 -75,194 -131,307 -57,112 -123,226 -199,342 98,-30 187,-79 266,-146 79,-66 143,-143 191,-230 6,-10 12,-20 18,-29 33,-110 77,-222 130,-336 79,-169 179,-333 301,-494 121,-161 258,-299 411,-414 65,-54 141,-98 228,-131 31,-10 58,-18 81,-24 22,-7 45,-11 68,-13 152,-33 278,-39 379,-18 100,22 178,65 235,129 56,63 91,144 105,241 15,97 11,203 -10,318 -21,115 -59,236 -112,363 -54,128 -120,253 -199,374 107,-46 193,-105 258,-177 59,-65 108,-139 149,-220 34,-125 82,-253 143,-382 79,-169 179,-333 301,-494 121,-161 258,-299 411,-414 65,-54 141,-98 228,-131 31,-10 58,-18 81,-24 22,-7 45,-11 67,-13 153,-34 279,-40 380,-18 100,22 178,65 235,128 56,64 91,145 105,242 15,97 11,203 -10,318 -21,114 -59,236 -112,363 -54,128 -120,252 -199,374 259,-111 503,-451 765,-648 2029,-1522 3652,1427 1384,2248 -449,163 -1052,195 -1806,97 -1228,-177 -2463,-234 -2882,-58 -329,138 -2,786 -234,526 -490,-550 148,-907 1045,-1001 1004,-105 3116,265 3850,-208 1001,-646 423,-1457 -485,-1463 -804,-6 -960,394 -1527,708 -102,56 -218,95 -348,118 -138,158 -292,293 -463,405 -171,112 -351,184 -540,214 -136,21 -240,-1 -312,-67 -72,-66 -116,-160 -133,-282 -4,-32 -7,-65 -8,-99 -68,57 -146,110 -233,159 -102,56 -218,95 -348,118 -138,158 -292,293 -463,405 -171,113 -351,184 -540,214 -136,22 -240,-1 -312,-67 -72,-66 -116,-160 -133,-282 -5,-38 -8,-79 -8,-122 -6,5 -12,9 -17,14 -82,61 -173,113 -273,155 -101,42 -209,66 -324,71 -127,158 -265,297 -413,417 -149,120 -296,197 -443,229 -161,35 -289,30 -383,-15 -95,-46 -163,-121 -206,-226 -9,-23 -17,-47 -24,-72 -26,43 -54,85 -84,127 -77,111 -166,210 -266,298 -101,89 -210,146 -329,172 -121,27 -205,2 -252,-74 -46,-76 -69,-177 -69,-304 -79,141 -172,266 -278,374 -106,108 -225,171 -358,189 -144,20 -257,0 -338,-61 -82,-61 -137,-148 -163,-260 -27,-113 -27,-244 0,-394 26,-150 77,-304 152,-462 75,-157 172,-311 292,-462 120,-151 261,-282 422,-393 161,-112 340,-198 540,-259 199,-61 414,-80 645,-57 54,5 94,24 121,56 27,32 38,66 34,100 -4,35 -25,67 -64,95 -38,28 -95,42 -171,42 -130,-3 -254,20 -373,69 -118,49 -229,114 -332,196 -103,82 -197,176 -282,282 -85,106 -159,215 -224,325 -65,110 -117,218 -157,322 -40,105 -66,199 -78,282 -13,83 -12,150 4,200 15,51 49,74 99,72 60,-2 118,-32 174,-89 57,-58 112,-131 165,-219 54,-88 104,-186 151,-293 46,-108 88,-211 124,-309 26,-96 52,-185 79,-268 27,-82 51,-146 74,-194zm3857 -2021c0,0 -458,25 -1106,75 -102,-230 -73,-494 178,-581 -312,-141 -349,-341 -227,-570 840,99 2108,-18 3563,-591 70,8 147,364 82,571 -3,11 -56,138 -60,148 1576,-302 3085,-190 3463,1673 -763,-1346 -2688,-1026 -3976,-791 -696,223 -1353,317 -1971,281l54 -215zm1359 1363c4,28 -3,64 -20,108 -9,26 -21,52 -35,80 -15,60 -25,116 -30,170 -13,117 -2,209 33,278 36,68 100,92 193,72 82,-18 162,-59 239,-123 78,-63 151,-142 218,-236 -146,-67 -250,-176 -311,-328 -61,-151 -82,-314 -65,-487 -85,137 -154,280 -208,427 -5,13 -9,26 -14,39zm742 114c74,-138 135,-279 183,-425 48,-147 77,-278 88,-395 12,-117 2,-208 -29,-275 -31,-67 -88,-88 -170,-64 -62,22 -115,61 -160,118 -46,56 -82,122 -111,198 -28,75 -47,155 -57,241 -10,85 -7,168 9,248 15,80 43,151 82,215 40,63 95,109 165,139zm-2777 330c2,4 4,8 6,13 12,34 3,81 -28,142 -12,22 -27,46 -43,70 -10,47 -18,93 -22,137 -13,117 -2,210 33,278 36,69 100,92 193,72 82,-18 162,-59 239,-123 78,-63 151,-142 218,-236 -146,-66 -250,-176 -311,-327 -60,-152 -82,-315 -65,-488 -85,137 -154,280 -208,427 -4,12 -8,23 -12,35zm740 118c74,-137 135,-279 183,-425 48,-146 77,-278 88,-395 12,-117 2,-208 -29,-275 -31,-66 -88,-88 -170,-64 -62,22 -115,61 -160,118 -46,56 -82,122 -111,198 -28,75 -47,155 -57,241 -10,85 -7,168 9,248 15,80 43,151 82,215 40,63 95,109 165,139zm-1804 -649l-4 1c-34,7 -72,45 -114,114 -43,69 -79,149 -108,242 -30,92 -47,189 -53,289 -6,100 13,183 55,250 51,-112 96,-223 135,-332 40,-109 70,-206 92,-291 21,-85 32,-154 33,-205 2,-51 -10,-74 -36,-68z"/>
  <path class="fil1" d="M8848 3726c-16,34 -30,57 -40,69 -5,6 -12,11 -21,18 -8,6 -15,9 -20,10 -11,1 -21,-1 -31,-8 -9,-6 -18,-14 -25,-23 -6,-10 -12,-19 -16,-29 -3,-11 -5,-19 -5,-26 0,-53 7,-110 19,-172 0,-1 1,-4 1,-8 0,-1 -1,-6 -5,-15 0,-2 0,-3 0,-5 1,-5 2,-11 3,-16 0,-1 0,-3 -1,-6 -1,-3 -2,-6 -2,-8 0,-7 1,-10 4,-9 6,-1 12,-1 18,-1 12,-9 21,-14 29,-15 5,-1 11,1 17,4 7,3 12,7 18,12 5,4 9,9 13,13 4,5 6,8 6,10 0,0 -1,1 -2,4 -2,3 -4,7 -5,11 -1,5 -3,9 -5,14 -1,5 -2,9 -2,12 0,5 -2,15 -6,29 -3,14 -6,28 -6,43 -1,12 -2,23 -3,31 -1,8 -3,15 -4,21 -1,6 -3,11 -3,16 -1,5 -2,11 -2,18 0,2 0,4 1,8 1,4 4,7 5,11 2,4 4,7 6,10 3,3 5,4 7,4 7,-1 13,-9 19,-24 6,-15 12,-31 18,-50 5,-20 10,-39 14,-58 4,-20 7,-34 7,-44 1,-13 1,-21 1,-25 0,-4 -2,-7 -4,-11 -1,-3 -1,-5 -1,-6 0,-7 5,-14 15,-22 9,-7 20,-12 33,-13 6,0 12,2 18,7 2,1 4,1 7,1 2,2 4,4 7,6 8,4 13,8 15,11 3,2 5,6 5,12 0,2 -2,4 -5,5 -3,0 -5,3 -5,8 0,1 -1,8 -4,19 -2,12 -4,25 -6,39 -3,14 -5,28 -8,40 -2,13 -3,21 -3,24 0,6 0,12 1,20 1,7 2,14 4,20 2,6 5,11 8,15 4,5 8,6 12,6 6,-1 11,-4 16,-11 5,-6 9,-14 12,-23 4,-9 6,-19 8,-30 2,-10 3,-20 4,-29 0,-9 -1,-17 -2,-24 -2,-8 -2,-14 -2,-19 -1,1 -1,0 0,-4 1,-4 2,-8 2,-11 0,-1 0,-10 -1,-28 0,-1 1,-5 4,-13 2,-9 5,-18 8,-28 3,-10 5,-19 6,-27 2,-8 3,-11 2,-10 5,-6 13,-9 23,-8 10,0 20,7 28,20 3,5 5,9 8,13 -1,4 -2,8 -3,12 -1,11 -2,21 -3,32 -3,36 -3,73 -10,108 -3,14 -6,25 -5,34 2,9 10,14 25,13 4,0 8,-3 13,-7 5,-4 10,-8 14,-12 5,-4 8,-7 11,-8 3,-2 4,0 4,6 0,2 -1,4 -1,6 0,3 0,5 0,7 0,2 0,5 0,9 0,4 0,7 0,10 0,2 -2,5 -4,8 -3,2 -6,5 -10,7 -3,2 -5,4 -8,6 -2,1 -3,2 -3,2 -2,0 -5,0 -7,0 -4,1 -8,2 -13,3 0,0 -3,0 -8,-1 -4,-1 -8,-2 -13,-4 -4,-1 -8,-3 -13,-5 -4,-2 -7,-3 -9,-5 -4,6 -8,12 -14,19 -6,7 -14,14 -22,20 -9,7 -18,13 -29,18 -11,5 -22,9 -36,10 -16,2 -29,-1 -38,-10 -10,-9 -18,-27 -25,-53zm971 418c-4,11 -8,19 -13,26 -7,24 -15,49 -22,73 -9,32 -18,61 -25,87 -8,26 -18,52 -33,79 -1,1 -2,4 -4,7 -2,4 -3,6 -5,8 -6,8 -11,11 -17,10 -5,-2 -12,-5 -21,-11 -8,-5 -13,-10 -14,-13 -2,-4 -2,-11 0,-22 0,-5 2,-10 3,-14 3,-8 6,-14 9,-19 4,-5 9,-11 15,-18 6,-8 12,-17 20,-29 8,-11 16,-27 24,-48 4,-10 10,-25 17,-44 7,-19 14,-38 21,-57 7,-19 14,-37 20,-54 5,-16 9,-27 10,-33 5,-22 8,-36 11,-41 4,-4 11,-8 21,-11 1,0 5,-3 13,-7 7,-5 14,-8 18,-8 6,2 11,5 17,8 16,7 23,11 24,12 1,1 1,5 1,13 0,0 1,3 4,7 2,4 3,7 3,11 0,4 0,7 0,8 -6,31 -10,64 -14,100 -3,36 -4,66 -4,90 5,9 11,11 18,6 7,-5 14,-13 22,-24 7,-12 14,-25 21,-39 6,-15 12,-28 15,-40 9,-26 16,-46 21,-60 5,-14 9,-26 12,-35 3,-10 5,-18 6,-26 2,-8 2,-17 4,-29 2,-10 3,-17 5,-21 3,-4 4,-10 3,-19 0,-2 0,-4 0,-4 6,1 12,2 18,2 3,-3 8,-5 14,-7 5,-2 19,-5 41,-11 4,0 7,1 9,2 2,2 9,8 19,19 3,3 6,5 9,8 1,3 2,6 3,9 2,5 4,8 6,10 2,1 3,3 3,4 1,7 -3,15 -11,25 -1,-3 -2,3 -5,18 -3,15 -5,32 -9,52 -4,20 -7,40 -10,60 -3,19 -5,32 -4,40 0,22 3,40 10,54 7,14 16,20 28,19 4,-1 8,-4 13,-10 5,-6 10,-12 15,-19 5,-7 11,-13 16,-19 5,-6 9,-9 12,-9 4,-1 6,1 6,4 -1,4 -1,8 -1,12 -1,9 -1,16 -1,21 0,4 0,8 0,10 0,2 1,4 0,5 -1,2 -2,4 -4,7 -1,2 -5,7 -12,15 -7,9 -16,18 -26,28 -11,10 -22,18 -35,27 -12,8 -25,13 -38,15 -13,2 -24,-1 -34,-8 -10,-7 -17,-16 -24,-27 -7,-12 -12,-24 -14,-38 -3,-14 -5,-27 -5,-39 0,-7 0,-15 2,-24 1,-10 2,-19 4,-28 1,-9 2,-17 3,-24 1,-7 1,-11 2,-12 0,-1 -1,-2 -1,-5 -1,-3 -1,-7 -2,-11 -6,17 -12,31 -17,44 -5,12 -10,23 -14,34 -4,10 -8,21 -12,33 -4,11 -9,24 -14,39 -10,32 -22,56 -35,72 -14,17 -24,27 -32,31 -5,2 -12,1 -21,-1 -9,-1 -18,-5 -27,-11 -9,-7 -17,-15 -24,-26 -7,-10 -10,-24 -11,-40 0,-15 0,-30 0,-47 1,-17 1,-33 2,-47 0,-15 1,-28 1,-39 1,-11 2,-17 1,-20 0,-1 0,-3 0,-6 0,-3 0,-6 0,-10zm573 76c-3,4 -7,13 -13,24 -6,12 -14,24 -22,37 -8,13 -17,24 -28,35 -10,10 -21,17 -32,18 -27,4 -49,-6 -66,-29 -16,-23 -25,-51 -25,-84 0,-20 2,-44 5,-71 4,-28 9,-59 14,-93 2,-10 7,-27 15,-50 7,-23 18,-44 32,-63 13,-19 28,-33 48,-41 19,-8 43,-1 72,20 3,2 7,4 9,3 2,0 8,0 19,0 10,-1 22,0 34,2 12,2 23,5 33,9 10,4 16,11 17,20 0,1 -1,4 -4,10 -2,5 -3,8 -3,9 0,6 1,12 2,18 1,13 -3,33 -10,59 -8,26 -11,54 -11,83 0,13 4,26 9,40 5,13 12,20 21,18 6,-1 13,-6 21,-15 8,-10 15,-20 22,-31 7,-11 13,-21 18,-30 5,-9 7,-14 8,-14 3,0 4,1 4,5 0,3 0,6 0,11 -1,5 -1,10 -1,14 0,4 0,7 1,11 0,4 1,7 1,8 -1,4 -3,11 -8,22 -5,12 -13,24 -23,37 -10,13 -23,25 -37,36 -15,12 -32,20 -51,21 -10,1 -21,-3 -35,-9 -13,-6 -25,-19 -36,-40zm-29 -262c-5,1 -11,10 -17,25 -7,16 -12,35 -18,58 -6,22 -12,47 -16,74 -4,26 -7,51 -7,74 0,13 3,26 7,40 4,14 10,21 17,19 0,0 3,-3 9,-11 5,-8 11,-18 17,-29 6,-12 12,-24 18,-38 5,-13 7,-26 7,-38 1,-3 3,-8 4,-12 0,-6 0,-12 0,-19 1,-10 3,-23 7,-40 4,-17 6,-33 7,-49 0,-16 -2,-29 -6,-41 -5,-10 -14,-15 -29,-13zm434 66c-8,1 -15,4 -24,8 -7,4 -12,7 -13,7 -20,3 -33,-24 -37,-81 0,-5 -1,-10 -1,-14 -1,-5 -1,-10 -1,-13 0,-6 0,-12 -1,-16 -1,-5 -1,-9 -2,-12 0,-6 -3,-8 -9,-8 -6,1 -10,10 -13,27 -3,17 -6,36 -9,59 -3,23 -5,46 -6,71 -2,24 -2,44 -2,60 0,21 7,40 18,57 10,17 25,24 44,21 2,0 14,-5 36,-16 4,-4 8,-8 12,-12 5,-4 9,-8 14,-12 8,-10 17,-19 25,-28 6,-8 13,-16 21,-27 7,-10 11,-15 12,-15 5,-1 8,12 8,38 1,12 -3,24 -11,37 -7,12 -16,24 -26,34 -10,11 -20,19 -30,27 -10,7 -16,12 -21,15 -4,2 -11,5 -19,9 -8,5 -16,9 -24,14 -9,5 -16,9 -23,13 -7,3 -12,6 -14,6 -17,3 -32,1 -47,-4 -14,-5 -27,-13 -37,-23 -11,-11 -19,-23 -25,-36 -6,-14 -9,-27 -9,-41 -2,-37 -1,-68 0,-95 1,-27 3,-50 8,-68 1,-6 2,-15 4,-28 2,-13 4,-27 7,-41 2,-13 6,-26 10,-37 4,-11 10,-17 17,-18 9,-2 19,-7 31,-15 11,-9 33,-16 65,-21 9,-2 16,-1 23,2 6,3 13,5 21,7 2,0 3,1 5,2 5,2 8,3 11,4 3,1 6,3 8,7 3,3 5,9 7,18 3,9 5,22 7,39 2,18 5,34 8,47 3,14 5,27 6,37 1,11 -3,16 -10,15 -8,0 -12,0 -14,0zm230 -55c-2,10 -5,19 -10,26 -5,24 -11,48 -17,72 -7,33 -15,59 -24,78 -9,20 -13,40 -12,61 0,1 1,4 1,8 1,5 1,8 1,9 1,9 -1,15 -7,18 -5,2 -13,5 -23,6 -10,2 -17,2 -21,1 -3,-1 -8,-6 -14,-15 -4,1 -7,1 -11,2 -6,1 -11,-4 -15,-14 -4,-11 -7,-25 -8,-43 -1,-37 -2,-67 -2,-91 -1,-24 0,-41 0,-51 2,-21 3,-38 3,-49 0,-12 1,-18 0,-20 -2,-18 -4,-35 -7,-52 -2,-8 -2,-13 -1,-17 0,-5 1,-7 0,-8 0,-3 -1,-7 -4,-11 -3,-5 -5,-6 -5,-6 -1,-10 2,-19 10,-23 8,-6 16,-8 23,-10 2,-1 4,-2 7,-3 3,1 5,2 8,2 6,-1 12,-2 18,-4 0,0 3,1 8,2 5,1 11,3 16,5 6,2 12,5 17,8 4,4 7,8 8,11 -2,4 -5,11 -7,20 -2,10 -2,22 -1,36 1,23 1,46 1,69 0,27 -1,48 -2,65 -2,17 -3,29 -3,36 3,-10 8,-25 14,-44 5,-19 11,-38 16,-57 6,-19 11,-37 15,-53 4,-17 5,-28 6,-34 2,-23 5,-36 7,-41 2,-4 9,-9 20,-13 1,0 5,-2 12,-8 6,-5 12,-8 17,-9 6,3 11,5 17,7 17,7 25,10 25,11 1,1 2,5 3,12 0,1 1,3 4,7 3,4 5,7 5,11 1,4 1,7 1,8 -3,31 -4,60 -5,87 -1,27 -1,53 0,76 5,-11 13,-41 24,-89 7,-26 11,-47 14,-61 3,-15 6,-27 8,-36 2,-10 3,-19 3,-27 1,-7 1,-17 2,-28 1,-11 2,-18 4,-22 2,-3 2,-10 0,-19 0,-3 0,-4 0,-4 6,0 12,0 18,1 4,-4 8,-6 14,-9 5,-2 19,-7 40,-14 4,0 8,1 10,2 2,2 9,7 20,17 3,3 6,6 9,9 1,3 3,5 5,8 2,5 4,8 6,10 2,1 3,3 3,4 1,7 -1,16 -9,26 -1,-2 -1,4 -3,19 -1,15 -3,33 -4,53 -2,21 -2,41 -4,61 -1,20 -2,34 -1,41 2,23 7,41 15,55 7,14 17,20 29,18 3,0 7,-4 11,-10 5,-6 10,-13 15,-20 5,-7 10,-14 14,-20 5,-6 9,-9 12,-10 4,0 6,1 6,4 0,5 0,9 0,13 0,9 0,17 0,21 1,5 1,8 1,11 0,2 0,4 -1,5 0,2 -1,4 -3,8 -2,2 -5,6 -12,15 -6,9 -14,19 -24,29 -11,10 -22,19 -35,28 -12,9 -25,15 -38,17 -12,2 -24,-1 -34,-7 -9,-7 -18,-16 -24,-28 -7,-11 -12,-24 -15,-38 -4,-13 -6,-27 -6,-39 -1,-6 -1,-15 0,-24 0,-10 1,-19 1,-28 1,-9 1,-17 2,-24 0,-7 1,-11 1,-13 0,0 -1,-2 -1,-5 -1,-3 -2,-7 -3,-11 -7,17 -12,30 -15,39 -3,9 -6,18 -8,27 -2,8 -4,18 -6,30 -2,12 -7,29 -12,51 -5,19 -8,34 -11,45 -3,11 -5,19 -4,25 0,10 2,20 3,30 -3,4 -5,9 -7,14 0,2 0,3 0,5 0,5 -2,8 -7,8 6,0 5,-1 -4,-1 -8,0 -18,-2 -30,-5 -12,-3 -24,-8 -35,-15 -11,-8 -17,-20 -18,-36 -1,-14 -1,-31 0,-49 0,-18 1,-36 1,-52 1,-17 1,-32 1,-45 1,-13 0,-20 0,-23 0,-1 0,-3 0,-6 0,-2 -1,-5 -2,-9zm359 -224c8,-2 21,-8 37,-18 16,-10 37,-19 62,-26 10,-3 21,-6 31,-10 8,-2 18,-1 28,5 11,6 21,15 30,26 10,11 19,24 26,40 7,15 11,30 13,45 2,19 2,38 -2,58 -4,20 -11,37 -19,49 -18,25 -30,41 -36,49 -6,7 -14,11 -22,13 -3,0 -6,1 -10,4 -3,2 -6,3 -8,4 -2,0 -7,0 -16,0 -9,0 -17,1 -22,1 -6,2 -8,6 -8,14 1,19 8,35 20,48 12,12 26,17 41,15 33,-6 62,-27 89,-65 0,1 3,-5 11,-17 8,-11 16,-22 22,-33 6,-11 10,-17 11,-18 3,-1 4,0 5,4 0,3 0,6 1,9 0,9 1,18 2,27 0,2 1,4 1,7 1,2 1,5 1,9 1,9 -4,23 -14,40 -10,18 -23,35 -40,53 -17,17 -36,33 -57,47 -21,14 -43,22 -64,25 -11,2 -21,1 -31,-3 -11,-3 -23,-10 -35,-18 -21,-14 -35,-28 -44,-42 -9,-14 -14,-35 -16,-62 -1,-22 -2,-41 -3,-58 0,-17 0,-34 0,-50 0,-16 1,-33 2,-52 2,-18 4,-39 6,-62 1,-11 2,-22 3,-31 2,-10 3,-19 5,-27zm112 -3c-3,0 -6,-1 -8,-2 -3,-1 -7,8 -9,27 -3,19 -6,41 -8,65 -2,24 -4,46 -5,68 -2,21 -3,33 -2,37 0,2 3,5 10,7 7,2 12,3 17,2 9,-2 17,-9 22,-22 5,-12 8,-27 10,-43 2,-16 3,-32 3,-47 0,-16 -1,-27 -1,-34 -3,-14 -6,-29 -12,-43 -2,-6 -4,-9 -6,-10 -1,-2 -5,-3 -11,-5zm253 9c2,-8 5,-17 8,-26 3,-10 7,-18 13,-27 6,-8 14,-15 25,-22 10,-6 24,-10 40,-13 11,-2 18,0 23,5 5,6 15,11 33,17 21,32 35,79 43,141 2,18 3,32 4,43 0,11 0,21 -1,31 0,10 -3,20 -6,31 -3,11 -8,26 -12,45 -2,4 -2,8 -4,13 -6,8 -13,17 -19,26 -4,5 -7,11 -11,16 -4,3 -8,7 -12,10 -2,3 -7,7 -14,14 -7,7 -11,11 -12,11 -6,0 -12,0 -19,1 0,0 -2,0 -6,2 -4,1 -7,2 -9,2 -9,1 -16,1 -21,-1 -6,-2 -10,-3 -15,-2 -1,0 -3,2 -5,4 -3,2 -3,4 -3,6 2,5 4,10 7,15 -1,11 -2,23 -3,34 2,6 3,13 4,19 1,14 1,27 2,40 1,7 2,14 4,22 2,7 3,14 3,21 1,3 3,9 7,18 3,9 5,14 4,13 0,2 -2,5 -8,9 -5,5 -10,8 -15,11 -5,3 -7,4 -8,5 -9,1 -22,-1 -38,-9 -16,-7 -30,-13 -43,-17 -7,-3 -12,-7 -13,-13 -2,-6 -2,-15 -2,-26 1,-11 2,-24 2,-39 1,-15 -2,-33 -3,-54 -1,-21 2,-43 3,-65 -1,-32 -2,-63 -3,-95 -3,-47 -7,-93 -10,-140 -3,-21 -7,-42 -9,-63 -1,-19 1,-33 0,-44 0,-11 -1,-17 -1,-19 0,-4 -1,-9 -3,-16 -2,-7 -3,-12 -3,-15 0,-4 0,-8 0,-13 1,-5 0,-9 0,-12 0,-3 -3,-5 -6,-6 -3,-1 -6,-4 -6,-6 0,-2 2,-5 7,-9 5,-5 10,-9 16,-12 5,-4 11,-8 16,-11 4,-3 7,-4 7,-4 6,1 18,0 38,-4 4,-1 9,0 13,3 5,2 10,5 13,9 4,4 6,8 8,11 2,3 4,6 4,6 0,0 -1,4 -2,10 -2,7 -3,15 -5,26 -1,11 -2,23 -3,36 0,13 0,27 2,41 0,1 0,3 1,6 1,2 2,6 3,10zm20 256c6,2 12,3 14,5 2,1 5,3 7,4 3,-1 6,-3 10,-5 2,1 5,2 8,2 7,-1 12,-10 16,-26 3,-17 6,-38 6,-63 1,-12 0,-23 1,-35 -4,-33 -7,-67 -10,-100 -1,-8 -5,-14 -10,-20 -5,-5 -10,-8 -15,-7 -5,0 -9,5 -13,14 -5,8 -9,18 -12,29 -3,10 -5,21 -7,32 -2,11 -2,19 -2,25 2,15 4,35 4,61 0,26 1,53 3,84zm435 -218c-8,1 -16,3 -23,8 -8,4 -13,6 -14,6 -20,3 -33,-27 -41,-88 0,-6 -1,-11 -2,-17 0,-5 -1,-9 0,-14 0,-6 -1,-12 -2,-17 0,-5 -1,-9 -1,-12 -1,-7 -4,-10 -10,-9 -6,0 -10,10 -13,28 -3,18 -5,39 -7,64 -2,25 -2,50 -2,76 1,27 2,49 4,66 3,23 10,44 22,63 12,18 27,26 46,24 2,-1 14,-6 35,-16 3,-5 7,-9 11,-13 4,-4 8,-9 13,-13 7,-9 14,-19 22,-29 5,-8 11,-17 18,-28 7,-10 11,-16 12,-16 2,0 4,4 6,13 -4,-37 -7,-68 -10,-94 -4,-31 -7,-58 -10,-81 -4,-23 -7,-43 -10,-59 -4,-17 -7,-34 -10,-50 0,-4 1,-8 1,-12 1,-28 17,-47 48,-56 3,-1 6,-1 10,-1 3,-1 6,-2 10,-3 1,-1 3,0 7,0 3,0 7,0 10,0 6,-1 13,1 22,6 8,5 14,15 16,30 -3,0 -5,6 -7,18 -2,12 -3,27 -3,45 -1,18 -1,38 -1,59 0,21 2,40 4,58 2,17 5,32 8,42 4,11 9,16 13,13 30,-12 51,-33 65,-60 14,-28 23,-54 25,-79 1,-11 0,-24 -1,-38 -1,-14 -2,-27 -1,-40 0,-12 2,-22 6,-31 4,-8 12,-13 24,-13 27,0 47,10 63,28 15,19 22,40 20,63 -4,48 -15,84 -34,109 -18,25 -38,45 -59,60 8,27 17,49 27,66 9,17 24,24 43,22 5,0 9,-1 11,-2 2,0 4,-2 6,-4 3,-3 5,-6 8,-10 3,-4 7,-10 13,-19 5,-6 9,-13 14,-19 5,-8 8,-14 9,-18 1,-4 3,-5 5,-6 4,0 7,5 9,15 0,1 0,5 1,11 0,6 1,15 2,26 0,5 0,8 -1,10 -1,1 -5,7 -10,17 -14,26 -30,46 -49,61 -19,15 -38,23 -57,26 -10,1 -19,1 -25,-1 -6,-1 -17,-6 -31,-14 -14,-8 -24,-20 -31,-35 -7,-14 -13,-28 -17,-42 -5,-14 -9,-25 -12,-33 -3,-9 -8,-10 -14,-5 -3,0 -5,1 -7,2 -10,3 -13,10 -12,20 2,10 3,25 5,47 2,19 4,37 5,56 1,10 5,17 9,21 4,4 7,14 9,29 0,1 -5,6 -16,15 -10,9 -17,14 -23,14 0,0 -3,-1 -10,-3 -7,-2 -13,-4 -21,-8 -8,-4 -15,-9 -21,-15 -7,-6 -11,-12 -11,-19 -1,-2 0,-4 0,-8 0,-3 0,-6 0,-7 0,-3 -1,-9 -3,-16 -2,-7 -4,-13 -4,-19 -1,-8 -2,-15 -2,-23 -2,8 -4,15 -8,22 -7,14 -15,26 -24,36 -9,11 -18,20 -27,28 -10,7 -16,13 -20,15 -4,2 -11,5 -19,10 -8,4 -15,9 -23,14 -8,5 -15,9 -22,13 -7,4 -11,6 -13,6 -17,2 -33,0 -47,-6 -15,-6 -28,-15 -39,-26 -11,-11 -20,-25 -27,-40 -6,-15 -10,-29 -12,-45 -3,-39 -7,-74 -9,-103 -1,-29 1,-53 3,-73 1,-6 2,-16 2,-30 1,-15 4,-29 6,-44 2,-15 6,-28 10,-40 5,-12 11,-18 18,-19 9,-2 19,-7 31,-16 12,-9 33,-16 65,-20 9,-2 16,0 23,3 6,4 14,6 22,8 1,1 3,2 5,3 4,2 8,4 11,5 2,1 5,3 7,7 3,4 5,11 7,21 3,9 4,23 7,42 2,20 5,37 9,52 4,15 6,28 8,40 1,11 -2,16 -10,16 -7,-1 -12,-1 -13,-1zm-1249 -445c13,-18 26,-36 39,-54 0,-12 0,-21 -2,-29 -1,-7 -2,-14 -4,-19 -2,-6 -4,-11 -6,-16 -2,-5 -3,-11 -5,-18 -1,-8 -1,-15 -1,-19 0,-5 1,-9 4,-14 3,-3 7,-8 12,-11 5,-4 12,-9 22,-15 1,0 2,1 3,1 2,0 5,0 8,-1 4,3 9,6 14,8 11,7 18,9 23,9 4,0 7,3 9,8 -1,4 -2,8 -3,11 0,6 1,11 2,17 2,20 3,34 3,43 1,9 1,16 1,22 -1,5 0,12 1,19 0,7 3,18 7,34 0,2 0,3 0,5 0,1 1,2 1,3 1,8 3,14 4,20 1,6 3,12 4,16 2,11 7,20 14,26 7,6 14,9 22,7 5,-1 11,-5 16,-13 5,-7 10,-14 14,-21 4,-7 8,-11 11,-15 3,-3 5,-1 7,6 0,3 0,6 1,9 1,6 2,12 4,18 -3,14 -5,23 -6,26 0,3 -4,7 -11,13 -4,4 -9,8 -14,14 -5,5 -10,11 -15,16 -5,5 -10,10 -16,15 -5,4 -12,7 -18,8 -20,4 -35,2 -46,-6 -10,-8 -17,-18 -22,-31 -5,-13 -8,-26 -10,-39 -3,-13 -4,-24 -4,-35 -1,-10 -2,-16 -2,-18 -1,-5 -4,-7 -7,-7 -5,5 -12,11 -22,18 -10,6 -17,16 -20,29 -1,4 0,11 1,22 1,10 2,22 3,35 2,13 3,25 4,37 2,12 3,22 6,28 1,3 -1,7 -6,13 -4,6 -9,9 -15,11 -5,0 -9,1 -12,2 -5,1 -9,1 -12,0 -3,-1 -5,-2 -7,-3 -2,-1 -5,-1 -8,-2 -3,0 -7,1 -12,4 -8,4 -12,-2 -13,-18 -1,-17 -4,-43 -8,-78 -1,-11 -3,-22 -4,-33 -3,-15 -5,-32 -9,-48 -3,-18 -7,-33 -11,-48 -4,-15 -7,-28 -10,-39 -3,-11 -6,-19 -9,-23 0,-4 0,-8 0,-12 1,-5 3,-9 8,-12 4,-3 6,-5 5,-5 2,3 5,4 9,4 4,-1 8,-3 12,-4 4,-2 8,-4 11,-7 4,-2 7,-3 9,-4 5,-1 12,2 22,9 10,6 16,12 18,18 2,7 3,15 3,25 0,10 1,24 3,42 0,4 0,7 1,10 0,3 0,6 0,8 1,3 2,7 4,11 1,5 3,10 5,17zm1863 520c-3,4 -7,12 -11,25 -5,12 -11,25 -17,38 -7,14 -16,26 -25,37 -10,10 -20,17 -30,18 -27,3 -49,-8 -68,-34 -18,-26 -30,-56 -34,-91 -2,-22 -3,-47 -2,-76 0,-30 2,-63 5,-99 1,-11 5,-28 12,-53 6,-24 15,-47 28,-67 13,-20 30,-34 50,-41 19,-7 43,0 72,24 3,3 6,5 9,4 2,0 8,0 19,0 10,1 22,2 34,5 12,2 23,6 33,11 10,5 16,13 17,22 0,2 -1,5 -3,10 -2,6 -3,9 -3,11 0,6 1,13 2,19 2,14 -1,34 -7,62 -6,28 -7,57 -4,89 2,13 5,28 12,43 7,14 15,21 24,20 6,0 12,-6 19,-16 7,-9 13,-20 19,-31 6,-12 11,-22 15,-31 4,-10 7,-15 8,-15 2,0 3,2 4,6 0,3 1,7 0,12 0,5 0,10 1,15 0,3 1,7 2,11 0,5 1,8 1,9 1,3 -2,11 -6,23 -4,12 -10,25 -19,38 -9,13 -21,26 -34,37 -14,11 -29,19 -48,20 -10,1 -22,-4 -36,-11 -14,-7 -27,-22 -39,-44zm-49 -282c-5,0 -10,9 -16,26 -6,16 -11,36 -15,60 -5,25 -8,51 -10,79 -2,29 -2,55 1,80 1,13 5,27 10,42 5,16 12,23 19,22 0,0 3,-4 8,-12 4,-8 10,-18 15,-31 4,-11 9,-25 13,-39 4,-14 5,-28 3,-40 1,-4 2,-8 3,-13 0,-7 -1,-13 -1,-20 0,-11 1,-25 3,-43 2,-18 3,-35 3,-52 0,-17 -2,-32 -7,-44 -5,-12 -14,-18 -29,-15zm344 133c-19,-3 -37,-13 -54,-30 -18,-18 -26,-43 -26,-76 0,-5 -1,-10 -1,-14 0,-24 4,-45 14,-64 10,-18 26,-33 51,-41 18,-6 32,-7 45,-6 12,1 22,4 31,10 8,5 17,11 24,19 8,8 16,15 25,23 -2,-11 -5,-21 -7,-31 0,-15 4,-27 11,-35 8,-9 16,-13 22,-15 3,-1 6,-3 8,-5 3,-2 5,-3 6,-3 4,-1 7,-1 11,-1 3,-2 7,-3 11,-4 31,-6 50,5 55,31 1,4 1,7 1,11 -5,7 -10,16 -13,27 -3,11 -5,25 -6,44 -1,18 -1,41 -1,69 1,27 2,62 4,105 1,15 2,31 3,47 0,5 -2,12 -3,20 -2,8 -3,14 -2,17 1,2 1,4 2,7 1,3 2,6 2,7 -1,7 -4,15 -10,23 -5,8 -12,16 -18,23 -7,8 -14,14 -20,19 -6,5 -9,7 -9,7 -4,1 -12,0 -23,-3 -11,-4 -16,-6 -16,-7 -2,-15 0,-25 4,-32 4,-6 5,-15 4,-25 -2,-18 -2,-37 -3,-55 -1,-22 0,-38 0,-47 1,-10 -4,-15 -13,-14 -3,0 -5,0 -7,1 -7,-3 -11,1 -12,10 -2,10 -5,23 -8,38 -2,15 -6,31 -11,49 -5,17 -13,33 -25,45 -14,15 -24,24 -29,29 -6,5 -14,8 -24,11 -18,5 -37,6 -58,0 -21,-5 -40,-18 -58,-38 -6,-7 -9,-11 -10,-11 -2,-1 -2,-4 -2,-9 -2,-20 -3,-32 -3,-37 1,-11 3,-18 7,-20 3,-1 5,1 6,5 1,3 4,8 10,13 5,5 11,8 16,12 14,10 22,17 23,20 2,2 9,1 20,-3 18,-5 31,-18 39,-40 7,-21 13,-46 17,-76zm32 -164c-9,5 -14,16 -14,31 1,12 4,24 8,36 5,12 11,23 19,32 8,9 16,15 27,20 10,4 20,4 33,0 8,-3 11,-11 8,-26 -4,-14 -10,-29 -18,-45 -9,-15 -19,-29 -31,-40 -12,-11 -23,-13 -32,-8zm-1815 -189c-2,3 -4,10 -7,20 -4,10 -9,21 -14,31 -6,11 -13,21 -21,31 -8,9 -17,14 -26,16 -23,5 -40,-2 -55,-21 -15,-18 -24,-40 -30,-67 -3,-16 -7,-35 -10,-58 -3,-22 -7,-48 -11,-76 -1,-8 -1,-22 0,-41 2,-20 6,-38 13,-54 7,-17 19,-29 34,-37 15,-8 35,-4 61,11 3,2 6,3 8,3 2,-1 7,-1 15,-2 9,-1 18,-1 28,0 10,1 19,3 28,6 9,3 15,9 17,16 0,1 0,4 -1,8 0,4 0,7 0,8 2,5 3,10 5,15 4,11 6,27 6,49 1,22 5,45 13,69 4,11 9,21 16,32 8,11 14,16 22,15 4,-1 9,-5 13,-14 5,-8 9,-17 12,-26 3,-9 6,-18 7,-25 2,-8 3,-12 3,-12 2,0 4,1 5,4 1,2 1,5 2,10 1,4 2,7 3,11 1,3 2,6 4,9 1,3 2,6 2,7 1,2 1,9 -1,18 -2,10 -6,20 -12,31 -6,11 -14,22 -25,32 -11,9 -24,17 -40,19 -7,1 -17,-3 -29,-7 -11,-4 -23,-14 -35,-31zm-84 -214c-4,1 -6,9 -8,22 -2,13 -2,29 -2,48 1,19 3,39 6,62 2,22 6,42 11,61 3,10 6,21 12,32 6,11 12,16 18,15 0,0 1,-3 5,-10 3,-7 7,-15 10,-25 3,-9 5,-20 6,-31 1,-12 1,-22 -2,-32 0,-3 0,-6 0,-10 -2,-5 -3,-10 -5,-16 -2,-8 -3,-19 -5,-33 -1,-14 -3,-27 -6,-41 -3,-13 -8,-24 -13,-32 -6,-9 -15,-13 -27,-10zm303 78c-16,-1 -33,-8 -50,-21 -18,-12 -30,-31 -36,-57 -1,-4 -2,-8 -3,-12 -4,-18 -4,-35 1,-50 5,-15 17,-28 36,-36 13,-6 25,-7 35,-7 9,0 18,3 26,6 7,4 14,9 21,14 7,6 15,11 23,17 -3,-8 -6,-16 -10,-24 -1,-12 1,-21 7,-28 5,-8 11,-11 16,-13 2,-1 5,-2 6,-4 2,-2 4,-2 5,-2 3,-1 6,-2 9,-2 2,-1 5,-2 8,-3 25,-6 41,2 46,23 1,3 1,5 1,8 -3,6 -6,14 -7,22 -2,9 -1,20 1,35 2,14 6,32 13,54 6,22 15,49 25,83 4,12 9,24 13,37 1,4 1,9 1,16 0,6 0,11 1,13 1,1 2,3 3,6 1,3 3,4 3,5 1,6 -1,12 -5,19 -3,6 -7,13 -12,19 -5,6 -10,11 -15,15 -4,4 -6,6 -6,6 -4,1 -10,0 -20,-2 -9,-3 -13,-5 -14,-5 -2,-12 -2,-20 0,-26 3,-5 3,-11 1,-19 -5,-15 -8,-29 -12,-44 -5,-17 -8,-29 -9,-37 -2,-8 -7,-11 -14,-11 -2,1 -4,1 -5,1 -6,-1 -9,2 -8,10 0,7 1,17 2,29 0,12 0,25 -1,39 -2,14 -6,27 -15,37 -10,12 -18,20 -22,24 -4,4 -10,7 -18,10 -14,5 -30,6 -48,3 -17,-3 -34,-12 -51,-26 -5,-6 -9,-8 -10,-9 0,0 -1,-2 -2,-6 -4,-16 -7,-25 -7,-29 -1,-9 0,-14 3,-16 2,-1 4,0 5,3 2,3 5,7 10,10 5,3 11,5 16,8 12,7 19,13 21,14 2,2 7,1 16,-3 14,-5 23,-16 26,-33 2,-17 2,-38 0,-61zm-6 -131c-7,5 -9,13 -6,26 2,9 7,18 13,27 6,10 13,18 21,25 8,6 17,11 26,14 9,3 18,2 27,-1 6,-3 7,-9 1,-21 -6,-11 -14,-23 -24,-35 -10,-11 -20,-21 -32,-29 -11,-8 -19,-10 -26,-6zm-2262 599c-4,7 -9,14 -15,23 -7,8 -12,16 -20,24 -6,8 -13,15 -21,20 -7,6 -14,8 -21,8 -9,0 -18,0 -27,0 -5,0 -9,1 -13,1 -9,1 -17,-1 -25,-6 -8,-6 -15,-13 -20,-22 -6,-9 -10,-19 -13,-31 -3,-11 -4,-23 -4,-34 0,-8 2,-19 3,-31 1,-13 4,-26 6,-39 2,-14 4,-27 7,-39 3,-13 5,-23 8,-31 3,-8 6,-16 8,-25 2,-8 3,-16 5,-22 2,-6 4,-11 7,-15 2,-4 5,-6 8,-5 2,0 5,0 8,-1 2,0 4,0 6,-1 3,1 7,2 10,3 0,0 2,-1 6,-2 5,-2 9,-3 14,-4 4,0 8,0 12,0 4,-1 8,-3 11,-6 4,-4 9,-6 17,-7 10,0 21,1 34,3 6,2 13,5 19,12 6,7 12,15 16,24 5,9 9,18 12,28 2,9 3,17 3,24 -1,15 -5,40 -15,74 -4,13 -7,25 -9,36 -2,10 4,16 17,17 6,0 12,1 18,1 4,0 6,-1 9,-5 2,-3 4,-7 6,-12 2,-4 6,-8 10,-12 4,-3 9,-6 15,-6 3,1 4,5 4,10 -1,4 -2,7 -2,11 -2,16 -8,28 -19,35 -11,8 -23,12 -36,13 -10,1 -23,-3 -39,-11zm-28 -19c-2,-2 -5,-7 -9,-16 -4,-10 -8,-21 -11,-33 -4,-13 -7,-25 -9,-38 -3,-13 -4,-24 -4,-32 0,-7 1,-13 2,-20 2,-7 3,-13 3,-18 -1,-8 -3,-12 -7,-12 -6,0 -11,8 -15,22 -3,15 -6,32 -9,50 -3,19 -5,36 -7,53 -1,17 -2,28 -2,33 -1,17 1,32 6,44 5,12 11,18 19,17 12,-1 20,-6 24,-15 4,-10 11,-21 19,-35zm16 -48c3,-7 6,-11 7,-14 2,-3 3,-6 4,-8 0,-2 1,-5 1,-8 0,-3 0,-8 0,-15 1,-4 0,-9 1,-13 0,-8 -1,-18 -5,-30 -4,-13 -7,-21 -11,-26 -2,9 -3,18 -2,28 0,1 -1,6 -1,13 0,8 0,19 1,34 1,17 3,30 5,39zm289 -45c4,19 9,34 15,45 6,12 17,17 33,16 5,-1 8,-1 10,-1 2,-1 4,-2 6,-3 2,-2 5,-4 8,-7 3,-3 6,-7 12,-13 5,-4 10,-8 14,-13 6,-5 9,-9 10,-11 2,-3 2,-4 4,-4 4,-1 6,3 6,10 0,0 0,3 0,7 -1,4 -1,10 -2,18 0,3 -1,5 -2,6 -1,1 -4,5 -9,12 -15,17 -32,31 -50,41 -18,10 -35,16 -50,17 -9,1 -16,1 -21,-1 -5,-1 -13,-4 -24,-10 -10,-5 -17,-14 -21,-24 -4,-10 -8,-19 -9,-29 -2,-9 -4,-17 -6,-22 -2,-6 -6,-8 -11,-4 -2,0 -5,0 -6,1 -8,2 -12,7 -12,14 0,6 -1,17 -2,32 -1,13 -2,25 -3,38 0,7 1,12 5,15 3,3 5,9 5,20 -1,0 -5,3 -14,9 -9,6 -16,10 -21,10 0,0 -3,-1 -8,-2 -5,-1 -11,-3 -17,-6 -5,-3 -11,-7 -16,-11 -5,-4 -7,-8 -8,-13 0,-1 1,-2 1,-5 1,-2 1,-4 1,-5 0,-2 0,-6 -1,-11 -1,-5 -1,-9 -1,-13 1,-11 1,-22 2,-33 3,-32 4,-58 5,-80 0,-21 -1,-40 -2,-56 -1,-15 -3,-29 -6,-41 -2,-11 -5,-23 -9,-34 0,-3 0,-6 0,-8 1,-19 13,-32 38,-37 3,-1 5,0 8,0 3,-1 5,-2 8,-2 1,-1 3,0 6,0 3,0 6,0 8,0 5,0 11,2 18,5 8,4 12,11 15,21 -3,0 -4,4 -5,12 -1,8 -1,19 -1,31 0,12 -1,26 -1,40 -1,14 -1,28 -1,40 0,12 1,22 3,29 1,8 4,11 9,9 25,-8 46,-21 60,-40 13,-18 21,-36 23,-53 1,-7 1,-16 0,-26 -2,-10 -3,-19 -3,-27 0,-8 1,-15 4,-21 2,-6 9,-8 19,-8 21,0 38,7 52,20 14,13 21,27 20,42 -3,33 -14,58 -31,74 -17,17 -36,30 -55,40zm297 62c-4,6 -10,13 -16,22 -6,8 -13,16 -20,23 -8,8 -15,15 -23,20 -8,5 -15,8 -22,8 -10,0 -18,0 -28,0 -4,0 -8,0 -12,1 -9,0 -17,-2 -25,-7 -8,-5 -14,-12 -19,-20 -5,-9 -9,-19 -11,-30 -2,-11 -4,-22 -3,-33 0,-7 1,-17 2,-29 1,-12 3,-25 4,-37 2,-13 3,-26 5,-37 1,-12 3,-22 5,-30 1,-7 3,-15 3,-23 1,-9 2,-16 3,-22 1,-6 2,-11 4,-14 2,-4 4,-5 8,-5 2,0 5,0 8,-1 2,0 4,0 6,-1 3,1 6,2 10,3 0,0 2,-1 6,-3 4,-1 8,-3 13,-3 3,0 7,-1 11,-1 5,0 9,-2 12,-6 3,-3 8,-6 16,-6 10,-1 21,-1 34,1 7,1 13,4 20,11 7,6 14,14 19,22 6,9 11,17 15,26 4,9 6,17 7,24 2,14 -1,38 -8,72 -3,12 -5,24 -7,34 -2,10 4,16 18,16 5,0 11,1 17,1 4,0 7,-1 9,-5 2,-3 3,-7 6,-12 2,-4 5,-8 9,-12 4,-4 9,-6 15,-7 3,2 4,5 4,10 0,4 -1,8 -1,11 -1,15 -8,27 -19,35 -11,7 -24,12 -37,13 -9,2 -22,-2 -38,-9zm-28 -19c-2,-1 -6,-6 -10,-15 -4,-9 -8,-19 -12,-31 -4,-12 -8,-24 -11,-36 -4,-13 -7,-23 -7,-31 -1,-6 0,-13 0,-19 1,-7 1,-12 -1,-18 -1,-7 -4,-11 -7,-11 -7,1 -10,8 -11,22 -2,14 -3,30 -5,48 -1,17 -2,34 -3,51 -1,16 -1,26 -1,31 -1,16 1,30 5,42 5,12 11,17 19,16 12,-1 20,-6 24,-15 5,-9 12,-20 20,-34zm15 -46c3,-6 4,-11 6,-14 1,-3 2,-6 2,-8 1,-2 1,-4 1,-7 0,-3 0,-8 0,-15 -1,-4 -1,-8 -1,-12 -1,-8 -3,-17 -8,-29 -5,-12 -11,-20 -15,-24 0,8 0,17 2,26 0,2 0,6 1,13 1,8 3,18 4,32 2,17 5,29 8,38zm111 46c9,-2 17,-3 26,-5 5,3 10,5 14,7 4,1 9,2 14,1 5,-1 11,-3 19,-6 7,-3 18,-8 31,-16 8,-8 17,-19 25,-32 8,-14 14,-26 16,-36 2,-7 2,-16 4,-27 1,-11 2,-22 3,-34 0,-12 0,-23 -1,-35 -1,-11 -1,-21 -3,-29 -2,-7 -3,-13 -3,-17 1,-4 2,-8 4,-12 3,-3 7,-7 12,-11 5,-4 12,-8 20,-14 1,0 3,0 4,0 2,0 4,-1 7,-1 5,2 10,5 15,6 12,5 20,7 24,6 4,-1 7,1 9,6 -1,3 -2,7 -3,11 1,5 2,10 3,15 3,18 5,30 5,38 0,8 0,14 0,20 0,5 1,11 1,17 1,6 3,16 6,31 1,2 0,4 1,7 1,6 2,12 2,17 1,5 2,10 3,14 3,9 7,17 14,22 6,5 14,7 22,5 5,-2 11,-6 16,-14 6,-6 11,-13 15,-20 5,-6 8,-11 12,-14 3,-4 5,-2 7,4 0,2 0,5 0,8 1,5 2,10 3,15 -2,7 -4,12 -4,16 -1,3 -2,6 -3,8 -1,3 -2,5 -4,7 -1,2 -4,4 -7,7 -9,8 -20,17 -29,29 -10,12 -21,20 -34,23 -21,5 -36,4 -47,-2 -11,-6 -19,-15 -23,-27 -5,-12 -8,-25 -9,-38 -1,-12 -2,-24 -2,-34 0,-10 0,-16 -1,-18 -1,-4 -3,-6 -7,-5 -2,2 -5,10 -7,22 -2,13 -6,28 -10,44 -5,16 -11,31 -17,46 -7,15 -15,26 -24,32 -7,2 -13,4 -19,8 -5,4 -11,8 -18,13 -7,4 -14,9 -23,13 -9,4 -22,7 -37,9 -5,0 -10,-3 -18,-9 -7,-7 -13,-15 -18,-23 -4,-9 -6,-18 -5,-27 1,-9 8,-16 19,-21zm500 -76c-2,3 -6,10 -11,19 -6,9 -12,19 -19,29 -8,10 -16,19 -25,28 -10,8 -19,13 -28,15 -23,3 -40,-3 -52,-20 -13,-17 -19,-37 -19,-62 0,-15 1,-32 3,-53 1,-20 1,-43 1,-69 0,-8 2,-20 5,-38 3,-17 8,-34 17,-50 8,-15 20,-27 35,-34 16,-8 36,-5 62,9 3,1 6,2 8,2 2,-1 7,-2 16,-3 8,-1 18,-1 28,-1 10,1 19,2 28,5 9,2 14,7 17,14 0,1 0,4 -2,8 -1,4 -1,6 -1,7 2,5 3,10 4,14 3,10 3,25 0,46 -2,21 -2,42 1,65 2,9 4,19 9,30 5,10 11,14 18,13 5,-1 11,-6 17,-13 7,-8 12,-17 17,-26 5,-8 9,-17 13,-24 3,-7 5,-11 5,-11 3,-1 5,1 5,4 0,2 0,4 0,8 0,4 0,8 0,11 1,3 1,6 2,9 0,3 1,5 1,6 0,2 -2,8 -6,17 -4,10 -10,19 -18,30 -8,11 -19,21 -32,30 -12,10 -26,17 -42,19 -8,1 -17,-2 -28,-5 -11,-4 -21,-14 -29,-29zm-50 -197c-5,1 -7,8 -11,20 -3,12 -5,27 -7,45 -2,17 -2,36 -3,56 -1,21 -2,40 -1,57 1,9 2,19 6,29 3,11 8,16 13,14 0,0 3,-3 8,-9 5,-6 9,-14 15,-23 5,-9 9,-19 13,-29 4,-11 5,-21 4,-29 1,-3 1,-7 2,-10 0,-5 -1,-10 -2,-14 0,-8 0,-18 1,-31 1,-13 -1,-26 -2,-38 -2,-12 -5,-22 -10,-30 -6,-8 -14,-11 -26,-8zm352 146c0,-3 0,-5 0,-8 -1,-2 -1,-4 -1,-6 -27,40 -52,62 -75,67 -7,2 -14,1 -22,-1 -9,-2 -16,-5 -23,-11 -7,-5 -12,-12 -17,-20 -5,-7 -8,-16 -9,-26 -2,-23 -4,-42 -7,-56 -3,-14 -4,-28 -5,-40 -1,-12 0,-25 1,-39 1,-14 4,-33 7,-56 1,-11 6,-22 15,-34 9,-12 17,-19 25,-21 2,0 5,-1 10,0 5,0 10,1 15,2 5,1 10,1 14,3 4,1 7,2 8,2 0,1 1,1 2,2 1,-3 3,-6 4,-9 2,-3 4,-5 8,-7 4,-1 5,-2 4,-1 1,-1 2,-1 6,0 3,0 5,0 7,-1 2,0 5,-3 10,-6 5,-4 9,-7 11,-7 0,0 2,0 7,1 5,0 9,1 16,2 6,1 12,3 17,5 6,2 10,6 11,10 2,7 3,15 1,24 -1,9 1,23 7,42 3,9 4,17 4,24 0,8 0,14 2,19 2,4 5,8 7,12 5,22 9,43 13,64 1,3 2,7 3,13 1,5 3,11 4,17 2,7 3,13 4,20 1,6 2,12 2,16 1,36 -5,69 -18,99 -2,5 -8,12 -16,22 -9,10 -19,20 -31,30 -11,11 -22,20 -34,29 -11,8 -19,13 -26,14 -22,5 -40,1 -55,-10 -14,-12 -19,-32 -17,-61 1,-4 1,-6 3,-8 1,-1 4,-2 10,-5 5,-3 10,-7 16,-11 2,-1 3,2 5,7 2,6 5,12 10,18 4,7 11,13 20,17 9,5 21,6 37,3 8,-2 12,-9 14,-21 1,-12 2,-26 3,-42 0,1 0,-2 -1,-7 0,-5 -1,-12 -2,-20 -1,-8 -1,-16 -2,-25 -1,-9 -1,-18 -2,-25zm-53 -211c-2,1 -5,1 -7,2 -2,0 -4,0 -6,0 -2,4 -3,13 -5,26 -1,13 -2,28 -3,43 -1,16 -2,33 -2,49 1,17 1,31 4,44 1,11 4,22 9,33 5,11 11,16 20,14 8,-12 14,-25 18,-42 4,-16 5,-33 5,-50 -1,-18 -2,-35 -5,-51 -3,-17 -7,-32 -9,-44 -1,-4 0,-7 0,-11 0,-3 -3,-6 -8,-9 -5,-3 -9,-5 -11,-4z"/>
 </g>
</svg>
